<svg width="20" height="19" viewBox="0 0 20 19" fill="none" xmlns="http://www.w3.org/2000/svg">
<path fill-rule="evenodd" clip-rule="evenodd" d="M9.99967 0C4.93967 0 0.833008 4.10667 0.833008 9.16667C0.833008 14.2267 4.93967 18.3333 9.99967 18.3333C15.0597 18.3333 19.1663 14.2267 19.1663 9.16667C19.1663 4.10667 15.0597 0 9.99967 0ZM9.99935 16.5007C5.95685 16.5007 2.66602 13.2098 2.66602 9.16732C2.66602 5.12482 5.95685 1.83398 9.99935 1.83398C14.0418 1.83398 17.3327 5.12482 17.3327 9.16732C17.3327 13.2098 14.0418 16.5007 9.99935 16.5007ZM10.3202 11.439V13.749H12.0142V11.1951C12.0142 10.8358 11.9201 10.5492 11.7318 10.3353C11.5436 10.1128 11.2784 9.99307 10.9362 9.97596V9.74496C11.3383 9.60807 11.6548 9.3899 11.8858 9.09046C12.0503 8.88492 12.1583 8.64109 12.2098 8.35896H13.6312V7.04996H12.0905C12.0676 6.99937 12.0422 6.95232 12.0142 6.90879C11.8687 6.66924 11.6719 6.46818 11.4238 6.30562V6.07463H13.6312V4.76562H6.70117V6.20296H9.03684C9.54162 6.20296 9.92234 6.32701 10.179 6.57513C10.3146 6.69761 10.4156 6.85589 10.4818 7.04996H6.70117V8.35896H10.4829C10.4166 8.55655 10.3153 8.7191 10.179 8.84663C9.92234 9.08618 9.54162 9.20596 9.03684 9.20596H6.70117V10.746H9.62717C9.87528 10.746 10.0507 10.8101 10.1533 10.9385C10.2646 11.0668 10.3202 11.2336 10.3202 11.439Z" fill="#489194"/>
</svg>
