<svg width="37" height="21" viewBox="0 0 37 21" fill="none" xmlns="http://www.w3.org/2000/svg">
<path d="M18.4978 0.00656883C23.8932 0.00656883 29.2852 0.00656883 34.6806 0.00656883C34.7349 0.00656883 34.7961 -0.0242682 34.8437 0.0476848C34.8607 0.0716692 34.9354 0.0476848 34.983 0.0545375C35.0135 0.0545375 35.0611 0.0305532 35.0713 0.0922272C35.0713 0.0922272 35.0815 0.102506 35.0849 0.0990798C35.1698 0.0682428 35.2276 0.160754 35.3125 0.153901C35.3601 0.150475 35.4009 0.195017 35.4484 0.215575C35.5028 0.236133 35.5504 0.290955 35.6115 0.294381C35.6523 0.294381 35.6455 0.328644 35.6591 0.345776C35.7135 0.404024 35.8154 0.400597 35.846 0.486256C36.0226 0.537651 36.094 0.705541 36.2231 0.815184C36.2809 0.863152 36.3352 0.917974 36.3828 0.976221H36.3896C36.4032 1.05845 36.4983 1.09614 36.5051 1.17837C36.5085 1.21949 36.5425 1.21606 36.5561 1.23662C36.5934 1.30172 36.624 1.37025 36.6614 1.43192C36.6852 1.47304 36.675 1.54157 36.7361 1.56212C36.7429 1.56212 36.7497 1.57583 36.7463 1.58268C36.7158 1.65806 36.7701 1.71974 36.8007 1.7677C36.8449 1.83623 36.8143 1.91846 36.8483 1.96643C36.8958 2.03153 36.8619 2.11376 36.8958 2.15488C36.9672 2.25082 36.906 2.35703 36.9434 2.44269C37.0385 2.65512 36.9842 2.87441 36.9842 3.08684C36.9876 8.19208 36.9876 13.2939 36.9842 18.3991C36.9842 18.4471 37.0046 18.4985 36.9468 18.5465C36.9196 18.567 36.9434 18.6527 36.9366 18.7109C36.9332 18.752 36.9638 18.8069 36.8958 18.8308C36.889 18.8308 36.8958 18.8651 36.889 18.8822C36.8788 18.9302 36.9196 18.9953 36.8449 19.0261C36.8381 19.0261 36.8449 19.0501 36.8415 19.0638C36.8381 19.1015 36.8619 19.1529 36.8007 19.1666C36.8007 19.1666 36.7939 19.1769 36.7973 19.1803C36.8041 19.2728 36.7327 19.3379 36.709 19.4167C36.6852 19.4956 36.6546 19.5504 36.6104 19.6155C36.5629 19.6874 36.5561 19.7902 36.4677 19.8416C36.4915 19.941 36.359 19.9581 36.359 20.054C36.359 20.0986 36.2911 20.1329 36.2503 20.1705C36.1585 20.2596 36.077 20.3693 35.9751 20.4378C35.9003 20.4892 35.8324 20.544 35.7644 20.6057C35.744 20.6262 35.6897 20.5954 35.6829 20.6502C35.6183 20.6297 35.5911 20.6982 35.5368 20.7085C35.4892 20.7153 35.4417 20.753 35.4009 20.7873C35.3669 20.8147 35.299 20.777 35.2922 20.849C35.2106 20.8215 35.1563 20.9038 35.0815 20.9004C35.0543 20.9004 35.0203 20.8866 35.0136 20.9346C35.0102 20.9552 34.983 20.9483 34.966 20.9483C34.9116 20.9483 34.8607 20.9483 34.8063 20.9483C34.7757 20.9483 34.7315 20.9278 34.7248 20.986C34.7248 20.9894 34.701 20.9963 34.6874 20.9963C34.6602 20.9963 34.633 20.9963 34.6058 20.9963C23.849 20.9963 13.0922 20.9963 2.33531 20.9963C2.28775 20.9963 2.24018 21.0168 2.19601 20.9586C2.17563 20.9312 2.09408 20.9517 2.04312 20.9483C2.01594 20.9483 1.97517 20.9655 1.96837 20.9141C1.96837 20.9004 1.94459 20.9004 1.9344 20.9038C1.84946 20.9278 1.77131 20.8866 1.71015 20.849C1.62861 20.801 1.53008 20.8078 1.46213 20.753C1.40777 20.7051 1.31263 20.7119 1.29564 20.6228C1.19711 20.6434 1.17673 20.52 1.08499 20.5097C1.04082 20.5063 1.00345 20.4378 0.962679 20.4001C0.874341 20.311 0.789401 20.2219 0.70446 20.1294C0.653496 20.0746 0.575351 20.0472 0.571954 19.9513C0.571954 19.9204 0.510797 19.8964 0.483616 19.8656C0.436049 19.8074 0.415663 19.7285 0.37829 19.6737C0.351109 19.6326 0.368097 19.5641 0.303542 19.5435C0.269566 19.5332 0.32053 19.4544 0.252578 19.4476C0.269566 19.3791 0.181228 19.3482 0.194819 19.2763C0.198216 19.2523 0.211807 19.2146 0.16424 19.2077C0.147252 19.2077 0.15065 19.1872 0.15065 19.1735C0.147252 19.1289 0.167638 19.0707 0.103083 19.0501C0.130264 18.9645 0.0453236 18.9062 0.0487212 18.8206C0.0521189 18.7692 0.0826974 18.7006 0.00794988 18.6595C-0.00224295 18.6561 0.00455227 18.615 0.00455227 18.591C0.00455227 18.1353 0.00455227 17.6796 0.00455227 17.2239C0.00455227 12.3003 0.00455227 7.37661 0.00455227 2.45297C0.00455227 2.40843 -0.019231 2.35703 0.041926 2.32277C0.0623117 2.30907 0.0453236 2.23711 0.0521189 2.19257C0.0555165 2.15488 0.0283356 2.10348 0.0928902 2.08978C0.0928902 2.08978 0.0996854 2.0795 0.0996854 2.07607C0.0691069 1.97671 0.140457 1.89791 0.154047 1.80539C0.160842 1.75743 0.184626 1.69918 0.228795 1.66149C0.238988 1.65121 0.24918 1.64093 0.245783 1.63065C0.215204 1.55527 0.276361 1.4936 0.303542 1.44563C0.334121 1.38738 0.344314 1.30515 0.425856 1.27089C0.46323 1.25718 0.439447 1.19551 0.483616 1.15782C0.558363 1.09272 0.578749 0.976221 0.67728 0.924826C0.697665 0.770641 0.857353 0.726099 0.925305 0.606177C0.945691 0.571914 1.00005 0.606177 1.03063 0.551356C1.0816 0.458845 1.20731 0.44514 1.27186 0.359481C1.28545 0.338923 1.3568 0.308086 1.37379 0.311513C1.43834 0.318365 1.45873 0.229281 1.52329 0.253265C1.53688 0.184738 1.63201 0.236133 1.6456 0.167607C1.6456 0.16418 1.65579 0.157328 1.65919 0.160754C1.74413 0.191591 1.79849 0.0990798 1.88003 0.109359C1.90042 0.109359 1.9242 0.116212 1.9344 0.0819482C1.95138 0.0408322 1.99555 0.0682428 2.02613 0.0613902C2.0771 0.0476848 2.14845 0.0956535 2.18582 0.0168478C2.18582 0.00999516 2.2096 0.0134215 2.22319 0.0134215C2.24698 0.0134215 2.27076 0.0134215 2.29454 0.0134215C7.69675 0.0134215 13.099 0.0134215 18.5012 0.0134215L18.4978 0.00656883ZM18.2531 19.3996H18.2769C22.2555 19.3996 26.2341 19.3996 30.2127 19.3996C30.2841 19.3996 30.3214 19.3825 30.3011 19.3071C30.2705 19.1769 30.3724 19.0673 30.352 18.9405C30.4234 18.8891 30.3928 18.8103 30.3996 18.7418C30.3996 18.7349 30.4064 18.7212 30.4098 18.7212C30.4608 18.7178 30.454 18.6767 30.4472 18.6493C30.4234 18.5533 30.5253 18.4882 30.4981 18.3957C30.4981 18.3957 30.4981 18.3888 30.5015 18.3888C30.5831 18.3477 30.5253 18.2484 30.5865 18.1901C30.6136 18.1627 30.6306 18.0771 30.6544 18.0531C30.7122 17.9914 30.6782 17.9092 30.7326 17.8475C30.7597 17.8167 30.7767 17.7447 30.8005 17.7104C30.8345 17.6659 30.8447 17.6145 30.8753 17.57C30.916 17.5117 30.9364 17.4363 30.9772 17.3747C30.9908 17.3541 31.0282 17.3712 31.0214 17.3404C31.0044 17.241 31.1505 17.2273 31.1267 17.1245C31.215 17.0971 31.198 16.9841 31.266 16.9464C31.3203 16.9155 31.2966 16.8607 31.3271 16.8264C31.3951 16.7511 31.5004 16.7134 31.5106 16.5934C31.5106 16.59 31.5174 16.5866 31.5208 16.5832C31.5888 16.5421 31.6363 16.477 31.6907 16.4256C31.7688 16.3502 31.8368 16.2679 31.9183 16.196C31.9999 16.124 32.0508 16.0281 32.1698 15.987C32.2581 15.9562 32.2921 15.8122 32.4144 15.802C32.4619 15.7026 32.5605 15.6718 32.642 15.6169C32.6624 15.6032 32.6488 15.5621 32.6828 15.569C32.7779 15.5827 32.7983 15.4628 32.8934 15.4559C32.9444 15.4525 33.009 15.4045 33.0633 15.3737C33.1211 15.3394 33.1652 15.2812 33.2366 15.2606C33.2842 15.2435 33.3317 15.1852 33.3725 15.1921C33.4507 15.2024 33.505 15.151 33.556 15.127C33.6307 15.0927 33.6953 15.0345 33.7836 15.0379C33.7904 15.0379 33.804 15.0379 33.804 15.031C33.838 14.9454 33.9331 14.9899 33.9977 14.9522C34.0622 14.9145 34.1608 14.8597 34.2593 14.8906C34.3136 14.822 34.3918 14.8494 34.4631 14.8426C34.4699 14.8426 34.4835 14.8357 34.4835 14.8323C34.4903 14.7741 34.5345 14.7981 34.5651 14.7946C34.616 14.7912 34.6942 14.8118 34.7112 14.7843C34.7553 14.7227 34.8097 14.7501 34.8573 14.7467C34.9082 14.7398 34.9592 14.7467 35.0102 14.7467C35.0271 14.7467 35.0577 14.7535 35.0611 14.7364C35.0713 14.6781 35.1121 14.7021 35.1427 14.6987C35.197 14.6987 35.2514 14.6918 35.3023 14.6987C35.3805 14.709 35.4043 14.6884 35.4043 14.5993C35.4043 12.0296 35.4043 9.45982 35.4043 6.89007C35.4043 6.87294 35.4043 6.85924 35.4043 6.8421C35.4077 6.80441 35.3941 6.79071 35.3533 6.79071C35.2616 6.79071 35.1732 6.79071 35.0815 6.79071C35.0645 6.79071 35.0305 6.79071 35.0305 6.78386C35.0102 6.71876 34.9592 6.74617 34.9184 6.74274C34.8607 6.73931 34.7995 6.74274 34.7417 6.74274C34.7248 6.74274 34.6908 6.74274 34.6908 6.73246C34.6772 6.66736 34.6262 6.69135 34.5956 6.69477C34.4801 6.71533 34.385 6.61254 34.2695 6.64338C34.2661 6.64338 34.2593 6.64338 34.2559 6.63653C34.2049 6.568 34.1166 6.57485 34.052 6.55429C33.9807 6.53374 33.9195 6.46521 33.8346 6.49605C33.8346 6.49605 33.8278 6.49605 33.8278 6.49262C33.7938 6.40696 33.6953 6.46863 33.6375 6.40696C33.6069 6.3727 33.5322 6.3213 33.4574 6.35214C33.454 6.35214 33.4405 6.34529 33.4405 6.34186C33.4201 6.28019 33.3351 6.3213 33.3147 6.25963C33.2502 6.28361 33.2298 6.18082 33.1686 6.20823C33.1483 6.15341 33.0667 6.17397 33.0599 6.14999C33.0327 6.0609 32.924 6.08831 32.89 6.01636C32.7915 6.04034 32.7779 5.88958 32.676 5.91357C32.6454 5.82448 32.5469 5.82791 32.4891 5.77309C32.4721 5.75596 32.4857 5.71827 32.4484 5.72512C32.3838 5.7354 32.3634 5.684 32.326 5.64631C32.2887 5.6052 32.2513 5.54695 32.2037 5.53325C32.146 5.51954 32.1188 5.48528 32.0848 5.44759C31.9965 5.3585 31.9081 5.27284 31.8198 5.18719C31.7315 5.0981 31.6499 5.00559 31.5548 4.92336C31.514 4.88567 31.5242 4.82399 31.497 4.80344C31.3679 4.72463 31.3305 4.57387 31.2218 4.48479C31.1844 4.45395 31.1878 4.39228 31.1641 4.37514C31.0859 4.31347 31.0689 4.22439 31.0248 4.14558C30.9908 4.09076 30.9432 4.04279 30.9126 3.97769C30.8922 3.93315 30.8583 3.88175 30.8447 3.83721C30.8277 3.78924 30.7665 3.75498 30.7835 3.6933C30.7122 3.68988 30.7529 3.62135 30.7292 3.58709C30.6884 3.53569 30.6408 3.4843 30.6476 3.41234C30.6544 3.34724 30.5763 3.31641 30.5899 3.25131L30.5049 3.05601C30.5049 2.96349 30.4268 2.88469 30.454 2.78533C30.454 2.7819 30.454 2.77162 30.4472 2.77162C30.3826 2.75791 30.4098 2.70652 30.4064 2.66883C30.4064 2.64142 30.4166 2.59688 30.403 2.59002C30.3316 2.54548 30.3656 2.48038 30.3588 2.42213C30.3588 2.40843 30.3588 2.38787 30.352 2.38444C30.2841 2.36731 30.3147 2.31249 30.3113 2.27138C30.3045 2.21313 30.3316 2.12747 30.3011 2.10006C30.2467 2.05209 30.2671 2.00755 30.2637 1.95958C30.2603 1.86022 30.2603 1.76085 30.2637 1.66149C30.2637 1.61352 30.2535 1.58953 30.2025 1.59639C30.1855 1.59639 30.1652 1.59639 30.1482 1.59639C22.2249 1.59639 14.3051 1.59639 6.38187 1.59639C6.3445 1.59639 6.28334 1.57926 6.27655 1.60667C6.26295 1.65121 6.22558 1.6889 6.21879 1.72659C6.195 1.87735 6.24936 2.03496 6.17122 2.18572C6.15083 2.22683 6.17122 2.28508 6.16782 2.33648C6.16782 2.36389 6.18141 2.405 6.15763 2.41185C6.10327 2.42899 6.11686 2.4701 6.12025 2.50094C6.12705 2.6003 6.03871 2.68254 6.06929 2.78875C6.06929 2.79218 6.06929 2.79903 6.0625 2.80246C5.98775 2.847 6.00474 2.93951 5.98435 3.00118C5.96057 3.07314 5.89601 3.14166 5.92319 3.22732V3.23418C5.84165 3.27529 5.89941 3.37465 5.83825 3.4329C5.81107 3.45689 5.76011 3.51171 5.7771 3.57338C5.70575 3.57681 5.75671 3.65219 5.71934 3.67617C5.66837 3.70701 5.66498 3.76868 5.64459 3.81323C5.6242 3.85777 5.59362 3.90574 5.57664 3.95713C5.55965 4.01538 5.52228 4.07705 5.4883 4.1353C5.45432 4.19355 5.40336 4.24494 5.37278 4.30662C5.35239 4.34773 5.31842 4.382 5.29124 4.42654C5.25726 4.48479 5.2063 4.53961 5.17232 4.60128C5.12815 4.68351 5.00584 4.7075 5.00924 4.82399C5.00924 4.83085 4.99904 4.83427 4.99565 4.84113C4.88352 4.93364 4.78839 5.04671 4.68306 5.14607C4.60492 5.21802 4.53697 5.30368 4.45542 5.37563C4.37388 5.44759 4.32292 5.54695 4.204 5.58464C4.13945 5.6052 4.08169 5.68058 4.01713 5.73197C3.93899 5.79022 3.86424 5.85532 3.7827 5.91014C3.76231 5.92385 3.7759 5.95811 3.74193 5.96154C3.66378 5.96154 3.60602 6.01636 3.54147 6.05747C3.52108 6.07118 3.53127 6.1123 3.50749 6.10544C3.43954 6.08488 3.41576 6.17397 3.3512 6.16369C3.33421 6.16369 3.26626 6.19795 3.25947 6.20823C3.23228 6.26305 3.17452 6.24592 3.14055 6.26991C3.09298 6.30417 3.03522 6.34529 2.98086 6.34529C2.91291 6.34529 2.85515 6.3864 2.81778 6.41381C2.75322 6.46178 2.67847 6.46521 2.61392 6.48577C2.54257 6.50632 2.47462 6.57485 2.38968 6.54744C2.38968 6.54744 2.37609 6.55087 2.37609 6.55429C2.36929 6.61254 2.32512 6.5817 2.29794 6.59541C2.2198 6.62967 2.14165 6.65708 2.05331 6.64338C2.04991 6.64338 2.03972 6.6468 2.03972 6.65023C2.03293 6.7119 1.98536 6.68449 1.95138 6.68792C1.90042 6.69477 1.82907 6.66394 1.80529 6.6982C1.77131 6.74617 1.73394 6.73931 1.69996 6.73589C1.62182 6.72561 1.59803 6.75302 1.59803 6.83525C1.59803 9.43584 1.59803 12.0399 1.59803 14.6404C1.59803 14.7124 1.60823 14.7535 1.68977 14.7398C1.70676 14.7398 1.73733 14.733 1.74073 14.7535C1.75093 14.8049 1.7883 14.7878 1.81548 14.7878C1.86984 14.7912 1.95138 14.7706 1.96837 14.7981C2.01254 14.8597 2.06011 14.8289 2.10767 14.8357C2.12466 14.8392 2.15864 14.8323 2.16204 14.8392C2.19941 14.918 2.26736 14.8734 2.32172 14.8837C2.33531 14.8837 2.3557 14.8837 2.3591 14.8871C2.39647 14.9728 2.5018 14.9008 2.54936 14.9762C2.56635 15.0002 2.6411 14.9762 2.68867 15.0242C2.71585 15.0516 2.777 15.0413 2.82797 15.0687C2.87893 15.0961 2.93669 15.1544 3.01144 15.127C3.02163 15.1236 3.03183 15.127 3.04202 15.1441C3.07599 15.1887 3.13375 15.2024 3.17792 15.2195C3.22549 15.2366 3.25947 15.2983 3.32062 15.2812C3.32402 15.3531 3.39877 15.3017 3.42255 15.3394C3.47351 15.4182 3.56185 15.4353 3.6366 15.4765C3.69436 15.5073 3.74193 15.5621 3.80648 15.593C3.84725 15.6135 3.88123 15.6512 3.9254 15.6752C3.98316 15.7095 4.03752 15.7609 4.09868 15.7951C4.18022 15.8397 4.204 15.963 4.31952 15.9596C4.33651 15.9596 4.32971 15.9836 4.33991 15.9904C4.44523 16.0932 4.55396 16.196 4.65588 16.2988C4.74422 16.3879 4.82916 16.477 4.9141 16.566C4.95827 16.6106 4.99565 16.6551 5.02283 16.7202C5.05001 16.7888 5.12136 16.8436 5.16892 16.9087C5.22668 16.9875 5.28104 17.0834 5.35239 17.1485C5.39656 17.1862 5.37618 17.2342 5.40676 17.2616C5.44753 17.2958 5.47131 17.3335 5.49849 17.3815C5.51888 17.4226 5.51888 17.474 5.55285 17.5014C5.60042 17.5391 5.60722 17.5974 5.6276 17.6419C5.64799 17.6864 5.67177 17.755 5.69216 17.779C5.75331 17.8475 5.76351 17.94 5.81787 18.012C5.84845 18.0496 5.90621 18.1182 5.87563 18.197C5.87563 18.2038 5.87563 18.221 5.88242 18.2278C5.95717 18.2724 5.93678 18.3649 5.96057 18.4265C5.98435 18.4951 6.04891 18.567 6.02172 18.6527C6.02172 18.6527 6.02172 18.6595 6.02512 18.6595C6.09647 18.6835 6.0591 18.7418 6.06589 18.7863C6.06929 18.8069 6.0591 18.8411 6.06929 18.848C6.16782 18.9062 6.0625 19.033 6.15763 19.0981C6.18141 19.1152 6.16103 19.194 6.16103 19.2454C6.16103 19.3722 6.18481 19.3962 6.31392 19.3962C10.2959 19.3962 14.2745 19.3962 18.2565 19.3962L18.2531 19.3996Z" fill="#3D3D3D"/>
<path d="M19.0992 18.1423C19.0551 18.1423 19.0143 18.1389 18.9701 18.1423C18.9259 18.1457 18.8682 18.1149 18.8444 18.1834C18.8444 18.1903 18.8104 18.1903 18.79 18.1903C18.4163 18.1903 18.0426 18.1903 17.6688 18.1903C17.6417 18.1903 17.6111 18.2006 17.6009 18.156C17.5975 18.132 17.5635 18.1423 17.5431 18.1423C17.4582 18.1423 17.3732 18.1423 17.2883 18.1423C17.2441 18.1423 17.1864 18.1697 17.1626 18.1012C17.1626 18.0943 17.132 18.0943 17.1184 18.0943C17.0573 18.0943 16.9961 18.0943 16.9349 18.0943C16.8976 18.0943 16.8466 18.1183 16.8296 18.0532C16.8296 18.0464 16.7956 18.0498 16.7787 18.0464C16.7141 18.0327 16.6326 18.0841 16.5816 18.0018C16.5782 17.995 16.5544 18.0018 16.5442 18.0018C16.4933 17.9915 16.4287 18.0327 16.3947 17.9573C16.3913 17.947 16.354 17.9573 16.3336 17.9539C16.2894 17.947 16.2316 17.9847 16.2079 17.9127C16.2079 17.9127 16.2045 17.9093 16.2011 17.9093C16.1093 17.9367 16.0414 17.8339 15.9496 17.8579C15.9225 17.8648 15.8817 17.875 15.8783 17.8202C15.8783 17.8202 15.8681 17.8099 15.8647 17.8134C15.7798 17.8442 15.7254 17.7551 15.6439 17.762C15.5895 17.7654 15.5589 17.6935 15.4978 17.7037C15.4944 17.6455 15.4502 17.6695 15.4196 17.666C15.3551 17.6592 15.3041 17.6181 15.2531 17.5838C15.2158 17.5598 15.158 17.577 15.1376 17.5221C15.0629 17.553 15.0017 17.4982 14.9541 17.4639C14.91 17.4331 14.8522 17.4399 14.8148 17.3885C14.7945 17.3611 14.7333 17.3337 14.6925 17.3303C14.6348 17.3234 14.611 17.2549 14.5464 17.272C14.5294 17.2754 14.5396 17.2412 14.5192 17.2309C14.4547 17.1932 14.3969 17.1384 14.3188 17.135C14.2814 17.135 14.2984 17.0973 14.278 17.087C14.2135 17.0527 14.1557 16.9945 14.0776 16.9911C14.0402 16.9911 14.0504 16.9534 14.03 16.9397C13.9518 16.8848 13.8737 16.8197 13.799 16.7649C13.731 16.7169 13.6732 16.6381 13.6053 16.6142C13.4966 16.5765 13.449 16.4908 13.3743 16.4223C13.3437 16.3914 13.2927 16.4086 13.2553 16.364C13.1772 16.2681 13.0821 16.1859 12.9937 16.1002C12.902 16.0077 12.8136 15.9152 12.7219 15.8261C12.6166 15.7233 12.5113 15.6171 12.4161 15.504C12.3414 15.4149 12.2598 15.3259 12.1919 15.2333C12.1409 15.1682 12.056 15.1031 12.0458 15.038C12.0322 14.9455 11.9133 14.925 11.9337 14.8256C11.9405 14.7982 11.9031 14.8085 11.8861 14.7913C11.8317 14.7331 11.8351 14.6337 11.7468 14.6029C11.7672 14.5378 11.6788 14.5104 11.6924 14.4453C11.6992 14.4076 11.6585 14.4247 11.6449 14.4042C11.6075 14.3391 11.5803 14.2671 11.5429 14.2089C11.5158 14.1643 11.5022 14.1129 11.4682 14.0684C11.4444 14.0376 11.4172 13.9793 11.4002 13.9313C11.3832 13.8834 11.3731 13.8217 11.3221 13.7874C11.2881 13.7669 11.3391 13.6949 11.2711 13.6881C11.2847 13.623 11.2066 13.5921 11.2134 13.527C11.2202 13.4551 11.1658 13.4071 11.1318 13.3523C11.125 13.3386 11.1148 13.3283 11.1216 13.318C11.1522 13.2426 11.0911 13.181 11.0639 13.133C11.0367 13.085 11.0469 13.0131 11.0231 12.9994C10.9416 12.9514 11.0231 12.8418 10.9348 12.8075C10.928 12.8075 10.9348 12.7835 10.9314 12.7698C10.9212 12.715 10.9653 12.6465 10.8872 12.6122C10.8804 12.6122 10.8872 12.5814 10.8872 12.5642C10.8804 12.5334 10.911 12.4854 10.8498 12.4751C10.8464 12.4751 10.8396 12.4614 10.843 12.4546C10.8702 12.3312 10.7615 12.2285 10.7921 12.1017C10.7989 12.0811 10.8057 12.0469 10.7615 12.04C10.7377 12.0366 10.7445 12.0092 10.7445 11.992C10.7445 11.9338 10.7445 11.879 10.7445 11.8207C10.7445 11.7933 10.7615 11.7556 10.7105 11.7453C10.6901 11.7419 10.6969 11.7145 10.6969 11.6939C10.6969 11.6357 10.6969 11.5809 10.6969 11.5261C10.6935 11.4815 10.7241 11.4233 10.6562 11.3959C10.6494 11.3959 10.6494 11.3547 10.6494 11.3342C10.6494 11.1492 10.6494 10.9641 10.6494 10.7757C10.6494 10.738 10.6731 10.6866 10.6086 10.6729C10.6052 10.6729 10.6018 10.6523 10.6018 10.6421C10.6018 10.5358 10.5712 10.4193 10.6086 10.3303C10.6935 10.1247 10.6222 9.91568 10.6494 9.7101C10.6528 9.67241 10.6256 9.62101 10.6901 9.60388C10.6969 9.60388 10.6969 9.56962 10.6969 9.55248C10.6969 9.48396 10.6969 9.412 10.6969 9.34348C10.6969 9.29893 10.6731 9.24754 10.7343 9.21328C10.7547 9.19957 10.7377 9.12762 10.7445 9.08308C10.7479 9.04539 10.7207 8.99742 10.7853 8.97686C10.7921 8.97686 10.7887 8.93574 10.7921 8.91519C10.8057 8.85009 10.7547 8.77128 10.8362 8.72331C10.843 8.71989 10.8362 8.6959 10.8362 8.68562C10.8464 8.63423 10.8057 8.56913 10.8804 8.53486C10.8906 8.53144 10.8804 8.49375 10.8838 8.47319C10.8906 8.42865 10.8532 8.3704 10.9246 8.34641C10.9246 8.34641 10.928 8.34299 10.928 8.33956C10.9008 8.2539 10.9653 8.1888 10.9857 8.12028C11.0061 8.05175 10.9993 7.96609 11.0673 7.9147C11.0741 7.91127 11.0775 7.89757 11.0741 7.89414C11.0435 7.81876 11.1046 7.76051 11.1284 7.70912C11.1692 7.62688 11.1658 7.51382 11.227 7.46585C11.2745 7.42473 11.2338 7.3425 11.3085 7.33565C11.3119 7.33565 11.3187 7.31509 11.3153 7.30481C11.2847 7.22943 11.3527 7.17461 11.3731 7.11636C11.3968 7.04783 11.4274 6.96218 11.4716 6.92106C11.5293 6.86967 11.5599 6.80114 11.5905 6.74632C11.6109 6.7052 11.6619 6.66066 11.6517 6.60241C11.6449 6.56815 11.6788 6.57157 11.6924 6.55444C11.74 6.49277 11.7842 6.42767 11.7944 6.34886C11.7978 6.31117 11.8317 6.32488 11.8419 6.30775C11.8963 6.22209 11.9337 6.12272 12.0288 6.07133C12.005 5.97197 12.1409 5.95483 12.1375 5.85547C12.1375 5.82121 12.2021 5.78694 12.236 5.74925C12.2734 5.70814 12.321 5.68073 12.3312 5.6122C12.338 5.57108 12.3957 5.53339 12.4365 5.50256C12.5147 5.44088 12.569 5.35865 12.6506 5.3004C12.6811 5.27985 12.6641 5.22502 12.7083 5.18734C12.8035 5.10853 12.868 4.98861 12.9699 4.92351C13.133 4.81729 13.2621 4.68024 13.3878 4.53976C13.4864 4.53291 13.5203 4.42326 13.5883 4.39928C13.6766 4.36501 13.7174 4.26565 13.7786 4.25537C13.8737 4.24167 13.8907 4.12175 13.9892 4.1423C14.0198 4.14916 14.013 4.10804 14.03 4.09433C14.0844 4.03609 14.1829 4.04637 14.2101 3.95728C14.3086 3.98127 14.3358 3.8682 14.4173 3.84421C14.4887 3.82023 14.577 3.77911 14.645 3.72429C14.6755 3.70031 14.7367 3.67632 14.7843 3.65576C14.8318 3.63521 14.893 3.63178 14.927 3.57696C14.9473 3.5427 15.0221 3.59066 15.0289 3.51871C15.0934 3.54269 15.1478 3.48445 15.1716 3.46046C15.2293 3.39879 15.3245 3.46046 15.3619 3.3748C15.4298 3.39194 15.4638 3.30285 15.5317 3.31656C15.5555 3.32341 15.5929 3.33026 15.5963 3.28229C15.5963 3.27887 15.6167 3.26859 15.6235 3.27201C15.6982 3.29943 15.7662 3.2446 15.8069 3.21377C15.8715 3.1658 15.9564 3.20349 15.987 3.16922C16.0448 3.10755 16.1399 3.16922 16.1773 3.08699C16.1773 3.08357 16.1875 3.08014 16.1909 3.08014C16.2928 3.11098 16.3743 3.02189 16.4763 3.02874C16.5068 3.02874 16.551 3.0493 16.5646 2.99106C16.568 2.9705 16.6088 2.98763 16.6326 2.98078C16.6937 2.96707 16.7685 3.01847 16.816 2.93623C16.8228 2.92595 16.8636 2.93623 16.884 2.93281C16.9587 2.91568 17.0335 2.96364 17.1082 2.89169C17.1456 2.85743 17.2407 2.89169 17.3121 2.88141C17.3698 2.87456 17.4446 2.9191 17.4854 2.83687C17.4888 2.83002 17.5193 2.83687 17.5397 2.83687C18.0052 2.83687 18.4707 2.83687 18.9327 2.83687C18.9633 2.83687 19.0041 2.82316 19.0143 2.87456C19.0143 2.88141 19.0483 2.88141 19.0653 2.88141C19.14 2.88141 19.2147 2.88141 19.2895 2.88141C19.3303 2.88141 19.3778 2.85743 19.4016 2.92253C19.405 2.93281 19.4458 2.92253 19.4696 2.92938C19.5443 2.94651 19.6293 2.89169 19.704 2.9705C19.7278 2.99448 19.8025 2.9705 19.8535 2.97735C19.8807 2.97735 19.9215 2.96022 19.9282 3.01161C19.9282 3.02532 19.9486 3.02189 19.9622 3.02532C20.02 3.0356 20.0777 3.03902 20.1389 3.05958C20.2102 3.08699 20.302 3.1007 20.3869 3.12126C20.4311 3.13153 20.4889 3.09384 20.5126 3.1658C20.5126 3.1658 20.516 3.16922 20.5194 3.1658C20.6044 3.13496 20.6621 3.22747 20.7471 3.22062C20.7912 3.21719 20.8286 3.28229 20.883 3.27544C20.883 3.33026 20.9271 3.30628 20.9543 3.31313C20.9849 3.31998 21.0291 3.29257 21.0359 3.35082C21.0359 3.35425 21.0596 3.3611 21.0698 3.3611C21.1548 3.3611 21.2125 3.41935 21.2805 3.44676C21.3281 3.46389 21.396 3.48787 21.4198 3.51528C21.4776 3.58038 21.5795 3.51528 21.6169 3.60094C21.678 3.58038 21.7052 3.66262 21.763 3.65234C21.8037 3.64548 21.7935 3.6866 21.8139 3.70031C21.8751 3.74142 21.9396 3.77569 22.011 3.79967C22.0687 3.82023 22.1299 3.85792 22.1741 3.90246C22.2216 3.95043 22.2794 3.97099 22.3372 3.98812C22.3711 3.9984 22.3711 4.02238 22.3881 4.03951C22.4459 4.09776 22.524 4.13202 22.5886 4.17314C22.6599 4.21768 22.7041 4.29306 22.7687 4.31705C22.8604 4.34788 22.8978 4.44039 22.9657 4.4678C23.1152 4.52263 23.1798 4.65968 23.2919 4.75219C23.2987 4.75562 23.3021 4.7659 23.3055 4.7659C23.421 4.7659 23.4584 4.87897 23.5297 4.94064C23.6248 5.02287 23.703 5.11881 23.7947 5.20447C23.8491 5.25586 23.9306 5.30726 23.951 5.36208C23.9986 5.49571 24.1243 5.5471 24.1922 5.64989C24.2262 5.70128 24.2466 5.76296 24.301 5.80408C24.3859 5.86575 24.3927 5.9891 24.4912 6.04049C24.4675 6.13986 24.6136 6.15699 24.5932 6.25635C24.5864 6.28719 24.6271 6.28034 24.6407 6.29747C24.6985 6.35229 24.6883 6.45165 24.7766 6.47906C24.7563 6.54416 24.8378 6.56815 24.831 6.6264C24.8242 6.66066 24.8616 6.65723 24.8718 6.67094C24.9193 6.73261 24.9431 6.80799 24.9805 6.87309C25.0077 6.91763 25.0043 6.97588 25.0586 7.01014C25.0858 7.02728 25.113 7.09923 25.1096 7.11979C25.1062 7.18489 25.1911 7.20545 25.1674 7.27055C25.2353 7.28425 25.1844 7.38019 25.2523 7.39389C25.2557 7.39389 25.2625 7.4076 25.2625 7.41445C25.2353 7.48983 25.2863 7.57549 25.3169 7.59605C25.395 7.65087 25.3135 7.75709 25.4052 7.78792C25.3916 7.85988 25.4494 7.9147 25.4664 7.97294C25.4867 8.03462 25.4698 8.12713 25.5445 8.17167C25.5479 8.17167 25.5513 8.18195 25.5513 8.18538C25.5241 8.28131 25.6057 8.35669 25.5989 8.4492C25.5955 8.50403 25.6702 8.51773 25.6532 8.58283C25.643 8.62052 25.6294 8.67534 25.6872 8.71303C25.711 8.72674 25.694 8.80554 25.6974 8.85009C25.6974 8.88435 25.677 8.92889 25.7348 8.94602C25.7551 8.95288 25.7382 8.99056 25.745 9.01455C25.7585 9.07622 25.7076 9.1516 25.7891 9.19957C25.7959 9.203 25.7891 9.23041 25.7891 9.24754C25.7891 9.30921 25.7891 9.37089 25.7891 9.43256C25.7891 9.46683 25.7653 9.51479 25.8265 9.5285C25.8435 9.53193 25.8333 9.56619 25.8333 9.59017C25.8333 9.72037 25.8333 9.84715 25.8333 9.97735C25.8333 10.0082 25.8129 10.0493 25.8707 10.0596C25.8877 10.0596 25.8809 10.0938 25.8809 10.111C25.8809 10.3817 25.8809 10.6489 25.8809 10.9196C25.8809 10.9436 25.8877 10.971 25.8469 10.9813C25.8231 10.9847 25.8333 11.019 25.8333 11.0361C25.8333 11.1697 25.8333 11.2999 25.8333 11.4335C25.8333 11.4644 25.8537 11.5055 25.7959 11.5158C25.7789 11.5158 25.7857 11.55 25.7857 11.5672C25.7857 11.6186 25.7891 11.67 25.7857 11.7214C25.7789 11.7693 25.8095 11.8241 25.745 11.8687C25.7212 11.8858 25.7416 11.9646 25.7348 12.016C25.7348 12.0469 25.7551 12.0914 25.6974 12.0982C25.6906 12.0982 25.6872 12.1222 25.6872 12.1325C25.677 12.1908 25.7178 12.2661 25.6396 12.3073C25.6702 12.41 25.5853 12.4923 25.5887 12.5951C25.5887 12.6259 25.6124 12.6739 25.5513 12.6842C25.5513 12.6842 25.5445 12.6944 25.5445 12.6979C25.5751 12.7835 25.5071 12.8555 25.4833 12.924C25.463 12.9857 25.4833 13.0782 25.4052 13.1227C25.4052 13.1227 25.4018 13.1262 25.4018 13.1296C25.429 13.2152 25.3508 13.2701 25.3474 13.3523C25.344 13.4037 25.3033 13.4585 25.2727 13.5065C25.2489 13.5442 25.2659 13.6058 25.2081 13.623C25.2387 13.6983 25.181 13.7566 25.1504 13.808C25.1232 13.8525 25.13 13.9142 25.0756 13.945C25.0417 13.9656 25.0858 14.0376 25.0179 14.0478C25.0383 14.1095 24.9567 14.1369 24.9669 14.1952C24.9737 14.2363 24.9329 14.226 24.9193 14.2466C24.8786 14.3082 24.8344 14.3699 24.8242 14.4453C24.8208 14.4796 24.7868 14.4658 24.7766 14.4864C24.7359 14.5515 24.6883 14.6098 24.6815 14.6886C24.6781 14.7262 24.6441 14.7228 24.6305 14.7365C24.5728 14.7913 24.583 14.8907 24.4946 14.9181C24.4946 15.0175 24.3791 15.0449 24.3587 15.1134C24.3214 15.2265 24.216 15.2676 24.1685 15.3533C24.1345 15.4115 24.1039 15.4663 24.0563 15.5143C23.9816 15.5863 23.9136 15.6616 23.8389 15.7336C23.8321 15.7404 23.8185 15.7404 23.8185 15.7507C23.8185 15.8672 23.703 15.8981 23.6452 15.9769C23.6113 16.0214 23.5671 16.0557 23.5297 16.1002C23.5229 16.1071 23.5229 16.1242 23.5127 16.1208C23.421 16.1002 23.387 16.1893 23.3462 16.2338C23.2783 16.3058 23.2103 16.3846 23.1356 16.4463C23.0914 16.484 23.0201 16.5079 22.9793 16.5593C22.9046 16.6553 22.7619 16.6724 22.7075 16.7923C22.609 16.7718 22.5886 16.9088 22.4968 16.8985C22.4595 16.8951 22.4799 16.9362 22.4527 16.9465C22.3575 16.9773 22.293 17.0596 22.2012 17.1007C22.1469 17.1247 22.0585 17.1384 22.028 17.2275C22.0212 17.2446 21.9464 17.2754 21.9125 17.2789C21.8547 17.2857 21.8309 17.3645 21.7664 17.3371C21.7596 17.4125 21.661 17.3542 21.6406 17.4262C21.6338 17.4468 21.5591 17.4193 21.5455 17.4776C21.4844 17.457 21.447 17.5153 21.3994 17.5358C21.3111 17.5701 21.2125 17.5838 21.1378 17.6386C21.0936 17.6695 21.0563 17.6626 21.0189 17.6797C20.9713 17.6969 20.9271 17.7311 20.883 17.7551C20.8762 17.7586 20.8728 17.7723 20.8694 17.7723C20.7844 17.7414 20.7233 17.8099 20.6519 17.8305C20.584 17.8511 20.499 17.8442 20.4481 17.9127C20.4481 17.9162 20.4379 17.9196 20.4345 17.9196C20.3428 17.9025 20.2646 17.9504 20.1831 17.971C20.1389 17.9813 20.0811 17.9436 20.0574 18.0155C20.0574 18.0224 20.0268 18.0155 20.0132 18.0224C19.9622 18.0327 19.9045 17.9984 19.8603 18.0635C19.8433 18.0875 19.7686 18.0635 19.721 18.0703C19.6904 18.0703 19.6428 18.0464 19.6327 18.108C19.6327 18.1252 19.5987 18.1183 19.5817 18.1183C19.5273 18.1183 19.4764 18.1183 19.422 18.1183C19.3948 18.1183 19.3574 18.1012 19.3473 18.1526C19.3439 18.1731 19.3167 18.1663 19.2963 18.1663C19.2351 18.1663 19.174 18.1663 19.1128 18.1663L19.0992 18.1423ZM24.4369 9.89512C24.4369 9.82316 24.4675 9.72723 24.4301 9.68268C24.3621 9.60045 24.4063 9.51822 24.3893 9.43941C24.3859 9.42228 24.3961 9.39145 24.3893 9.38459C24.3044 9.3332 24.3587 9.25097 24.3451 9.18587C24.3417 9.16873 24.3451 9.13447 24.3383 9.13447C24.2738 9.11734 24.3044 9.06594 24.2976 9.02825C24.2942 9.00084 24.3044 8.9563 24.2942 8.94945C24.2228 8.90491 24.2704 8.83295 24.2466 8.78156C24.2194 8.72331 24.1922 8.66506 24.1956 8.59996C24.1956 8.59996 24.1956 8.59654 24.1922 8.59311C24.1243 8.54172 24.1311 8.45263 24.1141 8.38753C24.1005 8.32586 24.0733 8.24705 24.0428 8.21621C23.985 8.15454 24.0292 8.06888 23.9646 8.01063C23.9374 7.98665 23.9204 7.90442 23.8967 7.87701C23.8593 7.83246 23.8491 7.77764 23.8253 7.73653C23.8015 7.69541 23.7811 7.62003 23.7574 7.59262C23.6996 7.52067 23.703 7.41788 23.6248 7.36648C23.6486 7.26712 23.4991 7.25341 23.5229 7.15062C23.4346 7.11636 23.438 7.01357 23.3802 6.95532C23.3632 6.93819 23.3259 6.94504 23.3327 6.90393C23.3394 6.87309 23.3089 6.85939 23.2987 6.83883C23.2647 6.78058 23.1662 6.76345 23.1866 6.67094C23.1866 6.66066 23.1696 6.65723 23.1662 6.65381C23.1118 6.575 22.9963 6.54416 22.9929 6.42767C22.9929 6.42082 22.9827 6.41739 22.9793 6.41396C22.8808 6.33858 22.8026 6.24607 22.7177 6.16041C22.6327 6.07818 22.5546 5.98224 22.4663 5.90687C22.3745 5.82806 22.3168 5.72184 22.1877 5.67387C22.0993 5.63961 22.0653 5.49913 21.943 5.48885C21.9023 5.38949 21.7901 5.36893 21.7256 5.3004C21.678 5.25244 21.5965 5.25929 21.5693 5.20104C21.5387 5.13594 21.4708 5.14622 21.4266 5.11538C21.3722 5.07769 21.2975 5.05713 21.2397 5.00917C21.2091 4.98518 21.1854 4.96462 21.1412 4.95434C21.1106 4.94749 21.0529 4.92008 21.0461 4.90638C21.0155 4.85498 20.9611 4.86869 20.9271 4.8447C20.8796 4.81044 20.8218 4.76932 20.7675 4.76932C20.6995 4.76932 20.6655 4.69052 20.5976 4.70765C20.5908 4.63912 20.5228 4.68709 20.499 4.65625C20.4447 4.59115 20.3597 4.59458 20.2952 4.57745C20.2238 4.55689 20.1627 4.48836 20.0777 4.5192C20.0777 4.5192 20.0675 4.51235 20.0675 4.50892C20.0641 4.4541 20.0234 4.47466 19.9962 4.47123C19.9792 4.47123 19.9486 4.47808 19.9418 4.47123C19.8977 4.39585 19.8263 4.43354 19.7686 4.42669C19.7618 4.42669 19.7482 4.42669 19.7448 4.42669C19.7006 4.34103 19.6225 4.39585 19.5647 4.38215C19.5409 4.37529 19.5035 4.39243 19.4967 4.37187C19.4798 4.31019 19.4356 4.3376 19.4016 4.33418C19.354 4.32733 19.2793 4.34788 19.2657 4.3239C19.2283 4.26565 19.1842 4.28964 19.1434 4.28621C19.0856 4.28278 19.0245 4.28621 18.9667 4.28621C18.9497 4.28621 18.9226 4.29306 18.9192 4.2725C18.9124 4.22454 18.8784 4.23824 18.8512 4.23824C18.4435 4.23824 18.0392 4.23824 17.6315 4.23824C17.6145 4.23824 17.5805 4.23824 17.5771 4.24509C17.5499 4.31705 17.4922 4.28278 17.4514 4.28621C17.397 4.28964 17.3393 4.28621 17.2815 4.28621C17.2645 4.28621 17.2373 4.28621 17.2373 4.29306C17.2203 4.35816 17.1694 4.3376 17.1354 4.33075C17.0233 4.31019 16.9316 4.41298 16.8194 4.38215C16.816 4.38215 16.8058 4.38215 16.8058 4.389C16.7922 4.4541 16.7413 4.42326 16.7039 4.43012C16.6767 4.43012 16.6326 4.41984 16.6258 4.43354C16.5816 4.50549 16.517 4.47123 16.4593 4.47808C16.4457 4.47808 16.4253 4.47808 16.4219 4.48494C16.3777 4.56032 16.286 4.53976 16.2248 4.56374C16.1705 4.5843 16.1127 4.63912 16.0414 4.62542C16.0108 4.71793 15.8885 4.62542 15.8579 4.71793C15.7933 4.7008 15.7696 4.79331 15.705 4.77275C15.6642 4.85498 15.5623 4.79331 15.508 4.86183C15.474 4.90638 15.3924 4.90295 15.3483 4.95434C15.3075 5.00574 15.2395 5.03315 15.1818 5.05028C15.1308 5.06741 15.0934 5.13251 15.0289 5.10853C15.0051 5.19761 14.9066 5.18733 14.8556 5.24558C14.842 5.25929 14.8318 5.3004 14.808 5.29698C14.7095 5.27642 14.6891 5.39634 14.5974 5.41005C14.5328 5.42033 14.4853 5.51969 14.4003 5.55738C14.312 5.59849 14.2644 5.70471 14.1591 5.75268C14.0844 5.78694 14.0266 5.87945 13.962 5.94798C13.8567 6.05762 13.7514 6.16727 13.6393 6.27006C13.5985 6.30775 13.5373 6.34886 13.5305 6.39683C13.5237 6.45508 13.483 6.47564 13.4558 6.5099C13.4116 6.56815 13.3233 6.59213 13.3267 6.68807C13.3267 6.70177 13.3131 6.70177 13.3063 6.7052C13.2655 6.74632 13.1942 6.77715 13.1908 6.83198C13.184 6.89022 13.1432 6.90735 13.116 6.94504C13.0889 6.98616 13.0549 7.017 13.0311 7.06154C13.0073 7.10266 13.0107 7.16776 12.9529 7.19859C12.8952 7.22943 12.8646 7.31166 12.8544 7.36306C12.8374 7.45214 12.7219 7.47613 12.7423 7.57549C12.6709 7.58577 12.7083 7.66457 12.6608 7.70569C12.6166 7.74338 12.603 7.82561 12.5656 7.88729C12.5181 7.96267 12.5079 8.0586 12.4671 8.14426C12.4399 8.19908 12.3821 8.2539 12.4127 8.33271C12.4127 8.33956 12.4127 8.34984 12.4059 8.35327C12.338 8.40466 12.3448 8.49375 12.3278 8.55885C12.3074 8.6308 12.2394 8.69247 12.27 8.77813C12.27 8.77813 12.27 8.78498 12.2666 8.78498C12.1987 8.80554 12.2327 8.86036 12.2259 8.90491C12.2225 8.92889 12.2293 8.97001 12.2191 8.97343C12.1477 9.0077 12.1851 9.06937 12.1749 9.11734C12.1749 9.13447 12.1783 9.16188 12.1749 9.16531C12.09 9.20985 12.1443 9.28866 12.1307 9.35033C12.1239 9.37431 12.1409 9.412 12.1205 9.41886C12.0628 9.43599 12.0832 9.48053 12.0832 9.51479C12.0832 9.57989 12.0832 9.645 12.0832 9.7101C12.0832 9.72723 12.0832 9.75464 12.0764 9.75464C12.0084 9.77862 12.0356 9.83344 12.0356 9.87456C12.0356 10.0253 12.0356 10.1761 12.0356 10.3268C12.0356 10.3508 12.0458 10.3748 12.022 10.3954C11.9914 10.4228 11.9642 10.6112 11.9948 10.6249C12.0594 10.6592 12.0356 10.7106 12.0356 10.7551C12.0356 10.9025 12.0356 11.0498 12.0356 11.2006C12.0356 11.2211 12.0356 11.2588 12.0424 11.2622C12.1069 11.2794 12.0798 11.3308 12.0832 11.3684C12.0832 11.4335 12.0832 11.4986 12.0832 11.5637C12.0832 11.5809 12.073 11.6083 12.1001 11.6117C12.1409 11.6186 12.1375 11.6494 12.1307 11.6734C12.1001 11.7967 12.2089 11.9029 12.1817 12.0263C12.1817 12.0297 12.1817 12.04 12.1851 12.04C12.2564 12.0674 12.2191 12.1291 12.2293 12.1736C12.2327 12.1976 12.2123 12.2319 12.2496 12.2422C12.287 12.2524 12.2802 12.2764 12.2768 12.297C12.2666 12.3792 12.3584 12.434 12.3278 12.5197C12.3278 12.5197 12.3278 12.5265 12.3312 12.5265C12.4127 12.5642 12.3584 12.6602 12.4161 12.7184C12.4501 12.7527 12.5011 12.8246 12.4705 12.9034C12.5248 12.924 12.5079 12.9857 12.535 13.0199C12.5724 13.0645 12.6132 13.1193 12.6098 13.1707C12.603 13.2461 12.6506 13.2975 12.6777 13.3454C12.7049 13.4037 12.7389 13.4688 12.7967 13.5202C12.8408 13.5613 12.885 13.6538 12.8918 13.7155C12.902 13.8114 13.0277 13.8285 13.0005 13.9279C13.0889 13.9622 13.0889 14.0615 13.1432 14.1232C13.1568 14.1369 13.1908 14.1232 13.1874 14.1575C13.1806 14.2226 13.2349 14.2431 13.2689 14.2843C13.3029 14.3254 13.3675 14.3562 13.3743 14.4042C13.3844 14.4658 13.4286 14.4864 13.4558 14.5241C13.5068 14.6029 13.6223 14.6303 13.6223 14.7468C13.6223 14.7605 13.6359 14.7605 13.6427 14.7674C13.731 14.8564 13.8159 14.9524 13.9111 15.0346C13.962 15.0792 13.9892 15.1648 14.0776 15.1545C14.0945 15.1545 14.0945 15.1717 14.1013 15.1785C14.1387 15.2196 14.1761 15.2608 14.2203 15.2984C14.2882 15.3533 14.3324 15.4321 14.4309 15.4595C14.4955 15.4766 14.5396 15.5588 14.611 15.6034C14.6721 15.6377 14.7469 15.6788 14.8046 15.7336C14.8216 15.7507 14.8114 15.7781 14.8386 15.7816C14.9405 15.7953 15.0017 15.8843 15.0866 15.9289C15.1172 15.946 15.141 15.9666 15.175 15.9837C15.2158 16.0008 15.2599 16.0214 15.3007 16.042C15.3483 16.0659 15.389 16.1105 15.4366 16.1173C15.491 16.1276 15.5181 16.1961 15.5827 16.1756C15.5895 16.2475 15.654 16.2064 15.688 16.2304C15.739 16.2681 15.7866 16.3229 15.8613 16.3126C15.9259 16.3058 15.9734 16.3538 16.0176 16.3777C16.0855 16.4154 16.1603 16.4326 16.2248 16.4497C16.2962 16.4703 16.3574 16.5388 16.4423 16.5079C16.4423 16.5079 16.4491 16.5079 16.4491 16.5114C16.4695 16.5799 16.5238 16.5456 16.568 16.5525C16.5918 16.5559 16.6326 16.5491 16.636 16.5593C16.6699 16.6313 16.7311 16.5936 16.7787 16.6039C16.7956 16.6073 16.8296 16.6039 16.8296 16.6107C16.8534 16.6793 16.9078 16.645 16.9485 16.6518C16.9689 16.6553 17.0029 16.645 17.0097 16.6518C17.0776 16.7375 17.1694 16.6827 17.2475 16.6964C17.2679 16.6998 17.3053 16.6964 17.3087 16.7032C17.3325 16.7718 17.3868 16.7409 17.4276 16.7444C17.499 16.7478 17.5703 16.7444 17.645 16.7444C17.6654 16.7444 17.696 16.7341 17.7028 16.7581C17.713 16.806 17.7436 16.7923 17.7708 16.7923C18.0799 16.7923 18.3891 16.7923 18.7017 16.7923C18.7187 16.7923 18.7527 16.7923 18.7561 16.7855C18.7833 16.7135 18.841 16.7478 18.8818 16.7444C18.9497 16.7409 19.0143 16.7444 19.0822 16.7444C19.0992 16.7444 19.123 16.7512 19.1298 16.7444C19.1978 16.6553 19.2929 16.7169 19.3744 16.6998C19.3914 16.6964 19.4254 16.6998 19.4288 16.693C19.456 16.6244 19.5137 16.6587 19.5545 16.6518C19.6055 16.645 19.6462 16.6518 19.7006 16.6107C19.7516 16.5696 19.8433 16.5902 19.9181 16.5628C19.986 16.5388 20.0574 16.4737 20.1423 16.5045H20.1491C20.1831 16.4154 20.2918 16.4977 20.3394 16.4154C20.3529 16.3914 20.4209 16.4017 20.4719 16.3743C20.5194 16.3469 20.5806 16.2852 20.6553 16.3161C20.6655 16.3195 20.6825 16.3161 20.6893 16.3024C20.7131 16.2441 20.7946 16.2784 20.815 16.2201C20.8762 16.2441 20.9 16.1413 20.9611 16.1687C20.9781 16.1139 21.0529 16.1345 21.063 16.1139C21.0902 16.0488 21.1582 16.0625 21.2023 16.0317C21.2601 15.9906 21.3315 15.9666 21.396 15.9289C21.4198 15.9152 21.4062 15.8878 21.4368 15.8775C21.5047 15.8535 21.5693 15.8124 21.6372 15.7816C21.661 15.7713 21.644 15.7302 21.6712 15.737C21.7697 15.7576 21.7901 15.6377 21.8819 15.6239C21.9464 15.6137 21.9974 15.5212 22.0789 15.4766C22.1843 15.4184 22.2352 15.2847 22.3643 15.2368C22.4187 15.2162 22.4663 15.1374 22.5172 15.086C22.6226 14.9764 22.7313 14.8702 22.8366 14.7605C22.8842 14.7125 22.9657 14.6817 22.9521 14.5892C22.9521 14.5755 22.9691 14.5755 22.9725 14.5721C23.0269 14.4933 23.1424 14.4624 23.1458 14.3459C23.1458 14.3322 23.1628 14.3356 23.1696 14.3288C23.2103 14.2911 23.2715 14.2534 23.2817 14.2089C23.2953 14.1472 23.336 14.1232 23.3666 14.0855C23.387 14.0615 23.4244 14.0478 23.4278 14.017C23.438 13.9382 23.4855 13.8799 23.5263 13.8148C23.5399 13.7909 23.5807 13.808 23.5739 13.7737C23.5603 13.6778 23.6996 13.6607 23.6792 13.5613C23.754 13.5544 23.6894 13.4448 23.7675 13.4379C23.7404 13.3728 23.8219 13.3523 23.8253 13.2906C23.8253 13.2632 23.8491 13.1912 23.8797 13.1741C23.934 13.1433 23.9035 13.0748 23.9578 13.0405C23.985 13.0234 23.9748 12.9514 24.002 12.9C24.0292 12.852 24.0903 12.7904 24.0597 12.715C24.0563 12.7047 24.0597 12.691 24.0767 12.6842C24.1277 12.6567 24.1175 12.5951 24.1515 12.554C24.1753 12.5231 24.1719 12.4683 24.1956 12.4203C24.2262 12.3587 24.2228 12.2764 24.2466 12.201C24.2738 12.1154 24.3315 12.0331 24.3044 11.9338C24.3044 11.9269 24.3112 11.9132 24.3146 11.9132C24.3723 11.9064 24.3485 11.8618 24.3519 11.831C24.3553 11.783 24.3349 11.7111 24.3587 11.6905C24.4369 11.6151 24.3859 11.5261 24.4029 11.4472C24.4063 11.4267 24.4029 11.389 24.4097 11.3856C24.4776 11.3616 24.4471 11.3068 24.4505 11.2657C24.4539 11.1594 24.4505 11.0566 24.4505 10.9504C24.4505 10.9299 24.4403 10.899 24.4641 10.8956C24.5116 10.8853 24.498 10.8511 24.498 10.8271C24.498 10.6284 24.498 10.4296 24.498 10.2275C24.498 10.2103 24.498 10.1761 24.4912 10.1727C24.4199 10.1452 24.4539 10.087 24.4505 10.0459C24.4471 10.0048 24.4505 9.96022 24.4505 9.91568L24.4369 9.89512Z" fill="#3D3D3D"/>
<path d="M18.6643 6.41054C18.6643 6.55102 18.6643 6.6915 18.6643 6.83198C18.6643 6.86967 18.6813 6.87652 18.7119 6.9005C18.7866 6.9519 18.8818 6.91078 18.9293 6.9519C18.9905 7.00329 19.0415 6.98273 19.0992 6.99301C19.1502 7.00329 19.1876 7.03756 19.2351 7.05811C19.2895 7.07867 19.3507 7.10608 19.3948 7.14377C19.439 7.18146 19.5001 7.17118 19.5409 7.226C19.5579 7.24999 19.5919 7.30481 19.6496 7.28768C19.6836 7.2774 19.6666 7.32537 19.6904 7.33565C19.8569 7.41103 19.9554 7.56521 20.0913 7.67828C20.1117 7.69541 20.1117 7.70569 20.0879 7.72625C20.0472 7.75709 20.0132 7.7845 20.0064 7.84617C19.9996 7.89414 19.9384 7.9284 19.9011 7.96267C19.8263 8.02777 19.7516 8.09629 19.6938 8.17167C19.6564 8.21964 19.6259 8.28131 19.5817 8.32928C19.5307 8.3841 19.4764 8.43893 19.4254 8.49032C19.3744 8.54172 19.3303 8.46976 19.2963 8.43893C19.2385 8.39096 19.2113 8.30187 19.1162 8.30187C19.089 8.30187 19.106 8.26761 19.0822 8.2539C19.0177 8.21621 18.9327 8.19566 18.8886 8.15111C18.8274 8.08944 18.7289 8.15111 18.6949 8.06546C18.6949 8.0586 18.6643 8.06546 18.6473 8.06546C18.5998 8.05518 18.5352 8.09629 18.5046 8.02091C18.5046 8.01406 18.4741 8.01749 18.4605 8.01749C18.3925 8.01749 18.3212 8.01749 18.2532 8.01749C18.226 8.01749 18.1887 8.00036 18.1785 8.05175C18.1785 8.07231 18.1445 8.06888 18.1275 8.06203C18.0426 8.03462 17.978 8.09629 17.9101 8.12028C17.8727 8.13398 17.8387 8.19908 17.7945 8.22992C17.7266 8.27789 17.7164 8.36012 17.6586 8.41152C17.6586 8.41152 17.6552 8.41494 17.6552 8.41837C17.6552 8.55199 17.6552 8.68905 17.6552 8.82267C17.6552 8.85009 17.6892 8.83981 17.7062 8.86379C17.7572 8.94945 17.8047 9.04539 17.8931 9.10363V9.11049C17.9814 9.11391 18.012 9.22356 18.0935 9.22698C18.1275 9.22698 18.1241 9.25782 18.1411 9.2681C18.2023 9.31607 18.2804 9.33663 18.3416 9.38117C18.3857 9.41201 18.4469 9.40173 18.4809 9.45997C18.4979 9.48738 18.5658 9.51137 18.5964 9.51479C18.6575 9.51822 18.6779 9.60045 18.7425 9.57304C18.7934 9.65527 18.9293 9.5936 18.9667 9.7101C18.9701 9.7238 19.0483 9.75806 19.0687 9.75464C19.1332 9.75464 19.157 9.83687 19.2249 9.81631C19.2487 9.80946 19.2419 9.84715 19.2589 9.86428C19.3167 9.9191 19.4152 9.91568 19.4458 10.0048C19.6225 10.0562 19.704 10.2172 19.8195 10.3371C19.8807 10.4022 19.9282 10.4913 19.9758 10.5701C20.02 10.6455 20.0302 10.7414 20.1049 10.7962C20.1117 10.7997 20.1049 10.8202 20.1083 10.8339C20.1151 10.8716 20.0879 10.9196 20.1491 10.9367C20.1559 10.9367 20.1559 10.9676 20.1559 10.9813C20.1559 11.0361 20.1525 11.0909 20.1559 11.1423C20.1593 11.1903 20.1355 11.2382 20.1933 11.2828C20.217 11.3033 20.2442 11.4096 20.1661 11.461C20.1491 11.4747 20.1559 11.4952 20.1559 11.5123C20.1559 11.5809 20.1559 11.6528 20.1559 11.7214C20.1559 11.7693 20.1865 11.831 20.1117 11.855C20.1117 11.855 20.1117 11.8584 20.1117 11.8618C20.1423 11.9475 20.0506 12.0057 20.0574 12.0914C20.0608 12.1359 20.02 12.1839 19.9962 12.225C19.969 12.2764 19.9282 12.3278 19.9215 12.3826C19.9147 12.4272 19.8807 12.4203 19.8671 12.4477C19.7923 12.6088 19.6394 12.7116 19.5307 12.8452C19.5035 12.876 19.4458 12.8589 19.4118 12.9069C19.371 12.9651 19.2861 12.9754 19.2283 13.0131C19.1876 13.0405 19.123 13.0336 19.0992 13.0885C19.0992 13.0919 19.0924 13.0987 19.089 13.0987C19.0143 13.0816 18.9599 13.1399 18.892 13.1501C18.858 13.157 18.8206 13.133 18.8036 13.1913C18.7968 13.2118 18.7527 13.2015 18.7289 13.1981C18.6779 13.1913 18.6677 13.2152 18.6677 13.2632C18.6677 13.5579 18.6677 13.8491 18.6677 14.1438C18.6677 14.202 18.6541 14.2192 18.593 14.2192C18.3382 14.2157 18.0799 14.2192 17.8251 14.2192C17.7708 14.2192 17.7538 14.2054 17.7538 14.1472C17.7538 13.8731 17.7538 13.599 17.7538 13.3215C17.7538 13.2632 17.7436 13.2358 17.6824 13.2426C17.6518 13.2461 17.6145 13.2564 17.6009 13.205C17.5975 13.1878 17.5567 13.2015 17.5329 13.1947C17.4718 13.181 17.397 13.2324 17.3495 13.1501C17.3461 13.1433 17.3121 13.1501 17.2951 13.1501C17.2475 13.1433 17.1898 13.1775 17.1592 13.1056C17.1592 13.0987 17.1354 13.1022 17.1218 13.1022C17.0641 13.0987 16.9893 13.0645 16.9282 13.0131C16.9214 13.0062 16.9078 13.0028 16.8976 13.0062C16.8228 13.0371 16.7549 12.9788 16.7141 12.948C16.6292 12.8829 16.5001 12.8863 16.4423 12.7732C16.4287 12.7458 16.3574 12.7218 16.3336 12.7218C16.2452 12.7218 16.2282 12.6293 16.1671 12.6019C16.1569 12.5985 16.1433 12.5677 16.1195 12.5608C16.1501 12.5128 16.0142 12.5163 16.0855 12.4786C16.1399 12.4477 16.0855 12.3998 16.1331 12.3758C16.1773 12.3518 16.1909 12.297 16.2181 12.2627C16.252 12.2182 16.2384 12.1496 16.303 12.1188C16.3608 12.0914 16.3472 12.0023 16.4015 11.9646C16.4661 11.9201 16.4525 11.8139 16.5408 11.7865C16.5136 11.6871 16.6631 11.67 16.6428 11.5706C16.6394 11.5535 16.6699 11.55 16.6767 11.5603C16.7175 11.622 16.8194 11.6117 16.8398 11.6939C16.9383 11.6665 16.9689 11.7796 17.0505 11.807C17.1218 11.831 17.2237 11.855 17.2747 11.9338C17.3393 11.9132 17.3664 12.0023 17.431 11.9886C17.4582 12.088 17.5839 11.9886 17.6179 12.0811C17.6179 12.088 17.6586 12.0845 17.679 12.0845C17.7436 12.0845 17.8319 12.0606 17.8659 12.0914C17.944 12.1599 18.0222 12.1188 18.1003 12.1325C18.1309 12.1359 18.1751 12.1531 18.1887 12.0948C18.1921 12.0743 18.2328 12.0914 18.2566 12.0845C18.3178 12.0708 18.3959 12.1222 18.4367 12.04C18.4367 12.04 18.4469 12.04 18.4537 12.04C18.5556 12.0708 18.5964 11.9783 18.6541 11.9338C18.7221 11.8824 18.7493 11.7967 18.8036 11.7351C18.8104 11.7282 18.807 11.7145 18.807 11.7042C18.807 11.5706 18.807 11.4404 18.807 11.3068C18.807 11.2554 18.7663 11.2177 18.7459 11.1697C18.7085 11.0806 18.6439 11.0087 18.5692 10.9436C18.5624 10.9367 18.5624 10.923 18.5488 10.923C18.4605 10.9402 18.4299 10.8511 18.3823 10.8099C18.3382 10.7688 18.2838 10.762 18.2396 10.7311C18.1751 10.6866 18.0935 10.6729 18.0392 10.6078C18.0324 10.6009 18.029 10.5838 18.0256 10.5838C17.9508 10.577 17.8965 10.5119 17.8319 10.4947C17.7776 10.481 17.7436 10.4125 17.679 10.4365C17.6654 10.368 17.5839 10.4125 17.5533 10.3542C17.5397 10.3268 17.4718 10.3337 17.4344 10.296C17.4174 10.2789 17.38 10.272 17.3529 10.248C17.2985 10.1966 17.2271 10.1727 17.1592 10.1418C17.1082 10.1178 17.0743 10.063 17.0335 10.0219C17.0267 10.015 17.0267 10.0013 17.0131 10.0013C16.8976 10.0013 16.867 9.88826 16.7956 9.83344C16.7141 9.77177 16.6496 9.68611 16.5782 9.61416C16.5714 9.60731 16.551 9.60731 16.5544 9.60045C16.5782 9.53193 16.4797 9.50794 16.5035 9.44284C16.5068 9.43256 16.4967 9.42571 16.4865 9.41886C16.4321 9.38459 16.4253 9.31949 16.4015 9.27152C16.3642 9.20642 16.3981 9.11734 16.32 9.06937C16.3132 9.06594 16.3132 9.03853 16.3132 9.02483C16.3132 8.80554 16.3132 8.58283 16.3132 8.36355C16.3132 8.33956 16.303 8.3053 16.3438 8.30187C16.3506 8.30187 16.3574 8.29159 16.3574 8.28474C16.3302 8.1888 16.4049 8.11342 16.4083 8.02091C16.4083 7.95924 16.4559 7.92155 16.4763 7.87015C16.4967 7.81876 16.5306 7.76736 16.5544 7.71254C16.5782 7.6543 16.6394 7.62346 16.6733 7.57549C16.6767 7.56864 16.6971 7.56864 16.6971 7.55836C16.6801 7.46585 16.7685 7.43158 16.8126 7.38704C16.8806 7.31509 16.9927 7.2911 17.0437 7.19174C17.1082 7.2123 17.1354 7.14377 17.1898 7.13349C17.2373 7.12664 17.2815 7.08552 17.3257 7.05811C17.363 7.03413 17.4242 7.00329 17.4412 7.00329C17.5329 7.00672 17.6077 6.95532 17.6926 6.94847C17.747 6.94162 17.7572 6.92791 17.7572 6.87652C17.7572 6.58528 17.7572 6.29404 17.7572 6.0028C17.7572 5.9377 17.7742 5.924 17.8387 5.924C18.0935 5.924 18.3518 5.924 18.6066 5.924C18.6609 5.924 18.6745 5.9377 18.6745 5.99252C18.6711 6.133 18.6745 6.27348 18.6745 6.41396L18.6643 6.41054Z" fill="#3D3D3D"/>
</svg>
