<svg width="25" height="25" viewBox="0 0 25 25" fill="none" xmlns="http://www.w3.org/2000/svg">
<rect width="25" height="25" rx="7" fill="#489194"/>
<path fill-rule="evenodd" clip-rule="evenodd" d="M18.25 6H17.5V4.5H16V6H10V4.5H8.5V6H7.75C6.925 6 6.25 6.675 6.25 7.5V18C6.25 18.825 6.925 19.5 7.75 19.5H18.25C19.075 19.5 19.75 18.825 19.75 18V7.5C19.75 6.675 19.075 6 18.25 6ZM18.25 18H7.75V10.5H18.25V18ZM7.75 7.5V9H18.25V7.5H7.75ZM9.25 12H16.75V13.5H9.25V12ZM14.5 15H9.25V16.5H14.5V15Z" fill="#111111"/>
</svg>
