<svg width="22" height="22" viewBox="0 0 22 22" fill="none" xmlns="http://www.w3.org/2000/svg">
<path fill-rule="evenodd" clip-rule="evenodd" d="M17.4167 3.66732H16.5V1.83398H14.6667V3.66732H7.33333V1.83398H5.5V3.66732H4.58333C3.575 3.66732 2.75 4.49232 2.75 5.50065V18.334C2.75 19.3423 3.575 20.1673 4.58333 20.1673H17.4167C18.425 20.1673 19.25 19.3423 19.25 18.334V5.50065C19.25 4.49232 18.425 3.66732 17.4167 3.66732ZM17.4167 18.334H4.58333V9.16732H17.4167V18.334ZM4.58333 5.50065V7.33398H17.4167V5.50065H4.58333ZM6.41667 11.0007H15.5833V12.834H6.41667V11.0007ZM12.8333 14.6673H6.41667V16.5007H12.8333V14.6673Z" fill="#489194"/>
</svg>
