<svg width="36" height="24" viewBox="0 0 36 24" fill="none" xmlns="http://www.w3.org/2000/svg">
<path d="M0 1.73311C0.209441 1.10565 0.528362 0.560988 1.15906 0.249587C1.44585 0.109632 1.74098 0.0104966 2.06466 0.0104966C2.18128 0.0104966 2.29909 0.00466518 2.41571 0.00466518C12.808 0.00583147 23.1991 0.00933035 33.5914 0C34.5565 0 35.2979 0.327729 35.7656 1.17096C35.9607 1.52201 36 1.90689 36 2.30343C35.9964 8.67606 35.9976 15.0487 35.9952 21.4213C35.9952 21.7409 36.0226 22.0616 35.9346 22.38C35.6704 23.3399 34.8814 23.9603 33.8711 23.9918C33.789 23.9942 33.7069 23.9953 33.6248 23.9953C23.2098 23.9953 12.7949 23.993 2.38001 24C1.39706 24 0.658072 23.6443 0.207061 22.7742C0.12376 22.6121 0.0678302 22.4372 0 22.2681C0 15.4231 0 8.57809 0 1.73311ZM18.0059 9.88668C12.6283 9.88668 7.2495 9.89017 1.87188 9.87851C1.53035 9.87851 1.44585 9.96832 1.44704 10.2984C1.45894 14.0655 1.45418 17.8315 1.45537 21.5986C1.45537 22.3719 1.66125 22.5725 2.45736 22.5725C12.8152 22.5725 23.1729 22.5725 33.5307 22.5725C34.3447 22.5725 34.5458 22.3742 34.5458 21.5764C34.5458 17.821 34.5411 14.0667 34.5553 10.3112C34.5565 9.95549 34.4566 9.87851 34.1067 9.87851C28.7398 9.89017 23.3741 9.88668 18.0071 9.88668H18.0059ZM17.9893 5.65186C23.3788 5.65186 28.7683 5.64953 34.1579 5.65886C34.4601 5.65886 34.5601 5.59355 34.553 5.28215C34.5315 4.32928 34.5458 3.37642 34.5446 2.42356C34.5446 1.62815 34.3423 1.42988 33.5272 1.42988C30.9139 1.42988 28.3019 1.42988 25.6886 1.42988C17.9441 1.42988 10.1995 1.42988 2.45617 1.42988C1.66006 1.42988 1.45537 1.62931 1.45418 2.40373C1.45418 3.35659 1.46727 4.31062 1.44585 5.26232C1.43871 5.58072 1.53511 5.66003 1.85522 5.66003C7.23284 5.65069 12.6105 5.65303 17.9881 5.65303L17.9893 5.65186Z" fill="#3D3D3D"/>
<path d="M12.9722 15.5269C10.8766 15.5269 8.77985 15.5269 6.68425 15.5269C6.37009 15.5269 6.07735 15.4989 5.88457 15.205C5.60611 14.7816 5.83816 14.2276 6.34272 14.1401C6.47957 14.1168 6.62237 14.1133 6.76279 14.1133C10.8969 14.1122 15.0297 14.1122 19.1638 14.1133C19.7636 14.1133 20.0171 14.2591 20.1265 14.658C20.2301 15.037 19.9718 15.4429 19.5756 15.5047C19.4268 15.528 19.2721 15.5245 19.1198 15.5245C17.0706 15.5245 15.0214 15.5245 12.9722 15.5245V15.5269Z" fill="#3D3D3D"/>
<path d="M10.0841 18.3481C8.90123 18.3481 7.71837 18.3551 6.5355 18.3446C5.9881 18.34 5.63467 17.8898 5.79889 17.4291C5.88933 17.1748 6.06783 16.9999 6.35343 16.9637C6.50337 16.9451 6.65688 16.9369 6.80801 16.9369C8.98691 16.9358 11.1646 16.9358 13.3435 16.9369C13.4494 16.9369 13.5553 16.9346 13.6601 16.9439C14.1087 16.9824 14.4133 17.2775 14.4038 17.66C14.3943 18.0484 14.0825 18.3411 13.6327 18.347C12.789 18.3575 11.9465 18.3516 11.1027 18.3516C10.7636 18.3516 10.4232 18.3516 10.0841 18.3516V18.3481Z" fill="#3D3D3D"/>
</svg>
