<?xml version="1.0" encoding="utf-8"?>

<svg version="1.1" id="Icons" xmlns="http://www.w3.org/2000/svg" xmlns:xlink="http://www.w3.org/1999/xlink" x="0px" y="0px"
	 viewBox="0 0 32 32" style="enable-background:new 0 0 32 32;" xml:space="preserve">
<style type="text/css">
	.st0{fill:none;stroke:#000000;stroke-width:2;stroke-linecap:round;stroke-linejoin:round;stroke-miterlimit:10;}
	
		.st1{fill:none;stroke:#000000;stroke-width:2;stroke-linecap:round;stroke-linejoin:round;stroke-miterlimit:10;stroke-dasharray:3;}
	.st2{fill:none;stroke:#000000;stroke-width:2;stroke-linejoin:round;stroke-miterlimit:10;}
	.st3{fill:none;}
</style>
<path class="st0" d="M17,14V5c0-1.1-0.9-2-2-2H5C3.9,3,3,3.9,3,5v20c0,1.1,0.9,2,2,2h2"/>
<path class="st0" d="M13,3v1.3C13,5.2,12.2,6,11.3,6H8.7C7.8,6,7,5.2,7,4.3V3"/>
<path class="st0" d="M28,29H9c-1.1,0-2-0.9-2-2V16c0-1.1,0.9-2,2-2h19c1.1,0,2,0.9,2,2v11C30,28.1,29.1,29,28,29z"/>
<line class="st0" x1="7" y1="18" x2="30" y2="18"/>
<circle class="st0" cx="22" cy="24" r="1"/>
<circle class="st0" cx="24.8" cy="24" r="1"/>
<rect x="-504" y="-504" class="st3" width="536" height="680"/>
</svg>
