<svg xmlns="http://www.w3.org/2000/svg" xmlns:xlink="http://www.w3.org/1999/xlink" version="1.1" width="1000" height="1000" viewBox="0 0 1000 1000" xml:space="preserve">
<desc>Created with Fabric.js 3.5.0</desc>
<defs>
</defs>
<rect x="0" y="0" width="100%" height="100%" fill="#ffffff"/>
<g transform="matrix(-1.5562 1.4044 -1.4044 -1.5562 500.0207 464.8746)" id="577462">
<path style="stroke: none; stroke-width: 1; stroke-dasharray: none; stroke-linecap: butt; stroke-dashoffset: 0; stroke-linejoin: miter; stroke-miterlimit: 4; is-custom-font: none; font-file-url: none; fill: rgb(0,0,0); fill-rule: nonzero; opacity: 1;" vector-effect="non-scaling-stroke" transform=" translate(-183.6692, -183.67)" d="M 337.591 0.932 c -13.464 6.12 -26.315 12.852 -39.168 20.196 c -11.628 6.12 -25.704 12.24 -35.496 21.42 c -5.508 4.896 0 15.3 7.344 12.852 c 0 0 0.612 0 0.612 -0.612 c 1.836 1.224 3.061 2.448 4.896 4.284 c 0 0.612 0.611 1.836 0.611 2.448 c 0.612 1.224 1.836 2.448 3.061 3.672 c -17.748 33.048 -34.272 66.096 -55.08 96.696 c -6.12 9.18 -12.853 17.748 -20.808 25.704 c -19.584 -31.212 -51.409 -67.32 -89.965 -60.588 c -50.796 9.18 -23.256 63.647 3.06 82.008 c 31.212 22.644 58.14 21.42 85.068 0 c 12.24 20.808 20.809 44.063 19.584 66.708 c -1.836 54.468 -50.796 63.647 -91.8 49.571 c 6.12 -15.912 7.956 -34.271 4.284 -50.184 c -6.12 -28.764 -50.184 -54.468 -75.888 -34.272 c -25.092 20.196 22.032 71.604 37.332 82.009 c 4.284 3.06 9.18 6.119 14.076 8.567 c -0.612 0.612 -0.612 1.225 -1.224 1.836 c -28.152 44.064 -65.484 6.12 -82.62 -25.092 c -2.448 -4.896 -9.18 -0.612 -7.344 4.284 c 14.076 32.436 42.84 70.38 81.396 48.348 c 9.18 -5.508 17.136 -13.464 22.644 -23.256 c 33.66 13.464 72.829 13.464 97.308 -17.136 c 29.376 -36.72 11.017 -84.456 -8.567 -119.952 c 0.611 -0.612 0.611 -0.612 1.224 -1.224 c 34.884 -33.66 56.304 -81.396 78.336 -124.236 c 4.284 3.06 9.181 6.12 13.464 9.18 c 3.061 1.836 7.345 1.224 9.792 -1.224 c 17.748 -20.808 31.212 -45.9 35.496 -73.44 C 351.055 2.768 344.324 -2.128 337.591 0.932 z M 178.471 207.787 c -23.256 13.464 -46.512 -3.06 -63.648 -18.972 c -22.644 -20.808 -16.524 -54.468 18.36 -47.735 c 17.748 3.672 31.824 19.584 43.452 32.436 c 6.12 6.732 12.241 14.687 17.749 23.255 C 189.488 201.056 183.979 204.728 178.471 207.787 z M 116.047 319.171 C 116.047 319.171 115.435 319.171 116.047 319.171 c -16.524 -8.567 -28.764 -20.808 -38.556 -36.107 c -4.284 -6.732 -7.956 -14.076 -9.792 -22.032 c -6.12 -20.808 26.928 -10.404 35.496 -6.12 C 126.451 267.764 124.615 297.14 116.047 319.171 z M 306.379 67.028 c -0.612 0 -0.612 -0.612 -1.224 -0.612 c 0 -1.836 -1.225 -3.672 -3.672 -4.896 c -4.284 -1.836 -8.568 -4.284 -12.853 -6.732 c -1.836 -1.224 -5.508 -4.896 -5.508 -3.672 c 0 -0.612 -0.612 -1.224 -1.224 -1.224 c 6.731 -3.672 13.464 -8.568 20.195 -12.24 c 8.568 -4.896 17.748 -9.792 26.929 -14.688 C 324.74 38.264 316.784 53.564 306.379 67.028 z" stroke-linecap="round"/>
</g>
</svg>