<svg width="49" height="13" viewBox="0 0 49 13" fill="none" xmlns="http://www.w3.org/2000/svg">
<path d="M25.4775 2.55874C23.4273 2.55874 21.3771 2.55728 19.3254 2.56166C19.1301 2.56166 19.067 2.53392 19.1388 2.3178C19.3512 1.6782 19.5494 1.03422 19.736 0.387314C19.792 0.194558 19.8753 0.134687 20.0734 0.133227C22.5802 0.118624 25.087 0.112783 27.5938 0.0675146C29.2808 0.0368489 30.9664 0.0675146 32.6534 0.026627C32.985 0.0178653 33.3153 -0.0303237 33.6483 0.0295475C34.3791 0.162432 34.7366 0.696892 34.5457 1.43725C34.2068 2.74858 33.8493 4.05552 33.499 5.36393C33.4258 5.63554 33.3555 5.90861 33.2794 6.18022C33.0238 7.08851 32.2643 7.69306 31.3368 7.72227C31.0669 7.73103 30.7955 7.72519 30.5242 7.72519C27.1588 7.72519 23.792 7.72519 20.4266 7.72519C20.1768 7.72519 20.0198 7.85126 19.9557 8.1034C19.5666 9.64399 19.1746 11.1846 18.7927 12.7281C18.7425 12.9281 18.6621 13.0055 18.4482 12.9997C17.8136 12.9836 17.179 12.988 16.5444 12.9982C16.3606 13.0012 16.3419 12.9413 16.3864 12.7792C17.0469 10.3858 17.7059 7.99242 18.3577 5.59611C18.4037 5.42672 18.4769 5.37707 18.6463 5.37707C20.4639 5.37707 22.283 5.38729 24.1007 5.35662C26.3131 5.31866 28.5256 5.34786 30.7381 5.33034C30.9391 5.32888 31.0367 5.27339 31.097 5.06603C31.3167 4.31399 31.5593 3.56925 31.7919 2.82013C31.8723 2.56166 31.8666 2.55728 31.6024 2.55728C29.5594 2.55728 27.5163 2.55728 25.4747 2.55728L25.4775 2.55874Z" fill="#3D3D3D"/>
<path d="M7.38148 12.7631C5.2853 12.7631 3.18769 12.7631 1.09151 12.7646C0.89481 12.7646 0.706728 12.7427 0.527261 12.6595C0.169762 12.4915 -0.124565 12.0549 0.0534668 11.4168C0.517211 9.74913 0.97234 8.07857 1.43178 6.41094C1.98454 4.40307 2.5416 2.39519 3.09006 0.384394C3.13887 0.20478 3.20635 0.130306 3.40305 0.134687C4.07641 0.14929 4.74977 0.144909 5.4217 0.137608C5.61265 0.136147 5.68157 0.160972 5.61839 0.387314C4.73111 3.57071 3.85387 6.75703 2.97376 9.94188C2.87757 10.2909 2.87613 10.2909 3.23937 10.2923C4.44683 10.2953 5.65429 10.2763 6.86031 10.3055C8.77128 10.3508 10.6822 10.3274 12.5932 10.3508C12.8359 10.3537 12.922 10.2675 12.9823 10.0412C13.828 6.8461 14.6865 3.65541 15.5293 0.458868C15.5982 0.200399 15.703 0.128846 15.9529 0.136147C16.5717 0.153671 17.1905 0.141989 17.8093 0.141989C18.0734 0.141989 18.0763 0.143449 18.0045 0.403377C17.3656 2.72083 16.7238 5.03829 16.0849 7.35428C15.6729 8.84814 15.2508 10.3405 14.8545 11.8402C14.7066 12.3981 14.1926 12.7792 13.6485 12.7734C11.5595 12.7529 9.47048 12.7646 7.38148 12.7646V12.7631Z" fill="#3D3D3D"/>
<path d="M34.1954 12.7631C33.8781 12.7631 33.5608 12.7631 33.2435 12.7631C32.9247 12.7631 32.9247 12.7631 33.0094 12.4609C33.4674 10.8253 33.9269 9.18838 34.3849 7.55288C35.0611 5.1405 35.7388 2.72813 36.4078 0.312841C36.4567 0.134687 36.5313 0.0733557 36.7093 0.0762763C37.3669 0.0850379 38.0245 0.0835776 38.682 0.0762763C38.8759 0.074816 38.9189 0.125926 38.863 0.324523C37.7416 4.39284 36.6275 8.46263 35.5162 12.5339C35.4674 12.7106 35.3942 12.7734 35.2147 12.7661C34.8745 12.7514 34.5342 12.7617 34.1939 12.7617L34.1954 12.7631Z" fill="#3D3D3D"/>
<path d="M42.4669 12.3992C42.7224 11.4763 42.9636 10.6045 43.2063 9.73418C43.1891 9.7225 43.1718 9.71228 43.156 9.7006C42.2013 10.5855 41.2465 11.469 40.2917 12.3539C40.2774 12.3452 40.2645 12.3364 40.2501 12.3276C41.3886 8.24324 42.5286 4.1574 43.6873 0C44.1697 0.975463 44.6248 1.89251 45.1144 2.88404C45.3929 1.89105 45.6528 0.965241 45.9141 0.0379671C45.9787 0.0598712 45.9873 0.10806 46.006 0.148948C46.9866 2.13492 47.9658 4.12089 48.9507 6.10394C49.0253 6.25435 49.0225 6.34489 48.8918 6.46463C46.8129 8.38489 44.7397 10.311 42.665 12.2356C42.6148 12.2824 42.5602 12.3218 42.4654 12.3992H42.4669Z" fill="#3D3D3D"/>
</svg>
