<svg xmlns="http://www.w3.org/2000/svg" data-name="Layer 1" viewBox="0 0 512 512"><path d="M156.68,202.79,200.49,159a7.49,7.49,0,0,0,0-10.6l-43.81-43.81a7.5,7.5,0,0,0-12.8,5.3v15.39l-20.69-20.69a7.5,7.5,0,0,0-12.8,5.3v87.61a7.48,7.48,0,0,0,4.63,6.93,7.34,7.34,0,0,0,2.86.57,7.52,7.52,0,0,0,5.31-2.19l20.69-20.69v15.38a7.5,7.5,0,0,0,4.63,6.93,7.38,7.38,0,0,0,2.87.57A7.5,7.5,0,0,0,156.68,202.79Zm2.2-35.69L167,159a7.51,7.51,0,0,0,0-10.6l-8.12-8.12V128l25.7,25.7-25.7,25.7Zm-12.8-8.42h0l-20.68,20.69V128l20.68,20.68h0l5,5Zm284,134.78a95.1,95.1,0,0,0-24.73-17.39V37.62A37.55,37.55,0,0,0,367.84.12H323.4a7.33,7.33,0,0,0-2.6,0H185.94a7.33,7.33,0,0,0-2.6,0H138.91a37.54,37.54,0,0,0-37.5,37.5V73.34A94.87,94.87,0,0,0,81.93,88a91.34,91.34,0,0,0,0,131.41A94.92,94.92,0,0,0,101.41,234V474.5a37.54,37.54,0,0,0,37.5,37.5H367.84a37.55,37.55,0,0,0,37.5-37.5V442.28a95.14,95.14,0,0,0,24.73-17.4,91.35,91.35,0,0,0,0-131.42ZM309.85,15.12,303,28.81a9.64,9.64,0,0,1-8.67,5.3H212.46a9.64,9.64,0,0,1-8.67-5.3L196.9,15.12ZM92.4,208.65a76.36,76.36,0,0,1,0-109.94,81.59,81.59,0,0,1,113.27,0,76.33,76.33,0,0,1,0,109.94,81.59,81.59,0,0,1-113.27,0ZM390.34,474.5a22.53,22.53,0,0,1-22.5,22.5H138.91a22.52,22.52,0,0,1-22.5-22.5V240.9A97,97,0,0,0,149,246.51a95.46,95.46,0,0,0,67.1-27.13,91.32,91.32,0,0,0,0-131.41A95.49,95.49,0,0,0,149,60.85a97,97,0,0,0-32.63,5.61V37.62a22.52,22.52,0,0,1,22.5-22.5H180.1l10.29,20.44a24.56,24.56,0,0,0,22.07,13.55h81.83a24.55,24.55,0,0,0,22.06-13.55l10.29-20.44h41.2a22.53,22.53,0,0,1,22.5,22.5V270.24a97.26,97.26,0,0,0-27.38-3.9,95.49,95.49,0,0,0-67.1,27.12,91.33,91.33,0,0,0,0,131.42A95.49,95.49,0,0,0,363,452a97.26,97.26,0,0,0,27.38-3.9Zm29.26-60.36a81.59,81.59,0,0,1-113.27,0,76.33,76.33,0,0,1,0-109.94,81.59,81.59,0,0,1,113.27,0,76.36,76.36,0,0,1,0,109.94ZM263.31,154.75c0,.16,0,.31,0,.46v.08a7.49,7.49,0,0,0,2.63,5.05l28.76,24.21a7.5,7.5,0,1,0,9.66-11.48L291.26,162h57.95a7.5,7.5,0,0,1,7.5,7.5v65.62a7.5,7.5,0,0,0,15,0V169.51a22.52,22.52,0,0,0-22.5-22.5H290.26l14.15-12.92A7.5,7.5,0,0,0,294.3,123l-27.75,25.33a7.47,7.47,0,0,0-3.24,6.17s0,.08,0,.12S263.31,154.71,263.31,154.75Zm137.3,162.66a7.5,7.5,0,0,0-7.5-7.5h-60.3a7.5,7.5,0,0,0,0,15h21.08a18,18,0,0,1,16.2,9.86H332.81a7.5,7.5,0,1,0,0,15h37.28a18,18,0,0,1-16.2,9.86H332.72l-.44,0-.31,0-.4.06-.34.06-.37.09-.33.1-.37.13-.31.12c-.13.05-.25.12-.37.18l-.28.14-.36.22a2.26,2.26,0,0,0-.26.16l-.32.24-.27.21-.26.24a3.83,3.83,0,0,0-.29.28l-.08.07-.15.18a3.88,3.88,0,0,0-.26.31c-.08.09-.15.19-.22.28l-.21.31a3.37,3.37,0,0,0-.19.32l-.18.31L326,364c-.05.11-.1.22-.14.33a3.62,3.62,0,0,0-.13.35c0,.11-.07.23-.11.34l-.09.36c0,.12,0,.24-.08.35s0,.26-.05.39,0,.22,0,.34a3,3,0,0,0,0,.42,1.5,1.5,0,0,0,0,.22s0,.07,0,.1,0,.28,0,.42,0,.22,0,.33,0,.25.05.38,0,.24.07.35a3.38,3.38,0,0,0,.08.34c0,.13.07.25.1.37s.08.22.13.33a3.62,3.62,0,0,0,.13.35l.16.34c.05.1.1.21.16.31s.13.22.2.33l.18.29.22.29c.08.1.15.21.23.3a2.73,2.73,0,0,0,.23.25l.29.3a.46.46,0,0,0,.07.07l45.59,43a7.5,7.5,0,0,0,10.29-10.91l-31.86-30.07h2.2A32.92,32.92,0,0,0,386,349.77h7.13a7.5,7.5,0,0,0,0-15H386a31.7,31.7,0,0,0-4.27-9.86h11.4A7.49,7.49,0,0,0,400.61,317.41ZM321.86,467h-137a7.5,7.5,0,0,0,0,15h137a7.5,7.5,0,0,0,0-15ZM210.62,379.59a7.5,7.5,0,1,0,10.11,11.08l27.75-25.34a7.47,7.47,0,0,0,3.23-6.16v-.25c0-.15,0-.3,0-.45a.28.28,0,0,0,0-.09,7.45,7.45,0,0,0-2.63-5l-28.76-24.21a7.5,7.5,0,1,0-9.66,11.48l13.15,11.06h-61a7.5,7.5,0,0,1-7.5-7.5V269a7.5,7.5,0,0,0-15,0v75.16a22.52,22.52,0,0,0,22.5,22.5h62Z"/></svg>