<?xml version="1.0" encoding="iso-8859-1"?>
<!-- Generator: Adobe Illustrator 18.0.0, SVG Export Plug-In . SVG Version: 6.00 Build 0)  -->
<!DOCTYPE svg PUBLIC "-//W3C//DTD SVG 1.1//EN" "http://www.w3.org/Graphics/SVG/1.1/DTD/svg11.dtd">
<svg version="1.1" id="Capa_1" xmlns="http://www.w3.org/2000/svg" xmlns:xlink="http://www.w3.org/1999/xlink" x="0px" y="0px"
	 viewBox="0 0 59.572 59.572" style="enable-background:new 0 0 59.572 59.572;" xml:space="preserve">
<g>
	<path d="M57.494,0.614c-0.213-0.509-0.8-0.751-1.309-0.535c-0.509,0.214-0.749,0.8-0.535,1.309c0.478,1.14,0.492,2.062,0.041,2.74
		c-0.597,0.899-2.064,1.468-3.859,1.522c-3.54-2.282-7.325-2.119-9.608,0.374c-0.48-0.16-0.99-0.206-1.5-0.129
		c-0.841,0.128-1.568,0.575-2.05,1.261c-0.982,1.4-0.606,3.364,0.837,4.378c0.007,0.005,0.015,0.011,0.022,0.016
		c0.772,0.542,1.633,0.796,2.404,0.741c0.014,0.046,0.029,0.092,0.045,0.138c0.253,0.719,0.774,1.382,1.466,1.867
		c0.684,0.48,1.474,0.744,2.228,0.744c0.062,0.001,0.118-0.002,0.176-0.005c0.014,0.047,0.029,0.094,0.046,0.142
		c0.253,0.718,0.773,1.381,1.465,1.866c0.684,0.48,1.474,0.744,2.228,0.744c0.062,0.003,0.118-0.003,0.176-0.005
		c0.014,0.047,0.03,0.095,0.046,0.142c0.247,0.699,0.746,1.346,1.411,1.827c0.011,0.009,0.022,0.017,0.033,0.024
		c0.545,0.383,1.162,0.567,1.771,0.566c0.967,0,1.916-0.465,2.53-1.339c0.798-1.139,0.699-2.648-0.141-3.719
		c0.813-1.513,0.963-3.159,0.431-4.807c-0.357-1.108-1.009-2.156-1.91-3.103c1.52-0.377,2.736-1.114,3.417-2.138
		C57.937,4.361,58.433,2.85,57.494,0.614z"/>
	<path d="M50.024,21.349c-0.635-0.465-1.171-1.041-1.572-1.681c-0.765-0.165-1.544-0.503-2.238-0.99
		c-0.685-0.48-1.26-1.087-1.683-1.765c-0.787-0.169-1.551-0.504-2.232-0.982c-0.681-0.478-1.254-1.081-1.677-1.755
		c-0.777-0.167-1.546-0.505-2.238-0.991c-0.434-0.305-0.787-0.674-1.099-1.068c-0.905,0.823-1.81,1.729-2.7,2.714
		c-0.079,0.073-7.979,7.359-18.941,9.358c-1.334,0.242-2.381,0.541-3.297,0.939c-0.458,0.2-1.481,0.731-1.503,0.743
		C3.565,29.899,0.007,38.314,2.192,46.334c1.951,7.164,7.985,12.323,15.372,13.145c0.564,0.063,1.143,0.094,1.72,0.094c0,0,0,0,0,0
		c2.595,0,5.225-0.617,7.815-1.834c7-3.287,19.526-12.035,24.82-33.71c0.081-0.205,0.32-0.834,0.604-1.726
		c-0.861-0.086-1.688-0.381-2.414-0.891L50.024,21.349z M10.822,50.169c-0.163,0.1-0.342,0.146-0.52,0.146
		c-0.337,0-0.667-0.171-0.855-0.479c-2.383-3.911-2.655-9.118-0.711-13.588c0.22-0.508,0.81-0.739,1.316-0.519
		c0.506,0.22,0.738,0.81,0.518,1.315c-1.688,3.884-1.464,8.386,0.585,11.75C11.443,49.266,11.293,49.882,10.822,50.169z
		 M16.105,31.421c-1.402,0.571-2.681,1.497-3.701,2.68c-0.198,0.229-0.477,0.348-0.758,0.348c-0.231,0-0.463-0.08-0.652-0.242
		c-0.418-0.361-0.465-0.992-0.104-1.41c1.225-1.422,2.768-2.538,4.461-3.227c0.511-0.212,1.094,0.037,1.303,0.549
		C16.862,30.63,16.617,31.213,16.105,31.421z"/>
</g>
<g>
</g>
<g>
</g>
<g>
</g>
<g>
</g>
<g>
</g>
<g>
</g>
<g>
</g>
<g>
</g>
<g>
</g>
<g>
</g>
<g>
</g>
<g>
</g>
<g>
</g>
<g>
</g>
<g>
</g>
</svg>
