<?xml version="1.0" encoding="iso-8859-1"?>
<!-- Generator: Adobe Illustrator 19.0.0, SVG Export Plug-In . SVG Version: 6.00 Build 0)  -->
<svg version="1.1" id="Layer_1" xmlns="http://www.w3.org/2000/svg" xmlns:xlink="http://www.w3.org/1999/xlink" x="0px" y="0px"
	 viewBox="0 0 511.99 511.99" style="enable-background:new 0 0 511.99 511.99;" xml:space="preserve">
<g>
	<path style="fill:#DBAFA5;" d="M53.397,234.149C23.952,234.149,0,258.103,0,287.539c0,29.453,23.952,53.406,53.397,53.406
		s53.397-23.953,53.397-53.406C106.795,258.102,82.843,234.149,53.397,234.149z"/>
	<path style="fill:#DBAFA5;" d="M458.586,234.149c-29.438,0-53.391,23.954-53.391,53.39c0,29.453,23.953,53.406,53.391,53.406
		c29.452,0,53.404-23.953,53.404-53.406C511.99,258.102,488.038,234.149,458.586,234.149z"/>
</g>
<path style="fill:#EAC6BB;" d="M406.711,147.182c-40.343-40.343-93.981-62.561-151.028-62.561
	c-57.054,0-110.693,22.218-151.036,62.561s-62.562,93.982-62.562,151.044c0,57.046,22.219,110.686,62.562,151.028
	s93.982,62.562,151.036,62.562c57.047,0,110.686-22.219,151.028-62.562c40.344-40.343,62.562-93.982,62.562-151.028
	C469.273,241.164,447.055,187.525,406.711,147.182z"/>
<g>
	<path style="fill:#434A54;" d="M314.995,385.084c-5.109-2.953-11.641-1.188-14.578,3.922c-0.016,0.031-2.328,3.469-7.859,7.047
		c-6.328,4.094-17.812,8.969-36.609,8.969c-34.069,0-44.788-15.688-45.226-16.359c0.078,0.109,0.109,0.172,0.109,0.172l0,0
		c-1.875-3.094-5.266-5.172-9.148-5.172c-5.897,0-10.679,4.781-10.679,10.672c0,2.016,0.57,3.891,1.531,5.5h-0.008
		c0.75,1.25,5.008,7.828,15.007,14.188c12.875,8.203,29.164,12.359,48.413,12.359c19.266,0,35.484-4.172,48.203-12.391
		c9.906-6.422,14.047-13.062,14.781-14.328C321.87,394.553,320.12,388.021,314.995,385.084z"/>
	<path style="fill:#434A54;" d="M180.919,255.508c0,5.891-4.781,10.672-10.68,10.672s-10.68-4.781-10.68-10.672
		c0-5.906,4.781-10.688,10.68-10.688S180.919,249.602,180.919,255.508z"/>
	<path style="fill:#434A54;" d="M351.807,255.508c0,5.891-4.781,10.672-10.688,10.672s-10.688-4.781-10.688-10.672
		c0-5.906,4.781-10.688,10.688-10.688S351.807,249.602,351.807,255.508z"/>
</g>
<path style="fill:#FC6E51;" d="M245.519,148.588c-39.922,0-75.116-29.093-81.507-69.749c-2.828-17.984,1.523-36,12.25-50.718
	c10.719-14.719,26.53-24.391,44.522-27.219c19.039-2.984,39.983,3.375,52.116,15.844c8.953,9.188,12.656,21,10.391,33.234
	c-2.203,11.906-9.172,22.031-19.125,27.781c-9.273,5.359-20.124,6.469-29.772,3.047c-12.773-4.531-21.703-22.688-17.703-35.984
	c1.703-5.641,7.656-8.843,13.305-7.14c5.648,1.703,8.844,7.656,7.148,13.312c-0.633,2.438,2.227,8.703,4.43,9.703
	c3.703,1.312,8.062,0.797,11.913-1.438c4.594-2.656,7.719-7.328,8.797-13.156c1.008-5.453-0.523-10.187-4.68-14.453
	c-7.414-7.609-21.187-11.578-33.507-9.641c-12.352,1.938-23.211,8.578-30.569,18.687c-7.367,10.109-10.352,22.468-8.414,34.828
	c5.234,33.328,36.616,56.202,69.951,50.952c5.82-0.922,11.289,3.062,12.203,8.89s-3.062,11.297-8.891,12.219
	C254.057,148.26,249.761,148.588,245.519,148.588z"/>
<g>
</g>
<g>
</g>
<g>
</g>
<g>
</g>
<g>
</g>
<g>
</g>
<g>
</g>
<g>
</g>
<g>
</g>
<g>
</g>
<g>
</g>
<g>
</g>
<g>
</g>
<g>
</g>
<g>
</g>
</svg>
