<?xml version="1.0" encoding="iso-8859-1"?>
<!-- Generator: Adobe Illustrator 19.0.0, SVG Export Plug-In . SVG Version: 6.00 Build 0)  -->
<svg version="1.1" id="Layer_1" xmlns="http://www.w3.org/2000/svg" xmlns:xlink="http://www.w3.org/1999/xlink" x="0px" y="0px"
	 viewBox="0 0 511.999 511.999" style="enable-background:new 0 0 511.999 511.999;" xml:space="preserve">
<path style="fill:#FE9901;" d="M502.19,418.095c-11.272-48.664-18.019-98.266-18.019-148.218V66.689c0-24.853-20.147-45-45-45
	h-113.18v262.796H440.16c-1.17,39.707-7.641,89.696-17.81,133.613c-1.205,5.204-1.854,10.735-1.854,16.469
	c0,20.068,7.95,37.651,19.874,47.468v0.392h0.484c6.264,5.002,13.587,7.882,21.418,7.882c7.83,0,15.154-2.882,21.418-7.882h0.484
	v-0.392c11.923-9.816,19.874-27.401,19.874-47.468C504.045,428.832,503.396,423.3,502.19,418.095z"/>
<path style="fill:#EA8500;" d="M502.19,418.095c-11.272-48.664-18.019-98.266-18.019-148.218v-94.068V66.689
	c0-24.853-20.147-45-45-45h-23.996c24.853,0,45,20.147,45,45v109.12v94.068c0,49.952,6.746,99.554,18.019,148.218
	c1.206,5.206,1.855,10.739,1.855,16.473c0,20.068-7.95,37.651-19.874,47.468v0.392h-0.484c-2.926,2.337-6.087,4.203-9.419,5.537
	c3.8,1.521,7.826,2.346,11.999,2.346c7.83,0,15.154-2.882,21.418-7.882h0.484v-0.392c11.923-9.816,19.874-27.401,19.874-47.468
	C504.045,428.832,503.396,423.3,502.19,418.095z"/>
<path style="fill:#37CC8F;" d="M7.997,423.759c-1.359,38.948,29.812,70.95,68.457,70.95c31.812,0,58.552-21.687,66.258-51.082
	l0.021,0.12l27.847-118.506l32.567-12.375l47.586-260.844c2.352-12.894-2.227-26.076-12.066-34.735l0,0l-98.949,319.681l0,0
	c-10.185,10.836-23.66,18.009-38.336,20.407l-10.884,1.778l0.005,0.004c-6.185-1.29-12.674-1.755-19.352-1.246
	C37.138,360.508,9.186,389.666,7.997,423.759z M37.439,426.209c0-21.548,17.468-39.015,39.016-39.015s39.015,17.468,39.015,39.015
	c0,21.547-17.468,39.015-39.015,39.015S37.439,447.758,37.439,426.209z"/>
<g>
	<path style="fill:#2AA86F;" d="M65.713,359.159l-0.005-0.004l8.581-1.402c-1.042,0.033-2.086,0.08-3.137,0.16
		c-2.38,0.181-4.727,0.507-7.04,0.941C64.647,358.952,65.183,359.048,65.713,359.159z"/>
	<path style="fill:#2AA86F;" d="M238.669,17.289L223.11,67.557l-44.752,245.31l-32.567,12.375l-27.847,118.506l-0.021-0.12
		c-6.679,25.472-27.654,45.146-53.834,49.946c4.013,0.732,8.142,1.136,12.367,1.136c31.812,0,58.552-21.687,66.258-51.082
		l0.021,0.12l27.847-118.506l32.567-12.375l47.586-260.844C253.086,39.129,248.508,25.947,238.669,17.289z"/>
</g>
<path style="fill:#37CC8F;" d="M279.386,357.913c-6.678-0.509-13.166-0.043-19.352,1.246l0.005-0.004l-10.884-1.778
	c-14.677-2.397-28.152-9.571-38.337-20.407l0,0L111.871,17.289l0,0c-9.839,8.659-14.419,21.841-12.066,34.735l47.586,260.844
	l32.567,12.375l27.847,118.506l0.021-0.12c7.706,29.395,34.447,51.082,66.258,51.082c38.645,0,69.815-32.002,68.456-70.95
	C341.353,389.666,313.401,360.508,279.386,357.913z M274.085,465.226c-21.548,0-39.015-17.468-39.015-39.015
	c0-21.547,17.468-39.015,39.015-39.015c21.547,0,39.016,17.468,39.016,39.015C313.102,447.758,295.632,465.226,274.085,465.226z"/>
<g>
	<path style="fill:#2AA86F;" d="M103.082,69.99l82.637,266.979l0,0c10.185,10.836,23.66,18.009,38.336,20.407l10.884,1.778
		l-0.005,0.004c5.324-1.11,10.873-1.606,16.574-1.398l-2.352-0.384c-14.677-2.397-28.152-9.571-38.337-20.407l0,0l-98.949-319.68
		c-9.839,8.659-14.419,21.841-12.066,34.735L103.082,69.99z"/>
	<path style="fill:#2AA86F;" d="M342.542,423.759c-1.189-34.092-29.141-63.251-63.156-65.846c-6.162-0.47-12.16-0.101-17.909,0.971
		c30.679,5.834,54.861,33.221,55.965,64.876c1.208,34.634-23.313,63.754-55.931,69.784c4.078,0.757,8.278,1.166,12.574,1.166
		C312.729,494.709,343.9,462.708,342.542,423.759z"/>
</g>
<path d="M509.94,416.303c-2.261-9.763-4.333-19.559-6.159-29.117c-0.824-4.316-4.992-7.142-9.306-6.321
	c-4.316,0.824-7.145,4.991-6.32,9.306c1.865,9.759,3.979,19.759,6.286,29.72c1.095,4.726,1.649,9.663,1.649,14.676
	c0,16.871-6.505,32.707-16.975,41.327c-0.065,0.054-0.129,0.108-0.192,0.162c-0.067,0.051-0.134,0.103-0.199,0.155
	c-5.034,4.02-10.724,6.144-16.454,6.144c-5.73,0-11.421-2.124-16.454-6.144c-0.066-0.052-0.133-0.104-0.199-0.155
	c-0.063-0.055-0.127-0.109-0.192-0.162c-10.47-8.621-16.975-24.456-16.975-41.327c0-5.012,0.555-9.949,1.649-14.674
	c10.837-46.801,16.897-92.29,18.012-135.203c0.055-2.143-0.757-4.22-2.255-5.758c-1.498-1.536-3.552-2.403-5.698-2.403H333.946
	v-21.591h95.879c4.393,0,7.955-3.56,7.955-7.955c0-4.394-3.562-7.954-7.955-7.954h-95.879v-22.812h95.879
	c4.393,0,7.955-3.56,7.955-7.955c0-4.394-3.562-7.954-7.955-7.954h-95.879v-22.812h95.879c4.393,0,7.955-3.56,7.955-7.955
	s-3.562-7.955-7.955-7.955h-95.879v-22.812h95.879c4.393,0,7.955-3.56,7.955-7.955c0-4.394-3.562-7.955-7.955-7.955h-95.879v-22.81
	h95.879c4.393,0,7.955-3.56,7.955-7.955c0-4.394-3.562-7.955-7.955-7.955h-95.879V61.332h43.978c4.393,0,7.954-3.56,7.954-7.955
	s-3.561-7.955-7.954-7.955h-43.978v-15.78H439.17c20.427,0,37.046,16.619,37.046,37.046v203.188c0,30.218,2.488,61.811,7.394,93.901
	c0.664,4.342,4.723,7.321,9.066,6.661c4.342-0.664,7.325-4.723,6.661-9.066c-4.785-31.297-7.211-62.08-7.211-91.497V66.688
	c0-29.199-23.755-52.955-52.955-52.955h-113.18c-4.393,0-7.954,3.56-7.954,7.955v262.796c0,4.394,3.561,7.954,7.954,7.954h105.943
	c-1.602,39.442-7.425,81.068-17.336,123.866c-1.366,5.9-2.059,12.044-2.059,18.264c0,21.014,7.889,40.372,21.2,52.26
	c0.889,1.337,2.171,2.388,3.681,2.991c7.522,5.532,16.074,8.446,24.848,8.446c8.773,0,17.326-2.913,24.848-8.446
	c1.51-0.602,2.791-1.655,3.681-2.991c13.311-11.888,21.2-31.246,21.2-52.26C511.999,428.349,511.306,422.205,509.94,416.303z"/>
<path d="M403.981,45.423c-4.393,0-7.955,3.56-7.955,7.955s3.562,7.955,7.955,7.955h25.844c4.393,0,7.955-3.56,7.955-7.955
	s-3.562-7.955-7.955-7.955H403.981z"/>
<path d="M279.991,349.981c-6.734-0.511-13.479-0.145-20.075,1.094l-9.478-1.548c-12.289-2.008-23.792-7.924-32.583-16.724
	l-6.455-20.854l47.159-258.499c2.836-15.547-2.772-31.692-14.637-42.133c-2.025-1.782-4.812-2.418-7.411-1.684
	c-2.596,0.73-4.644,2.727-5.442,5.304l-55.8,180.278L119.47,14.937c-0.798-2.577-2.847-4.574-5.442-5.304
	c-2.596-0.733-5.386-0.098-7.411,1.684C94.751,21.759,89.143,37.902,91.979,53.45l17.419,95.485
	c0.789,4.322,4.932,7.185,9.254,6.398c4.322-0.788,7.186-4.931,6.398-9.253l-17.42-95.485c-0.963-5.276-0.426-10.66,1.406-15.563
	l58.634,189.435c0,0,0,0,0,0.001l27.956,90.323c0,0.001,0.001,0.002,0.001,0.003l7.592,24.527c0.357,1.155,0.974,2.213,1.802,3.095
	c11.319,12.044,26.537,20.145,42.85,22.811l10.561,1.725c1.039,0.212,2.134,0.222,3.224-0.006
	c5.606-1.171,11.366-1.543,17.122-1.102c29.734,2.269,54.771,28.374,55.811,58.193c0.579,16.602-5.441,32.309-16.951,44.227
	c-11.516,11.924-26.985,18.492-43.557,18.492c-27.512,0-51.594-18.565-58.564-45.145c-0.057-0.218-0.124-0.434-0.198-0.644
	l-27.621-117.543c-0.605-2.573-2.448-4.677-4.918-5.616l-4.679-1.779c-0.003-0.001-0.006-0.003-0.01-0.004l-23.684-9l-24.602-134.87
	c-0.789-4.322-4.933-7.188-9.254-6.398c-4.322,0.788-7.186,4.931-6.398,9.253l24.982,136.94l-6.455,20.854
	c-8.79,8.8-20.292,14.716-32.581,16.724l-9.479,1.548c-6.585-1.236-13.355-1.606-20.076-1.093
	c-38.196,2.915-69.163,35.2-70.499,73.502c-0.731,20.954,6.872,40.782,21.406,55.834c14.541,15.056,34.074,23.349,55.001,23.349
	c34.38,0,64.52-22.962,73.671-55.976c0.143-0.36,0.261-0.733,0.352-1.12l24.792-105.503l24.792,105.503
	c0.091,0.386,0.209,0.76,0.352,1.12c9.153,33.014,39.292,55.976,73.671,55.976c20.927,0,40.459-8.292,55-23.349
	c14.536-15.05,22.138-34.88,21.407-55.834C349.156,385.181,318.188,352.895,279.991,349.981z M241.504,35.034
	c1.833,4.902,2.368,10.285,1.406,15.562l-41.683,228.48l-17.63-56.961L241.504,35.034z M135.217,440.967
	c-0.074,0.21-0.141,0.425-0.198,0.644c-6.969,26.581-31.051,45.145-58.564,45.145c-16.572,0-32.041-6.566-43.557-18.492
	c-11.51-11.918-17.53-27.625-16.949-44.227c1.039-29.819,26.076-55.924,55.809-58.193c1.56-0.119,3.139-0.179,4.694-0.179
	c4.172,0,8.353,0.431,12.429,1.281c1.081,0.224,2.168,0.218,3.202,0.01l10.585-1.728c16.313-2.666,31.531-10.766,42.849-22.811
	c0.828-0.88,1.445-1.94,1.802-3.095l4.977-16.082l9.717,3.693L135.217,440.967z"/>
<path d="M274.085,473.18c25.9,0,46.971-21.07,46.971-46.97c0-25.9-21.071-46.971-46.971-46.971s-46.971,21.071-46.971,46.971
	C227.114,452.11,248.185,473.18,274.085,473.18z M274.085,395.149c17.128,0,31.062,13.934,31.062,31.062
	c0,17.127-13.934,31.061-31.062,31.061c-17.128,0-31.062-13.934-31.062-31.061C243.023,409.082,256.958,395.149,274.085,395.149z"/>
<path d="M76.454,379.24c-25.899,0-46.97,21.071-46.97,46.971c0,25.9,21.071,46.97,46.97,46.97c25.9,0,46.971-21.07,46.971-46.97
	C123.425,400.311,102.354,379.24,76.454,379.24z M76.454,457.271c-17.127,0-31.061-13.934-31.061-31.061
	c0-17.128,13.934-31.062,31.061-31.062c17.128,0,31.062,13.934,31.062,31.062C107.516,443.337,93.582,457.271,76.454,457.271z"/>
<g>
</g>
<g>
</g>
<g>
</g>
<g>
</g>
<g>
</g>
<g>
</g>
<g>
</g>
<g>
</g>
<g>
</g>
<g>
</g>
<g>
</g>
<g>
</g>
<g>
</g>
<g>
</g>
<g>
</g>
</svg>
