<?xml version="1.0" encoding="iso-8859-1"?>
<!-- Generator: Adobe Illustrator 16.0.0, SVG Export Plug-In . SVG Version: 6.00 Build 0)  -->
<!DOCTYPE svg PUBLIC "-//W3C//DTD SVG 1.1//EN" "http://www.w3.org/Graphics/SVG/1.1/DTD/svg11.dtd">
<svg version="1.1" id="Capa_1" xmlns="http://www.w3.org/2000/svg" xmlns:xlink="http://www.w3.org/1999/xlink" x="0px" y="0px"
	 width="451.66px" height="451.66px" viewBox="0 0 451.66 451.66" style="enable-background:new 0 0 451.66 451.66;"
	 xml:space="preserve">
<g>
	<path d="M397.884,217.461c0.881-0.868,1.736-1.715,2.56-2.537c10.797-10.797,15.417-21.94,13.73-33.119
		c-1.75-11.611-10.229-21.74-24.521-29.292c-18.274-9.656-74.508-38.746-75.073-39.039c-3.479-1.799-7.688-1.402-10.771,1.017
		c-3.081,2.419-4.467,6.415-3.544,10.221l8.234,33.965l-66.88-14.592c-2.841-0.62-5.807,0.026-8.132,1.77l-38.365,28.773
		l-42.261-8.965l-36.938-35.517c-2.166-2.082-5.154-3.079-8.135-2.719l-98.995,12c-4.312,0.522-7.794,3.77-8.614,8.036
		c-0.822,4.266,1.204,8.574,5.014,10.661l120.526,66.045l-11.528,9.278C103.263,223.254,88.617,217,72.528,217
		c-33.719,0-61.151,27.433-61.151,61.151c0,33.72,27.434,61.151,61.151,61.151c32.589,0,59.302-25.626,61.056-57.784h34.394
		l6.84,15.801c1.584,3.659,5.188,6.027,9.177,6.027h115.494c2.417,0,4.753-0.875,6.574-2.465c1.003-0.875,10.445-9.12,23.349-20.568
		c1.145,32.721,28.104,58.989,61.097,58.989c33.721,0,61.152-27.433,61.152-61.151C451.659,246.931,428.135,221.119,397.884,217.461
		z M72.528,299.304c-11.663,0-21.151-9.488-21.151-21.15c0-11.664,9.488-21.152,21.151-21.152s21.151,9.489,21.151,21.152
		C93.68,289.815,84.191,299.304,72.528,299.304z M390.506,299.304c-11.663,0-21.15-9.488-21.15-21.15
		c0-11.664,9.487-21.152,21.15-21.152s21.152,9.489,21.152,21.152C411.659,289.815,402.169,299.304,390.506,299.304z"/>
</g>
<g>
</g>
<g>
</g>
<g>
</g>
<g>
</g>
<g>
</g>
<g>
</g>
<g>
</g>
<g>
</g>
<g>
</g>
<g>
</g>
<g>
</g>
<g>
</g>
<g>
</g>
<g>
</g>
<g>
</g>
</svg>
