<?xml version="1.0" encoding="iso-8859-1"?>
<!-- Generator: Adobe Illustrator 19.0.0, SVG Export Plug-In . SVG Version: 6.00 Build 0)  -->
<svg version="1.1" id="Layer_1" xmlns="http://www.w3.org/2000/svg" xmlns:xlink="http://www.w3.org/1999/xlink" x="0px" y="0px"
	 viewBox="0 0 512.001 512.001" style="enable-background:new 0 0 512.001 512.001;" xml:space="preserve">
<g transform="translate(0 -1)">
	<g>
		<g>
			<path d="M139.149,246.167c3.729,4.13,19.823,19.576,52.258,19.576c16.922,0,38.34-4.301,64.7-16.495
				c26.368,12.203,47.787,16.495,64.708,16.495c32.418,0,48.529-15.445,52.258-19.576c21.76-17.331,25.062-65.673,11.076-161.067
				c-0.102-0.742-0.35-1.434-0.64-2.099c-4.087-23.415-9.463-45.312-13.431-61.397c-1.289-5.248-2.458-9.95-3.388-14.003
				c-1.075-4.591-5.666-7.45-10.249-6.374c-4.591,1.067-7.45,5.649-6.383,10.249c0.956,4.104,2.133,8.883,3.447,14.208
				c3.849,15.607,9.045,36.762,13.005,59.23c-1.929,3.166-4.412,7.501-7.535,12.988c-18.219,31.915-60.134,105.225-102.869,132.053
				c-42.735-26.829-84.651-100.139-102.861-132.053c-3.234-5.666-5.794-10.155-7.748-13.338c3.951-22.332,9.114-43.349,12.945-58.88
				c1.314-5.325,2.492-10.104,3.447-14.208c1.067-4.599-1.792-9.182-6.383-10.249c-4.591-1.075-9.182,1.783-10.249,6.374
				c-0.939,4.053-2.099,8.755-3.388,14.003c-4.079,16.521-9.651,39.159-13.773,63.3c-0.009,0.026,0.009,0.06,0,0.094
				c-0.009,0.034-0.026,0.068-0.034,0.102C114.078,180.495,117.389,228.836,139.149,246.167z"/>
			<path d="M389.462,352.874c-1.929-1.621-4.463-2.304-6.955-1.877c-65.408,11.401-106.795,16.939-126.532,16.939
				s-61.124-5.538-126.532-16.939c-2.492-0.418-5.035,0.256-6.963,1.877c-1.928,1.621-3.038,4.011-3.038,6.528v34.133
				c0,4.719,3.823,8.533,8.533,8.533c71.202,0,102.434,103.748,102.741,104.798c1.067,3.635,4.403,6.135,8.192,6.135h34.133
				c3.789,0,7.125-2.5,8.192-6.135c0.299-1.05,31.539-104.798,102.741-104.798c4.71,0,8.533-3.814,8.533-8.533v-34.133
				C392.509,356.885,391.4,354.495,389.462,352.874z"/>
		</g>
	</g>
</g>
<g>
</g>
<g>
</g>
<g>
</g>
<g>
</g>
<g>
</g>
<g>
</g>
<g>
</g>
<g>
</g>
<g>
</g>
<g>
</g>
<g>
</g>
<g>
</g>
<g>
</g>
<g>
</g>
<g>
</g>
</svg>
