<?xml version="1.0" encoding="iso-8859-1"?>
<!-- Generator: Adobe Illustrator 19.0.0, SVG Export Plug-In . SVG Version: 6.00 Build 0)  -->
<svg version="1.1" id="Capa_1" xmlns="http://www.w3.org/2000/svg" xmlns:xlink="http://www.w3.org/1999/xlink" x="0px" y="0px"
	 viewBox="0 0 57 57" style="enable-background:new 0 0 57 57;" xml:space="preserve">
<polygon style="fill:#F9EAB0;" points="19.5,25 9.5,25 8.682,34 20.318,34 "/>
<polygon style="fill:#F9EAB0;" points="7.5,47 21.5,47 20.864,40 8.136,40 "/>
<polygon style="fill:#FBD490;" points="8.5,36 8.318,38 20.682,38 20.5,36 "/>
<polygon style="fill:#D6C990;" points="8.136,40 20.864,40 20.682,38 8.318,38 "/>
<polygon style="fill:#D6C990;" points="20.318,34 8.682,34 8.5,36 20.5,36 "/>
<path style="fill:#38454F;" d="M47.5,20h-12c-1.1,0-2-0.9-2-2v0c0-1.1,0.9-2,2-2h12c1.1,0,2,0.9,2,2v0C49.5,19.1,48.6,20,47.5,20z"
	/>
<path style="fill:#FBD490;" d="M19.128,3H17.5V1.372C17.5,0.614,16.886,0,16.128,0h-3.255C12.114,0,11.5,0.614,11.5,1.372V3H9.872
	C9.114,3,8.5,3.614,8.5,4.372v2.255C8.5,7.386,9.114,8,9.872,8H11.5v3h6V8h1.628C19.886,8,20.5,7.386,20.5,6.628V4.372
	C20.5,3.614,19.886,3,19.128,3z"/>
<path style="fill:#F9EAB0;" d="M20.5,20h-12l-1.597-7.187C6.696,11.882,7.404,11,8.357,11h12.286c0.953,0,1.661,0.882,1.454,1.813
	L20.5,20z"/>
<polygon style="fill:#38454F;" points="48.5,47 34.5,47 36.5,25 46.5,25 "/>
<path style="fill:#546A79;" d="M47.5,53h-12c-1.657,0-3-1.343-3-3v0c0-1.657,1.343-3,3-3h12c1.657,0,3,1.343,3,3v0
	C50.5,51.657,49.157,53,47.5,53z"/>
<path style="fill:#38454F;" d="M51.5,57h-20c-1.105,0-2-0.895-2-2v0c0-1.105,0.895-2,2-2h20c1.105,0,2,0.895,2,2v0
	C53.5,56.105,52.605,57,51.5,57z"/>
<path style="fill:#546A79;" d="M48,25H35c-1.381,0-2.5-1.119-2.5-2.5v0c0-1.381,1.119-2.5,2.5-2.5h13c1.381,0,2.5,1.119,2.5,2.5v0
	C50.5,23.881,49.381,25,48,25z"/>
<path style="fill:#FBD490;" d="M21,25H8c-1.381,0-2.5-1.119-2.5-2.5v0C5.5,21.119,6.619,20,8,20h13c1.381,0,2.5,1.119,2.5,2.5v0
	C23.5,23.881,22.381,25,21,25z"/>
<path style="fill:#FBD490;" d="M20.5,53h-12c-1.657,0-3-1.343-3-3v0c0-1.657,1.343-3,3-3h12c1.657,0,3,1.343,3,3v0
	C23.5,51.657,22.157,53,20.5,53z"/>
<path style="fill:#F9EAB0;" d="M24.5,57h-20c-1.105,0-2-0.895-2-2v0c0-1.105,0.895-2,2-2h20c1.105,0,2,0.895,2,2v0
	C26.5,56.105,25.605,57,24.5,57z"/>
<path style="fill:#546A79;" d="M50.5,5l-2.845,4.741C47.559,9.902,47.385,10,47.198,10H44.15c-0.336,0-0.589-0.308-0.523-0.638
	L44.5,5h-6l0.872,4.362C39.438,9.692,39.186,10,38.85,10h-3.048c-0.187,0-0.361-0.098-0.457-0.259L32.5,5h-4l5,11h16l5-11H50.5z"/>
<g>
</g>
<g>
</g>
<g>
</g>
<g>
</g>
<g>
</g>
<g>
</g>
<g>
</g>
<g>
</g>
<g>
</g>
<g>
</g>
<g>
</g>
<g>
</g>
<g>
</g>
<g>
</g>
<g>
</g>
</svg>
