<?xml version="1.0" encoding="iso-8859-1"?>
<!-- Generator: Adobe Illustrator 16.0.0, SVG Export Plug-In . SVG Version: 6.00 Build 0)  -->
<!DOCTYPE svg PUBLIC "-//W3C//DTD SVG 1.1//EN" "http://www.w3.org/Graphics/SVG/1.1/DTD/svg11.dtd">
<svg version="1.1" id="Capa_1" xmlns="http://www.w3.org/2000/svg" xmlns:xlink="http://www.w3.org/1999/xlink" x="0px" y="0px"
	 width="64.63px" height="64.63px" viewBox="0 0 64.63 64.63" style="enable-background:new 0 0 64.63 64.63;" xml:space="preserve"
	>
<g>
	<path d="M56.657,4.599L49.048,2.28V0l-8.046,4.366V2.955l-3.031,1.644L30.362,2.28V0L4.941,13.79v47.881l10.645,2.956l8.042-4.365
		v1.409l10.645,2.959l25.416-13.789V2.958L56.657,4.599z M30.362,8.193l-1.168,0.593l-13.709,6.962l-6.914-1.923L29.129,2.877
		l0.065,0.022l1.168,0.354l6.078,1.852L30.362,8.193z M49.048,8.193L47.88,8.787l-6.878,3.495l-6.83,3.47l-3.81-1.059l-1.168-0.325
		l-1.937-0.537l1.937-1.03l1.168-0.624l10.64-5.664l6.816-3.63l0.062,0.021l1.168,0.354l6.079,1.853L49.048,8.193z"/>
</g>
<g>
</g>
<g>
</g>
<g>
</g>
<g>
</g>
<g>
</g>
<g>
</g>
<g>
</g>
<g>
</g>
<g>
</g>
<g>
</g>
<g>
</g>
<g>
</g>
<g>
</g>
<g>
</g>
<g>
</g>
</svg>
