<?xml version="1.0" encoding="iso-8859-1"?>
<!-- Generator: Adobe Illustrator 18.1.1, SVG Export Plug-In . SVG Version: 6.00 Build 0)  -->
<svg version="1.1" id="Capa_1" xmlns="http://www.w3.org/2000/svg" xmlns:xlink="http://www.w3.org/1999/xlink" x="0px" y="0px"
	 viewBox="0 0 36.454 36.454" style="enable-background:new 0 0 36.454 36.454;" xml:space="preserve">
<g>
	<path style="fill:#010002;" d="M35.599,33.64c-0.392-0.608-0.88-1.364-1.298-2.254c-0.29-0.619-0.5-1.262-0.623-1.914
		c-0.215-1.137,0.109-2.92,0.395-4.492c0.193-1.062,0.375-2.063,0.42-2.928c0.109-2.115-0.179-4.151-0.855-6.054
		c-0.77-2.164-2.645-4.413-3.63-5.4c-0.485-0.486-0.356-1.435,0.28-2.073C30.813,8,31.239,7.623,31.534,7.382
		c0.166,0.105,0.367,0.167,0.56,0.167c0.897,0,1.218-0.948,1.47-1.919c0.02-0.05,0.141-0.278,0.221-0.429
		c0.405-0.766,0.826-1.559,0.191-2.193c-0.207-0.206-0.488-0.32-0.792-0.32c-0.405,0-0.801,0.195-1.405,0.516
		c-0.149,0.08-0.377,0.2-0.451,0.227c-1.365,0.359-1.724,0.723-1.851,1.193c-0.073,0.271-0.022,0.58,0.125,0.823
		c-0.241,0.294-0.62,0.72-1.146,1.246c-0.344,0.344-0.797,0.541-1.246,0.541c-0.256,0-0.625-0.064-0.928-0.367l-1.706-1.709
		c-0.022-0.022-0.045-0.043-0.068-0.062l-0.076-0.062c-0.019-0.015-0.038-0.03-0.057-0.044c-2.599-1.859-5.582-2.802-8.866-2.802
		c-0.296,0-0.583,0.008-0.86,0.022c-0.869,0.045-1.876,0.229-2.942,0.424c-1.261,0.231-2.566,0.469-3.631,0.469
		c-0.323,0-0.609-0.023-0.85-0.067c-2.915-0.54-4.569-2.573-4.638-2.66C2.398,0.139,2.111,0,1.807,0c-0.351,0-0.42,0.055-1.08,0.579
		L0.494,0.763C0.24,0.964,0.093,1.269,0.09,1.602C0.082,2.523,1.262,3.539,1.499,3.733C1.9,4.062,3.981,5.784,5.609,7.412
		l11.354,11.354l0.642,0.644l11.679,11.679c1.633,1.633,3.352,3.715,3.68,4.114c0.632,0.772,1.451,1.251,2.14,1.251
		c0.414,0,0.774-0.167,1.015-0.469C36.664,35.292,36.218,34.599,35.599,33.64z M18.554,15.759c-0.43-0.035-1.406-0.473-2.503-1.571
		L8.623,6.76C8.46,6.599,8.33,6.46,8.227,6.341c0.135,0.005,0.271,0.008,0.408,0.008c0.918,0,1.86-0.115,2.799-0.342
		c0.018-0.004,0.037-0.009,0.055-0.015l0.064-0.019c0.019-0.006,0.038-0.012,0.057-0.019c0.007-0.002,1.625-0.563,3.884-0.563
		c1.33,0,2.612,0.193,3.811,0.573c1.822,0.578,3.839,2.264,4.744,3.168c0.455,0.455,0.133,1.833-0.963,2.929
		c-1.402,1.402-2.397,2.233-2.697,2.431C19.757,14.666,19.014,15.31,18.554,15.759z M30.744,25.103l-0.035,0.109
		c-0.006,0.018-0.01,0.036-0.016,0.055c-0.26,1.08-0.373,2.158-0.334,3.209c-0.119-0.104-0.258-0.234-0.421-0.396l-7.148-7.148
		c-1.122-1.123-1.565-2.143-1.576-2.498c0.449-0.461,1.098-1.207,1.272-1.841c0.198-0.3,1.029-1.295,2.431-2.697
		c0.908-0.908,1.836-1.23,2.355-1.23c0.139,0,0.329,0.022,0.434,0.128c0.795,0.794,2.451,2.779,3.029,4.605
		C32.01,21.412,30.757,25.066,30.744,25.103z"/>
</g>
<g>
</g>
<g>
</g>
<g>
</g>
<g>
</g>
<g>
</g>
<g>
</g>
<g>
</g>
<g>
</g>
<g>
</g>
<g>
</g>
<g>
</g>
<g>
</g>
<g>
</g>
<g>
</g>
<g>
</g>
</svg>
