<?xml version="1.0" encoding="iso-8859-1"?>
<!-- Generator: Adobe Illustrator 17.1.0, SVG Export Plug-In . SVG Version: 6.00 Build 0)  -->
<!DOCTYPE svg PUBLIC "-//W3C//DTD SVG 1.1//EN" "http://www.w3.org/Graphics/SVG/1.1/DTD/svg11.dtd">
<svg version="1.1" id="Capa_1" xmlns="http://www.w3.org/2000/svg" xmlns:xlink="http://www.w3.org/1999/xlink" x="0px" y="0px"
	 viewBox="0 0 431.688 431.688" style="enable-background:new 0 0 431.688 431.688;" xml:space="preserve">
<path d="M320.307,233.587c-10.635,0-20.882,1.692-30.492,4.809c-5.156-23.046-15.824-38.255-25.484-52.024
	c-12.617-17.984-23.515-33.518-19.672-62.801c1.625-12.354,3.933-24.116,6.164-35.49c7.606-38.771,14.176-72.255-19.447-85.016
	c-6.651-2.516-12.153-2.971-13.681-3.051L217.428,0l-0.268,0.015c-1.528,0.084-7.028,0.552-13.637,3.052
	c-33.604,12.753-27.054,46.217-19.468,84.966c2.229,11.388,4.535,23.164,6.154,35.54c3.865,29.291-7.03,44.825-19.646,62.812
	c-6.117,8.721-12.637,18.023-17.906,29.524c-5.272-11.508-11.796-20.812-17.917-29.537c-12.617-17.984-23.514-33.517-19.671-62.801
	c1.625-12.354,3.932-24.115,6.164-35.489c7.606-38.771,14.175-72.256-19.448-85.017c-6.651-2.516-12.153-2.971-13.681-3.051
	L87.836,0l-0.268,0.015c-1.528,0.084-7.028,0.552-13.637,3.052C40.327,15.819,46.878,49.284,54.464,88.033
	c2.229,11.388,4.535,23.163,6.154,35.539c3.865,29.291-7.03,44.825-19.646,62.812c-12.335,17.587-26.316,37.52-28.352,73.135
	c-2.99,52.522,17.951,104.381,30.7,130.617c4.194,8.64,15.296,15.406,25.274,15.406h38.534c9.958,0,21.044-6.767,25.236-15.399
	c6.065-12.442,13.978-30.67,20.296-52.016c6.307,21.327,14.2,39.557,20.251,52.009c4.195,8.64,15.297,15.406,25.274,15.406h38.534
	c4.35,0,8.914-1.292,13.026-3.466c17.978,18.266,42.968,29.612,70.562,29.612c54.617,0,99.051-44.434,99.051-99.051
	S374.924,233.587,320.307,233.587z M337.09,349.419c-8.402,0-15.213-6.811-15.213-15.213c0-8.402,6.811-15.214,15.213-15.214
	c8.402,0,15.214,6.811,15.214,15.214C352.304,342.608,345.492,349.419,337.09,349.419z M352.484,302.759
	c-8.402,0-15.213-6.812-15.213-15.214s6.811-15.214,15.213-15.214c8.402,0,15.214,6.812,15.214,15.214
	S360.887,302.759,352.484,302.759z M382.911,342.176c-8.402,0-15.214-6.812-15.214-15.214s6.811-15.214,15.214-15.214
	s15.214,6.812,15.214,15.214S391.314,342.176,382.911,342.176z"/>
<g>
</g>
<g>
</g>
<g>
</g>
<g>
</g>
<g>
</g>
<g>
</g>
<g>
</g>
<g>
</g>
<g>
</g>
<g>
</g>
<g>
</g>
<g>
</g>
<g>
</g>
<g>
</g>
<g>
</g>
</svg>
