<?xml version="1.0" encoding="iso-8859-1"?>
<!-- Generator: Adobe Illustrator 16.0.0, SVG Export Plug-In . SVG Version: 6.00 Build 0)  -->
<!DOCTYPE svg PUBLIC "-//W3C//DTD SVG 1.1//EN" "http://www.w3.org/Graphics/SVG/1.1/DTD/svg11.dtd">
<svg version="1.1" id="Capa_1" xmlns="http://www.w3.org/2000/svg" xmlns:xlink="http://www.w3.org/1999/xlink" x="0px" y="0px"
	 width="441.498px" height="441.498px" viewBox="0 0 441.498 441.498" style="enable-background:new 0 0 441.498 441.498;"
	 xml:space="preserve">
<g>
	<g>
		<path d="M392.38,134.1c-15.354-8.815-32.073-12.998-48.578-12.998c-29.277,0-57.836,13.166-76.773,37.039
			c7.521,7.938,12.786,17.83,14.628,28.92c0.814,5.106-2.646,9.92-7.753,10.783c-0.505,0.078-1.01,0.124-1.524,0.124
			c-4.49,0-8.472-3.262-9.213-7.876c-1.83-10.982-8.396-20.442-18.007-25.998c-5.771-3.307-12.08-4.873-18.293-4.873
			c-5.558,0-11.045,1.246-16.029,3.61c-6.354,3.187-11.893,8.172-15.689,14.8c-12.25,21.336,6.66,58.13,3.41,103.787
			c-10.674,2.707-20.32,9.336-25.929,19.104c-11.434,19.892-4.558,45.408,15.366,56.884l106.225,61.054
			c6.357,3.613,13.558,5.506,20.802,5.506c2.2,0,4.416-0.17,6.6-0.521c12.459-2.017,23.197-9.431,29.438-20.351
			c6.772-11.768,6.987-25.459,2.032-37.072l68.502-87.973l-0.019-0.048c2.465-3.245,4.815-6.614,6.891-10.259
			C455.402,220.889,439.232,161.035,392.38,134.1z M330.851,391.478c-3.323,5.735-9.753,9.027-16.197,9.027
			c-3.044,0-6.109-0.736-8.835-2.289l-106.195-61.009c-8.768-5.061-11.831-16.318-6.769-25.044
			c2.754-4.826,7.492-8.088,12.966-8.966c1.018-0.17,2.019-0.243,3-0.243c3.171,0,6.231,0.827,9.04,2.429l106.217,61.038
			C332.833,371.496,335.897,382.712,330.851,391.478z"/>
		<g>
			<path d="M158.969,292.678c0.794-1.384,1.783-2.63,2.687-3.936l-49.191,11.273c-1.37,0.307-2.731,0.461-4.093,0.461
				c-8.384,0-15.98-5.771-17.888-14.244c-1.264-5.416,0-11.014,3.428-15.385c2.62-3.367,6.167-5.613,10.324-6.582l77.252-17.691
				c-0.82-6.381-1.77-12.613-2.724-18.457c-3.63-22.413-6.768-41.778,2.724-58.329c5.2-9.062,12.918-16.337,22.58-21.169
				c7.075-3.383,14.969-5.15,22.799-5.15c3.939,0,7.826,0.521,11.643,1.398l-3.335-39.039l-0.05-0.031
				c-0.401-4.047-0.956-8.123-1.907-12.215c-10.383-45.33-50.715-76.049-95.336-76.049c-7.234,0-14.569,0.814-21.926,2.491
				c-47.85,10.967-79.293,55.283-75.666,102.784c10.924,0.725,21.496,4.416,30.385,11.291c4.059,3.198,4.796,9.092,1.625,13.184
				c-1.842,2.352-4.594,3.598-7.381,3.598c-2.012,0-4.045-0.646-5.755-1.982c-6.581-5.108-14.532-7.784-22.651-7.784
				c-2.738,0-5.496,0.308-8.232,0.923c-12.262,2.83-21.69,11.507-26.029,22.396c-2.504,6.646-2.8,13.997-1.474,21.507
				c5.397,30.641,44.376,38.148,73.005,73.866c-5.985,9.229-8.568,20.645-6.045,31.625c4.414,19.26,21.627,32.366,40.636,32.366
				c3.062,0,6.171-0.338,9.276-1.047l34.105-7.813C152.58,307.307,154.906,299.736,158.969,292.678z"/>
		</g>
	</g>
</g>
<g>
</g>
<g>
</g>
<g>
</g>
<g>
</g>
<g>
</g>
<g>
</g>
<g>
</g>
<g>
</g>
<g>
</g>
<g>
</g>
<g>
</g>
<g>
</g>
<g>
</g>
<g>
</g>
<g>
</g>
</svg>
