<?xml version="1.0" encoding="iso-8859-1"?>
<!-- Generator: Adobe Illustrator 19.0.0, SVG Export Plug-In . SVG Version: 6.00 Build 0)  -->
<svg version="1.1" id="Layer_1" xmlns="http://www.w3.org/2000/svg" xmlns:xlink="http://www.w3.org/1999/xlink" x="0px" y="0px"
	 viewBox="0 0 512.001 512.001" style="enable-background:new 0 0 512.001 512.001;" xml:space="preserve">
<path style="fill:#AF6518;" d="M504.365,188.608c-0.245-6.709-2.354-12.94-5.83-18.194c-12.653-21.577-47.477-44.879-120.392-44.879
	H133.859c72.914,0,107.739,23.302,120.391,44.879c3.477,5.255,5.585,11.485,5.83,18.194c0.019,0.444,0.032,0.881,0.032,1.313
	c0,15.284-9.685,28.305-23.252,33.262c-3.424,1.36-7.085,2.14-10.897,2.14v161.144h244.285V225.323c3.811,0,7.473-0.781,10.896-2.14
	c13.568-4.958,23.252-17.978,23.252-33.262C504.398,189.49,504.385,189.052,504.365,188.608z"/>
<path style="fill:#E0A03D;" d="M96.519,386.467h129.446V225.323c3.811,0,7.473-0.781,10.897-2.14
	c13.567-4.958,23.252-17.978,23.252-33.262c0-0.432-0.013-0.869-0.032-1.313c-0.245-6.709-2.354-12.94-5.83-18.194
	c-12.652-21.577-47.477-44.879-120.391-44.879c-72.916,0-107.739,23.302-120.392,44.879c-3.477,5.255-5.585,11.485-5.83,18.194
	c-0.019,0.444-0.032,0.881-0.032,1.313c0,15.284,9.685,28.305,23.251,33.262c3.424,1.36,7.085,2.14,10.897,2.14v161.144H75.39"/>
<g>
	<path style="fill:#491E17;" d="M511.962,188.33c-0.287-7.824-2.696-15.404-6.973-21.936c-5.658-9.572-17.352-23.085-40.996-33.471
		c-22.644-9.947-51.529-14.99-85.852-14.99H133.859c-34.324,0-63.209,5.044-85.852,14.99c-23.644,10.387-35.338,23.9-40.996,33.471
		c-4.276,6.532-6.686,14.112-6.97,21.874C0.015,188.827,0,189.377,0,189.921c0,17.958,11.307,34.166,28.147,40.366
		c1.978,0.779,3.982,1.388,6.002,1.824v161.958h41.24v-15.205H49.352V217.721H41.75c-2.69,0-5.412-0.539-8.09-1.604l-0.197-0.074
		c-10.921-3.992-18.259-14.489-18.259-26.123c0-0.32,0.01-0.645,0.027-1.035c0.187-5.101,1.768-10.037,4.574-14.277l0.218-0.35
		c7.251-12.364,32.858-41.122,113.835-41.122c80.978,0,106.583,28.758,113.834,41.122l0.218,0.35
		c2.806,4.24,4.387,9.176,4.576,14.338c0.015,0.328,0.025,0.654,0.025,0.973c0,3.635-0.717,7.159-2.035,10.41
		c-2.901,7.149-8.715,12.969-16.223,15.711l-0.098,0.038l-0.098,0.038c-2.008,0.798-4.042,1.301-6.068,1.502
		c-0.675,0.067-1.35,0.101-2.022,0.101h-7.602v161.144H96.519v15.205h121.844h15.205h244.285V232.11
		c2.02-0.436,4.024-1.043,6.001-1.824c16.84-6.199,28.148-22.409,28.148-40.366C512,189.377,511.985,188.827,511.962,188.33z
		 M478.537,216.042l-0.199,0.076c-2.677,1.063-5.399,1.603-8.088,1.603h-7.602h-93.552v15.205h93.552v145.939h-229.08V232.11
		c2.019-0.436,4.023-1.043,6-1.823c16.841-6.199,28.148-22.409,28.148-40.367c0-0.543-0.015-1.094-0.037-1.59
		c-0.043-1.167-0.148-2.325-0.284-3.48c-0.435-3.68-1.327-7.28-2.678-10.709c-1.065-2.702-2.406-5.298-4.01-7.748
		c-0.699-1.184-1.493-2.429-2.389-3.721c-0.003-0.004-0.005-0.008-0.008-0.012c-0.163-0.235-0.335-0.474-0.505-0.713
		c-0.066-0.093-0.13-0.186-0.197-0.278c-0.146-0.202-0.298-0.405-0.449-0.61c-0.097-0.131-0.191-0.26-0.29-0.392
		c-0.146-0.194-0.298-0.39-0.448-0.585c-0.11-0.144-0.218-0.287-0.331-0.433c-0.141-0.179-0.289-0.361-0.433-0.542
		c-0.131-0.163-0.257-0.326-0.392-0.491c-0.144-0.176-0.294-0.355-0.442-0.532c-0.141-0.169-0.279-0.338-0.423-0.508
		c-0.151-0.178-0.309-0.359-0.464-0.537c-0.149-0.173-0.295-0.346-0.448-0.519c-0.147-0.166-0.3-0.335-0.451-0.503
		c-0.169-0.189-0.336-0.376-0.51-0.567c-0.145-0.158-0.297-0.318-0.445-0.477c-0.186-0.198-0.368-0.396-0.558-0.596
		c-0.154-0.161-0.315-0.323-0.471-0.486c-0.193-0.199-0.382-0.397-0.58-0.596c-0.162-0.162-0.33-0.325-0.495-0.489
		c-0.202-0.2-0.401-0.399-0.608-0.599c-0.163-0.159-0.335-0.318-0.501-0.477c-0.216-0.206-0.43-0.411-0.652-0.616
		c-0.172-0.16-0.351-0.321-0.527-0.482c-0.223-0.204-0.445-0.407-0.673-0.613c-0.184-0.164-0.377-0.33-0.566-0.495
		c-0.229-0.202-0.455-0.401-0.689-0.603c-0.195-0.167-0.396-0.335-0.594-0.502c-0.236-0.199-0.47-0.397-0.712-0.597
		c-0.208-0.171-0.423-0.342-0.633-0.512c-0.242-0.196-0.481-0.391-0.728-0.586c-0.217-0.172-0.441-0.343-0.662-0.515
		c-0.251-0.195-0.501-0.39-0.757-0.584c-0.225-0.171-0.457-0.342-0.686-0.513c-0.261-0.194-0.52-0.388-0.787-0.582
		c-0.237-0.173-0.484-0.346-0.725-0.519c-0.268-0.191-0.532-0.381-0.805-0.572c-0.249-0.173-0.506-0.347-0.759-0.52
		c-0.277-0.19-0.549-0.377-0.831-0.567c-0.263-0.175-0.533-0.35-0.8-0.525c-0.281-0.183-0.559-0.367-0.845-0.55
		c-0.28-0.179-0.568-0.358-0.851-0.535c-0.285-0.179-0.569-0.357-0.859-0.535c-0.291-0.178-0.59-0.357-0.886-0.533
		c-0.294-0.176-0.586-0.353-0.885-0.527c-0.306-0.18-0.619-0.358-0.93-0.535c-0.3-0.172-0.598-0.346-0.904-0.516
		c-0.317-0.178-0.642-0.355-0.965-0.53c-0.31-0.17-0.619-0.342-0.935-0.511c-0.331-0.177-0.671-0.354-1.009-0.529
		c-0.316-0.165-0.63-0.331-0.952-0.496c-0.347-0.176-0.7-0.352-1.053-0.527c-0.324-0.161-0.648-0.324-0.978-0.487
		c-0.36-0.174-0.727-0.348-1.092-0.521c-0.333-0.159-0.665-0.318-1.004-0.475c-0.375-0.174-0.758-0.347-1.139-0.519
		c-0.268-0.121-0.529-0.243-0.8-0.364h157.947c80.977,0,106.583,28.758,113.835,41.122l0.218,0.35
		c2.806,4.24,4.387,9.177,4.576,14.338c0.015,0.328,0.025,0.654,0.025,0.973C496.795,201.554,489.458,212.051,478.537,216.042z"/>
	<rect x="301.478" y="217.721" style="fill:#491E17;" width="46.485" height="15.205"/>
	<path style="fill:#491E17;" d="M233.468,182.604c-4.535-7.736-25.119-32.975-99.61-32.975v15.205
		c69.559,0,84.965,22.854,86.493,25.46L233.468,182.604z"/>
</g>
<g>
</g>
<g>
</g>
<g>
</g>
<g>
</g>
<g>
</g>
<g>
</g>
<g>
</g>
<g>
</g>
<g>
</g>
<g>
</g>
<g>
</g>
<g>
</g>
<g>
</g>
<g>
</g>
<g>
</g>
</svg>
