<?xml version="1.0" encoding="iso-8859-1"?>
<!-- Generator: Adobe Illustrator 16.0.0, SVG Export Plug-In . SVG Version: 6.00 Build 0)  -->
<!DOCTYPE svg PUBLIC "-//W3C//DTD SVG 1.1//EN" "http://www.w3.org/Graphics/SVG/1.1/DTD/svg11.dtd">
<svg version="1.1" id="Capa_1" xmlns="http://www.w3.org/2000/svg" xmlns:xlink="http://www.w3.org/1999/xlink" x="0px" y="0px"
	 width="31.986px" height="31.986px" viewBox="0 0 31.986 31.986" style="enable-background:new 0 0 31.986 31.986;"
	 xml:space="preserve">
<g>
	<g>
		<path d="M0,18.433v8.05c0,1.354,1.1,2.453,2.455,2.453h27.077c1.356,0,2.454-1.099,2.454-2.453v-8.125l-15.989,2.252L0,18.433z"/>
		<path d="M22.749,7.583V7.565V5.507c0-1.357-1.101-2.456-2.455-2.456h-9.123c-1.356,0-2.455,1.099-2.455,2.456v2.058v0.018H2.455
			C1.1,7.583,0,8.682,0,10.039v6.002l15.99,2.177l15.996-2.255v-5.924c0-1.356-1.1-2.456-2.454-2.456H22.749z M19.611,12.289v2.963
			h-7.147v-2.963V11.68h7.147V12.289z M20.395,7.565v0.018h-9.327V7.565V6.687c0-0.708,0.573-1.281,1.281-1.281h6.764
			c0.709,0,1.281,0.574,1.281,1.281V7.565L20.395,7.565z"/>
	</g>
</g>
<g>
</g>
<g>
</g>
<g>
</g>
<g>
</g>
<g>
</g>
<g>
</g>
<g>
</g>
<g>
</g>
<g>
</g>
<g>
</g>
<g>
</g>
<g>
</g>
<g>
</g>
<g>
</g>
<g>
</g>
</svg>
