<?xml version="1.0" encoding="iso-8859-1"?>
<!-- Generator: Adobe Illustrator 19.0.0, SVG Export Plug-In . SVG Version: 6.00 Build 0)  -->
<svg version="1.1" id="Layer_1" xmlns="http://www.w3.org/2000/svg" xmlns:xlink="http://www.w3.org/1999/xlink" x="0px" y="0px"
	 viewBox="0 0 512 512" style="enable-background:new 0 0 512 512;" xml:space="preserve">
<path style="fill:#98E1E2;" d="M311.383,453.773L256,475.953l-55.383-22.18c0-23.122,14.184-42.94,34.334-51.224v-76.431h42.097
	v76.431C297.199,410.833,311.383,430.651,311.383,453.773z"/>
<g>
	<path style="fill:#74D1D2;" d="M378.931,474.045c-4.957-11.145-18.986-20.272-31.185-20.272H164.254
		c-12.199,0-26.227,9.127-31.185,20.272l-13.175,29.632h272.211L378.931,474.045z"/>
	<path style="fill:#74D1D2;" d="M178.693,315.028c0,18.376,14.905,33.269,33.269,33.269h88.075
		c18.365,0,33.269-14.894,33.269-33.269L256,303.939L178.693,315.028z"/>
</g>
<polygon style="fill:#EF5352;" points="463.745,292.849 48.255,292.849 48.255,125.514 255.989,88.131 463.745,125.514 "/>
<path style="fill:#C8FEFF;" d="M491.659,281.759H20.341c-9.182,0-16.635,7.452-16.635,16.635c0,9.193,7.452,16.635,16.635,16.635
	h471.317c9.182,0,16.635-7.441,16.635-16.635C508.293,289.211,500.841,281.759,491.659,281.759z"/>
<g>
	<path style="fill:#EF5352;" d="M401.931,47.797v0.089l-33.269,22.18l-33.269-22.18v-0.089c0-18.365,33.269-33.269,33.269-33.269
		S401.931,29.432,401.931,47.797z"/>
	<path style="fill:#EF5352;" d="M303.808,47.797v0.089L256,70.065l-47.808-22.18v-0.089C208.192,21.403,256,0,256,0
		S303.808,21.403,303.808,47.797z"/>
	<path style="fill:#EF5352;" d="M176.608,47.797v0.089l-33.269,22.18l-33.269-22.18v-0.089c0-18.365,33.269-33.269,33.269-33.269
		S176.608,29.432,176.608,47.797z"/>
</g>
<path style="fill:#8E4238;" d="M419.386,47.886H92.614c-24.398,0-44.359,19.962-44.359,44.359v33.269
	c27.957,0,33.336,19.019,52.61,26.327v45.79c0,9.182,7.441,16.635,16.635,16.635c9.182,0,16.635-7.452,16.635-16.635v-45.79
	c19.263-7.319,24.642-26.327,52.61-26.327c34.622,0,34.622,29.155,69.245,29.155s34.622-29.155,69.245-29.155
	c34.633,0,34.633,29.155,69.256,29.155c34.633,0,34.633-29.155,69.256-29.155V92.245C463.745,67.847,443.784,47.886,419.386,47.886z
	"/>
<g>
	<circle style="fill:#700D00;" cx="370.434" cy="238.708" r="8.317"/>
	<circle style="fill:#700D00;" cx="403.703" cy="205.439" r="8.317"/>
</g>
<path style="fill:#98E1E2;" d="M414.282,512H97.718c-4.593,0-8.317-3.723-8.317-8.317s3.724-8.317,8.317-8.317h316.563
	c4.593,0,8.317,3.723,8.317,8.317S418.876,512,414.282,512z"/>
<g>
</g>
<g>
</g>
<g>
</g>
<g>
</g>
<g>
</g>
<g>
</g>
<g>
</g>
<g>
</g>
<g>
</g>
<g>
</g>
<g>
</g>
<g>
</g>
<g>
</g>
<g>
</g>
<g>
</g>
</svg>
