<?xml version="1.0" encoding="iso-8859-1"?>
<!-- Generator: Adobe Illustrator 19.0.0, SVG Export Plug-In . SVG Version: 6.00 Build 0)  -->
<svg version="1.1" id="Layer_1" xmlns="http://www.w3.org/2000/svg" xmlns:xlink="http://www.w3.org/1999/xlink" x="0px" y="0px"
	 viewBox="0 0 512 512" style="enable-background:new 0 0 512 512;" xml:space="preserve">
<path style="fill:#51C0C2;" d="M256,124.607c-4.767,0-8.629-3.862-8.629-8.629c0-50.933,41.437-92.369,92.369-92.369
	c4.767,0,8.629,3.862,8.629,8.629c0,4.767-3.862,8.629-8.629,8.629c-41.417,0-75.111,33.694-75.111,75.111
	C264.629,120.745,260.767,124.607,256,124.607z"/>
<path style="fill:#98E1E2;" d="M20.135,448.122l6.765,23.679c2.612,9.124,12.507,16.591,21.999,16.591h414.202
	c9.492,0,19.387-7.467,21.999-16.591l6.765-23.679H20.135z"/>
<path style="fill:#B75548;" d="M440.09,312.632v67.745H54.652c0-16.936-9.204-16.936-9.204-33.873s9.204-16.936,9.204-33.873H440.09
	z"/>
<g>
	<path style="fill:#F7CD95;" d="M440.09,380.377v67.745H54.652c0-16.936-9.204-16.936-9.204-33.873s9.204-16.936,9.204-33.873
		H440.09z"/>
	<path style="fill:#F7CD95;" d="M440.09,244.898v67.734H54.652c0-16.936-9.204-16.936-9.204-33.861
		c0-16.936,9.204-16.936,9.204-33.873L440.09,244.898L440.09,244.898z"/>
</g>
<path style="fill:#8E4238;" d="M474.607,233.393v214.729H440.09v-67.745v-67.745v-67.734H54.652
	c-9.527,0-17.258-7.732-17.258-17.258c0-9.538,7.732-17.258,17.258-17.258H256h195.596
	C464.252,210.381,474.607,220.736,474.607,233.393z"/>
<path style="fill:#51C0C2;" d="M503.371,456.755H8.629c-4.767,0-8.629-3.862-8.629-8.629s3.862-8.629,8.629-8.629h494.742
	c4.767,0,8.629,3.862,8.629,8.629S508.138,456.755,503.371,456.755z"/>
<path style="fill:#EF5352;" d="M269.991,113.55c22.873,0,41.42,18.547,41.42,41.42c0,30.605-24.806,55.411-55.411,55.411
	s-55.411-24.806-55.411-55.411c0-22.873,18.547-41.42,41.42-41.42c4.913,0,9.619,0.863,13.991,2.428
	C260.372,114.413,265.078,113.55,269.991,113.55z"/>
<g>
</g>
<g>
</g>
<g>
</g>
<g>
</g>
<g>
</g>
<g>
</g>
<g>
</g>
<g>
</g>
<g>
</g>
<g>
</g>
<g>
</g>
<g>
</g>
<g>
</g>
<g>
</g>
<g>
</g>
</svg>
