<?xml version="1.0" ?><!DOCTYPE svg  PUBLIC '-//W3C//DTD SVG 1.1//EN'  'http://www.w3.org/Graphics/SVG/1.1/DTD/svg11.dtd'><svg width="50px" height="50px" viewBox="0 0 50 50" enable-background="new 0 0 50 50" version="1.1" xml:space="preserve" xmlns="http://www.w3.org/2000/svg" xmlns:xlink="http://www.w3.org/1999/xlink"><g id="Layer_23"/><g id="Layer_22"/><g id="Layer_21"/><g id="Layer_20"/><g id="Layer_19"/><g id="Layer_18"><path clip-rule="evenodd" d="M30.074,13.089c-1.074-2.778-4.827-3.94-7.368-2.479l-0.465,0.269   c-0.221-3.605,0.07-6.918,0.567-10.494L20.032,0c-0.435,3.133-0.733,6.159-0.659,9.324l-4.509-7.81L12.44,2.908l4.461,7.738   c-2.691-1.658-5.446-2.873-8.399-3.997L7.503,9.271c3.397,1.293,6.377,2.66,9.386,4.698l-0.456,0.264   c-2.343,1.329-3.332,4.694-1.974,7.045c0.329,0.571,0.927,1.198,1.346,1.691l5.217-3.026l1.239,2.139l-4.83,2.802l7.58,8.919   l5.456-3.208l1.249,2.13l-5.081,2.988L38.778,50l3.719-2.138c-3.185-8.183-5.903-16.497-8.784-24.783l-4.87,2.86l-1.249-2.13   l5.286-3.106C31.98,18.159,31.052,15.62,30.074,13.089" fill-rule="evenodd"/></g><g id="Layer_17"/><g id="Layer_16"/><g id="Layer_15"/><g id="Layer_14"/><g id="Layer_13"/><g id="Layer_12"/><g id="Layer_11"/><g id="Layer_10"/><g id="Layer_9"/><g id="Layer_8"/><g id="Layer_7"/><g id="Layer_6"/><g id="Layer_5"/><g id="Layer_4"/><g id="Layer_3"/><g id="Layer_2"/></svg>