<?xml version="1.0" encoding="iso-8859-1"?>
<!-- Generator: Adobe Illustrator 19.0.0, SVG Export Plug-In . SVG Version: 6.00 Build 0)  -->
<svg version="1.1" id="Capa_1" xmlns="http://www.w3.org/2000/svg" xmlns:xlink="http://www.w3.org/1999/xlink" x="0px" y="0px"
	 viewBox="0 0 490.012 490.012" style="enable-background:new 0 0 490.012 490.012;" xml:space="preserve">
<g>
	<g>
		<g>
			<path d="M449.931,233.137c-53.3,53.3-258.6,179.7-315.8,122.5c-55.2-55.2,69.3-262.5,122.6-315.7s140-53.3,193.3,0
				S503.231,179.938,449.931,233.137z"/>
			<path d="M80.531,442.038l59.1-59.1c-7.4-3.1-14-7.8-19.4-13.2c-5.4-5.4-9.7-12.1-13.2-19.4l-59.1,59.1c-0.8-0.8-1.6-1.9-2.3-2.7
				c-10.5-10.5-27.2-10.5-37.7,0s-10.5,27.2,0,37.7c9.7,9.7,25.3,10.5,35.8,1.9c-8.6,10.5-7.8,26.1,1.9,35.8
				c10.5,10.5,27.2,10.5,37.7,0s10.5-27.2,0-37.7C82.431,443.538,81.331,442.737,80.531,442.038z"/>
		</g>
	</g>
</g>
<g>
</g>
<g>
</g>
<g>
</g>
<g>
</g>
<g>
</g>
<g>
</g>
<g>
</g>
<g>
</g>
<g>
</g>
<g>
</g>
<g>
</g>
<g>
</g>
<g>
</g>
<g>
</g>
<g>
</g>
</svg>
