<?xml version="1.0" encoding="iso-8859-1"?>
<!-- Generator: Adobe Illustrator 16.0.0, SVG Export Plug-In . SVG Version: 6.00 Build 0)  -->
<!DOCTYPE svg PUBLIC "-//W3C//DTD SVG 1.1//EN" "http://www.w3.org/Graphics/SVG/1.1/DTD/svg11.dtd">
<svg version="1.1" id="Capa_1" xmlns="http://www.w3.org/2000/svg" xmlns:xlink="http://www.w3.org/1999/xlink" x="0px" y="0px"
	 width="37.687px" height="37.687px" viewBox="0 0 37.687 37.687" style="enable-background:new 0 0 37.687 37.687;"
	 xml:space="preserve">
<g>
	<path d="M36.577,21.175c0,9.104-7.407,16.512-16.512,16.512c-9.078,0-16.466-7.364-16.509-16.434H1.109l3.67-5.505l3.668,5.505
		H6.309c0.043,7.551,6.195,13.682,13.757,13.682c7.586,0,13.76-6.172,13.76-13.76s-6.174-13.76-13.76-13.76
		c-0.762,0-1.377-0.616-1.377-1.376c0-0.76,0.615-1.376,1.377-1.376C29.17,4.662,36.577,12.071,36.577,21.175z M20.066,31.419
		c-5.647,0-10.244-4.597-10.244-10.244c0-0.254-0.205-0.459-0.459-0.459c-0.252,0-0.457,0.205-0.457,0.459
		c0,6.153,5.006,11.162,11.16,11.162s11.16-5.009,11.16-11.162c0-6.155-5.006-11.163-11.16-11.163c-0.254,0-0.459,0.206-0.459,0.459
		c0,0.254,0.205,0.459,0.459,0.459c5.648,0,10.244,4.596,10.244,10.245C30.311,26.824,25.715,31.419,20.066,31.419z M14.769,27.869
		c0.27,0.271,0.621,0.404,0.975,0.404c0.353,0,0.703-0.137,0.973-0.404l4.322-4.321c0.26-0.258,0.404-0.608,0.404-0.974V14.79
		c0-0.76-0.617-1.376-1.377-1.376s-1.375,0.616-1.375,1.376v7.214l-3.922,3.92C14.232,26.462,14.232,27.333,14.769,27.869z
		 M16.681,8.138c0.63,0.532,0.947,1.508,0.947,2.924c0,1.526-0.344,2.597-1.039,3.211c-0.688,0.614-1.898,0.925-3.625,0.925
		l-0.502,0.01v1.615h-1.643v-1.615l-0.465-0.01c-1.719,0-2.928-0.296-3.626-0.885c-0.696-0.589-1.049-1.611-1.049-3.068l0.013-0.492
		H8.13v0.253c0,0.887,0.141,1.46,0.421,1.719c0.284,0.255,0.924,0.385,1.906,0.385l0.361,0.012V9.21
		c-1.922,0-3.231-0.28-3.938-0.835C6.183,7.822,5.829,6.781,5.829,5.256c0-1.479,0.354-2.491,1.057-3.036
		c0.707-0.543,2.016-0.818,3.932-0.818V0h1.642v1.403c1.825,0,3.077,0.261,3.745,0.782c0.676,0.524,1.012,1.493,1.012,2.912v0.33
		H14.86l-0.008-0.26c0-1.071-0.671-1.605-2.007-1.605H12.46v3.612l0.542,0.018C14.818,7.289,16.044,7.606,16.681,8.138z
		 M10.822,3.549L10.468,3.56c-1.444,0-2.165,0.571-2.165,1.715c0,1.199,0.715,1.796,2.157,1.796c0.015,0,0.132,0.009,0.36,0.021
		V3.549H10.822z M15.159,11.105c0-0.738-0.172-1.222-0.521-1.456c-0.348-0.233-1.073-0.35-2.178-0.35v3.822h0.354
		C14.377,13.12,15.159,12.448,15.159,11.105z"/>
</g>
<g>
</g>
<g>
</g>
<g>
</g>
<g>
</g>
<g>
</g>
<g>
</g>
<g>
</g>
<g>
</g>
<g>
</g>
<g>
</g>
<g>
</g>
<g>
</g>
<g>
</g>
<g>
</g>
<g>
</g>
</svg>
