<?xml version="1.0" encoding="iso-8859-1"?>
<!-- Generator: Adobe Illustrator 19.0.0, SVG Export Plug-In . SVG Version: 6.00 Build 0)  -->
<svg version="1.1" id="Capa_1" xmlns="http://www.w3.org/2000/svg" xmlns:xlink="http://www.w3.org/1999/xlink" x="0px" y="0px"
	 viewBox="0 0 296.5 296.5" style="enable-background:new 0 0 296.5 296.5;" xml:space="preserve">
<g>
	<path d="M234.75,122.687c-8.311,0-16.238,1.66-23.482,4.65l-26.473-46.099c13.128-2.098,23.915-7.313,28.429-20.291
		c1.452-4.173-0.754-8.732-4.928-10.184c-4.172-1.45-8.732,0.754-10.184,4.928c-3.283,9.437-15.005,10.96-41.778,10.96
		c-4.418,0-8,3.582-8,8c0,4.418,3.582,8,8,8c3.596,0,7.208-0.002,10.779-0.072l17.283,30.096l-35.322,56.39
		c-12.025-20.842-29.936-51.608-42.08-72.708c13.741-2.318,23.922-4.98,23.922-13.899v-0.409c0-9.192-10.828-11.739-25.201-14.112
		c-9.919-1.638-20.447-2.683-23.452-2.683h-0.409c-9.156,0-16.938,7.534-16.938,16.795v0.409c0,9.262,7.782,16.796,16.938,16.796
		h0.409c1.329,0,4.164-0.205,7.769-0.574c2.103,3.661,4.616,8.031,7.621,13.25l-10.249,16.362
		c-7.819-3.588-16.504-5.604-25.655-5.604c-34.049,0-61.75,27.701-61.75,61.75s27.701,61.551,61.75,61.551
		c31.263,0,57.155-22.734,61.187-53.734h25.79c0.005,0,0.01,0,0.015,0s0.011,0,0.016,0h0.075c2.858,0,5.499-1.325,6.928-3.801
		c0.107-0.186,0.191-0.281,0.282-0.473l37.384-59.631l3.969,6.936C182.583,146.576,173,164.405,173,184.425
		c0,34.049,27.701,61.757,61.75,61.757s61.75-27.698,61.75-61.747C296.5,150.385,268.799,122.687,234.75,122.687z M61.75,229.988
		c-25.227,0-45.75-20.424-45.75-45.65c0-25.227,20.523-45.7,45.75-45.7c6.032,0,11.789,1.21,17.067,3.341l-8.561,13.678
		c-2.697-0.797-5.551-1.225-8.507-1.225c-16.569,0-30,13.434-30,30.003c0,16.569,13.431,29.802,30,29.802
		c13.72,0,25.278-8.982,28.852-21.982h16.146C102.864,214.254,84.171,229.988,61.75,229.988z M90.724,176.254
		c-1.27-4-3.667-8.813-6.891-12.317l8.549-13.747c7.446,6.726,12.668,16.064,14.441,26.064H90.724z M122.992,176.254
		c-2.022-16-10.165-29.901-22.022-39.676l5.729-9.247c7.305,12.672,16.551,28.923,28.279,48.923H122.992z M234.75,230.187
		c-25.227,0-45.75-20.523-45.75-45.75c0-14.087,6.404-26.703,16.449-35.102l8.018,13.962c-5.387,5.423-8.717,12.893-8.717,21.141
		c0,16.569,13.431,30,30,30c16.569,0,30-13.431,30-30s-13.431-30-30-30c-2.551,0-5.026,0.32-7.392,0.92l-8.032-13.987
		c4.821-1.732,10.013-2.683,15.424-2.683c25.227,0,45.75,20.523,45.75,45.75S259.977,230.187,234.75,230.187z"/>
</g>
<g>
</g>
<g>
</g>
<g>
</g>
<g>
</g>
<g>
</g>
<g>
</g>
<g>
</g>
<g>
</g>
<g>
</g>
<g>
</g>
<g>
</g>
<g>
</g>
<g>
</g>
<g>
</g>
<g>
</g>
</svg>
