<svg height="800" viewBox="0 0 512 512" width="800" xmlns="http://www.w3.org/2000/svg"><path d="m505.837 180.418-226.572-104.294a55.219 55.219 0 0 0 -23.265-5.093 55.225 55.225 0 0 0 -23.265 5.093l-226.572 104.294c-3.745 1.731-6.163 5.504-6.163 9.627s2.418 7.896 6.163 9.627l226.572 104.294a55.226 55.226 0 0 0 23.265 5.101 55.242 55.242 0 0 0 23.267-5.101l178.812-82.306v82.881c-7.096.8-12.63 6.84-12.63 14.138a14.185 14.185 0 0 0 10.206 13.618l-12.092 79.791h55.676l-12.09-79.791a14.185 14.185 0 0 0 10.204-13.618c0-7.298-5.534-13.338-12.63-14.138v-95.148l21.116-9.721c3.744-1.731 6.163-5.504 6.163-9.627s-2.42-7.896-6.165-9.627z"/><path d="m256 346.831c-11.246 0-22.143-2.391-32.386-7.104l-110.821-51.017v101.638c0 22.314 67.426 50.621 143.207 50.621 75.782 0 143.209-28.308 143.209-50.621v-101.638l-110.827 51.017c-10.237 4.713-21.132 7.104-32.382 7.104z"/></svg>