<?xml version="1.0" encoding="iso-8859-1"?>
<!-- Generator: Adobe Illustrator 19.0.0, SVG Export Plug-In . SVG Version: 6.00 Build 0)  -->
<svg version="1.1" id="Layer_1" xmlns="http://www.w3.org/2000/svg" xmlns:xlink="http://www.w3.org/1999/xlink" x="0px" y="0px"
	 viewBox="0 0 511.999 511.999" style="enable-background:new 0 0 511.999 511.999;" xml:space="preserve">
<g>
	<g>
		<path d="M471.591,0H339.816c-14.778,0-22.259,17.944-11.775,28.428l15.118,15.118l-157.65,157.651
			c-6.504,6.502-6.504,17.047,0,23.551l2.566,2.566c-15.89,14.194-42.044,31.932-61.642,24.006
			c-8.53-3.443-18.235,0.671-21.681,9.198c-3.446,8.527,0.672,18.234,9.198,21.681c26,10.506,53.772,0.909,77.137-15.013
			c8.03-5.473,15.043-11.328,20.525-16.333l24.872,24.871L28.633,483.571c-6.504,6.502-6.504,17.047,0,23.551s17.047,6.504,23.551,0
			l207.85-207.85l3.464,3.464c6.504,6.504,17.047,6.504,23.551,0l157.65-157.65l15.118,15.118
			c10.439,10.443,28.428,3.082,28.428-11.775V16.653C488.244,7.456,480.789,0,471.591,0z"/>
	</g>
</g>
<g>
</g>
<g>
</g>
<g>
</g>
<g>
</g>
<g>
</g>
<g>
</g>
<g>
</g>
<g>
</g>
<g>
</g>
<g>
</g>
<g>
</g>
<g>
</g>
<g>
</g>
<g>
</g>
<g>
</g>
</svg>
