<?xml version="1.0" encoding="iso-8859-1"?>
<!-- Generator: Adobe Illustrator 18.0.0, SVG Export Plug-In . SVG Version: 6.00 Build 0)  -->
<!DOCTYPE svg PUBLIC "-//W3C//DTD SVG 1.1//EN" "http://www.w3.org/Graphics/SVG/1.1/DTD/svg11.dtd">
<svg version="1.1" id="Capa_1" xmlns="http://www.w3.org/2000/svg" xmlns:xlink="http://www.w3.org/1999/xlink" x="0px" y="0px"
	 viewBox="0 0 452.195 452.195" style="enable-background:new 0 0 452.195 452.195;" xml:space="preserve">
<g>
	<path d="M357.731,433.329L277.38,271.951V169.616c7.341-0.98,13.009-7.254,13.009-14.86c0-8.285-6.719-15.008-15.006-15.008h-98.57
		c-8.285,0-15.006,6.723-15.006,15.008c0,7.606,5.669,13.88,13.008,14.86v102.335L94.467,433.329
		c-2.018,4.046-1.794,8.846,0.586,12.686c2.379,3.843,6.576,6.181,11.096,6.181h239.898c4.52,0,8.717-2.338,11.096-6.181
		C359.522,442.175,359.745,437.375,357.731,433.329z M176.923,326.276l23.991-48.189V169.765h50.367v14.861h-20.21
		c-5.522,0-10,4.477-10,10c0,5.523,4.478,10,10,10h20.21v32.198h-20.21c-5.522,0-10,4.477-10,10c0,5.523,4.478,10,10,10h20.21
		v21.263l23.991,48.189H176.923z"/>
	<path d="M251.208,33.771c9.31,0,16.885-7.575,16.885-16.887c0-9.31-7.575-16.884-16.885-16.884c-9.31,0-16.886,7.574-16.886,16.884
		C234.323,26.195,241.899,33.771,251.208,33.771z"/>
	<path d="M248.057,67.021c-12.894,0-23.381,10.488-23.381,23.382c0,12.892,10.487,23.378,23.381,23.378
		c12.891,0,23.379-10.486,23.379-23.378C271.436,77.51,260.948,67.021,248.057,67.021z"/>
	<path d="M202.37,103.622c6.757,0,13.003-2.235,18.037-6.008c-0.603-2.304-0.925-4.721-0.925-7.211
		c0-9.713,4.874-18.304,12.298-23.47c-3.002-13.474-15.047-23.579-29.41-23.579c-16.616,0-30.135,13.517-30.135,30.132
		C172.235,90.104,185.753,103.622,202.37,103.622z"/>
</g>
<g>
</g>
<g>
</g>
<g>
</g>
<g>
</g>
<g>
</g>
<g>
</g>
<g>
</g>
<g>
</g>
<g>
</g>
<g>
</g>
<g>
</g>
<g>
</g>
<g>
</g>
<g>
</g>
<g>
</g>
</svg>
