<?xml version="1.0" encoding="iso-8859-1"?>
<!-- Generator: Adobe Illustrator 19.0.0, SVG Export Plug-In . SVG Version: 6.00 Build 0)  -->
<svg xmlns="http://www.w3.org/2000/svg" xmlns:xlink="http://www.w3.org/1999/xlink" version="1.1" id="Layer_1" x="0px" y="0px" viewBox="0 0 426.093 426.093" style="enable-background:new 0 0 426.093 426.093;" xml:space="preserve" width="512" height="512">
<g>
	<path style="fill:#C3C6C8;" d="M325.176,119.544c-7.458-3.606-16.428-0.482-20.033,6.975L198.27,347.554   c-26.335-15.564-81.542-31.45-104.271-36.153c-16.785-3.473-37.999-3.154-50.631,17.358c-12.293,19.964-13.46,37.944-11.789,54.023   c2.215,21.327,23.823,30.564,40.607,34.036c23.051,4.77,81.346,12.247,111.348,8.032c17.307-1.81,32.216-14.574,35.93-32.524   c1.325-6.405,1.072-12.769-0.48-18.694l113.168-234.056C335.757,132.119,332.634,123.149,325.176,119.544z"/>
	<path style="fill:#454F58;" d="M318.63,156.553c-3.433,0-6.916-0.755-10.213-2.35c-11.685-5.649-16.577-19.701-10.927-31.386   l52.965-109.541C356.104,1.59,370.159-3.302,381.841,2.35C393.526,8,398.419,22.051,392.768,33.736l-52.965,109.541   C335.749,151.665,327.361,156.553,318.63,156.553z"/>
	<path style="fill:#5C6670;" d="M174.708,376.866c-0.504,0-1.015-0.052-1.527-0.157L63.34,353.981   c-4.057-0.84-6.664-4.809-5.825-8.864c0.839-4.058,4.808-6.66,8.864-5.825l109.84,22.728c4.057,0.84,6.664,4.809,5.825,8.864   C181.311,374.427,178.189,376.866,174.708,376.866z"/>
	<path style="fill:#5C6670;" d="M158.095,404.916c-0.504,0-1.015-0.052-1.527-0.157L65.905,386c-4.057-0.84-6.664-4.809-5.825-8.864   c0.839-4.058,4.808-6.661,8.864-5.825l90.663,18.759c4.057,0.84,6.664,4.809,5.825,8.864   C164.699,402.477,161.577,404.916,158.095,404.916z"/>
	<path style="fill:#00B3E3;" d="M319.933,76.402l42.777,19.499l6.531-13.507l-42.777-19.499L319.933,76.402z M338.99,36.99   l-6.531,13.507l42.777,19.499l6.531-13.508L338.99,36.99z"/>
</g>















</svg>
