<?xml version='1.0' encoding='iso-8859-1'?>
<!DOCTYPE svg PUBLIC '-//W3C//DTD SVG 1.1//EN' 'http://www.w3.org/Graphics/SVG/1.1/DTD/svg11.dtd'>
<svg version="1.1" xmlns="http://www.w3.org/2000/svg" viewBox="0 0 297 297" xmlns:xlink="http://www.w3.org/1999/xlink" enable-background="new 0 0 297 297">
  <g>
    <path d="m154.528,54.602c-36.195,0-66.393,26.09-72.819,60.449h145.641c-6.427-34.359-36.627-60.449-72.822-60.449z"/>
    <path d="m296.891,171.486c-0.417-2.762-1.999-5.213-4.344-6.73l-55.722-36.055h-163.514l-27.275-27.276c-3.809-3.807-9.98-3.807-13.789,0-3.808,3.808-3.808,9.981 0,13.789l15.53,15.53h-25.455c-5.384,0-9.75,4.366-9.75,9.75 0,5.385 4.366,9.75 9.75,9.75h20.078l-38.251,26.776c-3.723,2.607-5.139,7.437-3.432,11.648 1.708,4.212 6.108,6.682 10.599,5.962 0.048-0.008 4.851-0.766 12.725-0.766 15.587,0 46.293,3.038 76.816,23.388 25.733,17.156 49.699,25.147 75.42,25.147 14.543,0 29.913-2.666 45.684-7.922 36.329-12.111 71.295-53.52 72.766-55.276 1.792-2.143 2.581-4.952 2.164-7.715z"/>
  </g>
</svg>
