<?xml version='1.0' encoding='utf-8'?>
<!DOCTYPE svg PUBLIC '-//W3C//DTD SVG 1.1//EN' 'http://www.w3.org/Graphics/SVG/1.1/DTD/svg11.dtd'>
<svg version="1.1" xmlns="http://www.w3.org/2000/svg" viewBox="0 0 512 512" xmlns:xlink="http://www.w3.org/1999/xlink" enable-background="new 0 0 512 512">
  <g>
    <g>
      <path d="M359.7,31.4c0-11.3-9.1-20.4-20.4-20.4H154.2c-11.3,0-20.4,9.1-20.4,20.4v35.1h225.9V31.4z"/>
      <rect width="90.4" x="210.8" y="354.9" height="146.1"/>
      <path d="m480.6,107.4h-449.2c-11.3,0-20.4,9.1-20.4,20.4v352.8c0,11.3 9.1,20.4 20.4,20.4h138.6v-166.5c0-11.3 9.1-20.4 20.4-20.4h131.2c11.3,0 20.4,9.1 20.4,20.4v166.5h138.6c11.3,0 20.4-9.1 20.4-20.4v-352.8c0-11.3-9.1-20.4-20.4-20.4zm-182.9,118.9h-21.3v21.3c0,11.3-9.1,20.4-20.4,20.4s-20.4-9.1-20.4-20.4v-21.3h-21.3c-11.3,0-20.4-9.1-20.4-20.4s9.1-20.4 20.4-20.4h21.3v-21.3c0-11.3 9.1-20.4 20.4-20.4s20.4,9.1 20.4,20.4v21.3h21.3c11.3,0 20.4,9.1 20.4,20.4s-9.1,20.4-20.4,20.4z"/>
    </g>
  </g>
</svg>
