<?xml version="1.0" encoding="iso-8859-1"?>
<!-- Generator: Adobe Illustrator 17.1.0, SVG Export Plug-In . SVG Version: 6.00 Build 0)  -->
<!DOCTYPE svg PUBLIC "-//W3C//DTD SVG 1.1//EN" "http://www.w3.org/Graphics/SVG/1.1/DTD/svg11.dtd">
<svg version="1.1" id="Capa_1" xmlns="http://www.w3.org/2000/svg" xmlns:xlink="http://www.w3.org/1999/xlink" x="0px" y="0px"
	 viewBox="0 0 181.587 181.587" style="enable-background:new 0 0 181.587 181.587;" xml:space="preserve">
<path style="fill:#000001;" d="M178.953,81.649L95.985,2.087c-2.901-2.783-7.48-2.783-10.382,0L2.634,81.649
	c-2.21,2.119-2.91,5.369-1.768,8.21c1.142,2.842,3.897,4.703,6.959,4.703h9.094v79.525c0,4.143,3.358,7.5,7.5,7.5h132.75
	c4.142,0,7.5-3.357,7.5-7.5V94.562h9.094c3.062,0,5.817-1.861,6.959-4.703C181.863,87.018,181.164,83.768,178.953,81.649z
	 M110.981,127.412c-10.47,7.762-17.469,10.485-20.187,11.337c-2.718-0.852-9.717-3.575-20.187-11.336
	c-12.821-9.506-13.036-18.895-12.231-26.947c0.591-5.914,4.89-12.279,12.931-12.279c8.218,0,13.35,6.348,13.521,6.563
	c1.419,1.861,3.604,2.982,5.944,2.982c2.34,0,4.525-1.065,5.944-2.927c0.214-0.271,5.346-6.618,13.564-6.618
	c8.04,0,12.339,6.365,12.931,12.279C124.016,108.518,123.801,117.907,110.981,127.412z"/>
<g>
</g>
<g>
</g>
<g>
</g>
<g>
</g>
<g>
</g>
<g>
</g>
<g>
</g>
<g>
</g>
<g>
</g>
<g>
</g>
<g>
</g>
<g>
</g>
<g>
</g>
<g>
</g>
<g>
</g>
</svg>
