<?xml version="1.0" encoding="utf-8"?>

<!DOCTYPE svg PUBLIC "-//W3C//DTD SVG 1.1//EN" "http://www.w3.org/Graphics/SVG/1.1/DTD/svg11.dtd">
<svg version="1.1" id="Layer_1" xmlns="http://www.w3.org/2000/svg" xmlns:xlink="http://www.w3.org/1999/xlink" x="0px" y="0px"
	 viewBox="0 0 100 100" enable-background="new 0 0 100 100" xml:space="preserve">
<path d="M50,17.9l0.5-0.4c2.5-1.8,5.3-2.9,8.2-3.4c-0.6-4.1-4.1-7.3-8.3-7.3c-0.6,0-1-0.4-1-1s0.4-1,1-1c5.3,0,9.7,4,10.3,9.1
	c0.2,0,0.4,0,0.6,0c1.1,0,2.2,0.1,3.3,0.3C63.7,7.2,57.7,1.7,50.4,1.7c-7.3,0-13.3,5.4-14.2,12.5c0.8-0.1,1.6-0.2,2.5-0.2
	C42.9,14,46.9,15.5,50,17.9z M58.1,60.1c0,1.1-0.9,2-2,2s-2-0.9-2-2V50h-2.8v20.1c0,1.1-0.9,2-2,2s-2-0.9-2-2V50h-13l12.2,45.3
	c1,4,6.6,4,7.7,0L66.6,50h-8.5V60.1z M53,32.3C53,24.4,46.6,18,38.7,18c-7.9,0-14.3,6.4-14.3,14.3c0,5.7,3.3,10.5,8.1,12.9h12.6
	C49.7,42.9,53,38,53,32.3z M38.7,23.7c-0.6,0-1-0.4-1-1s0.4-1,1-1c5.7,0,10.4,4.7,10.4,10.4c0,0.6-0.4,1-1,1s-1-0.4-1-1
	C47.1,27.5,43.3,23.7,38.7,23.7z M61.3,18c-3.2,0-6.1,1-8.5,2.8C55.5,23.9,57,28,57,32.3c0,4.3-1.5,8.4-4.1,11.6
	c0,0-0.6,0.7-1.6,1.3h16.3c4.8-2.3,8.1-7.2,8.1-12.9C75.7,24.4,69.2,18,61.3,18z M71.3,33.1c-0.6,0-1-0.4-1-1c0-4.6-3.8-8.4-8.4-8.4
	c-0.6,0-1-0.4-1-1s0.4-1,1-1c5.7,0,10.4,4.7,10.4,10.4C72.3,32.6,71.8,33.1,71.3,33.1z"/>
</svg>
