<?xml version="1.0" encoding="iso-8859-1"?>
<!-- Generator: Adobe Illustrator 18.0.0, SVG Export Plug-In . SVG Version: 6.00 Build 0)  -->
<!DOCTYPE svg PUBLIC "-//W3C//DTD SVG 1.1//EN" "http://www.w3.org/Graphics/SVG/1.1/DTD/svg11.dtd">
<svg version="1.1" id="Capa_1" xmlns="http://www.w3.org/2000/svg" xmlns:xlink="http://www.w3.org/1999/xlink" x="0px" y="0px"
	 viewBox="0 0 297 297" style="enable-background:new 0 0 297 297;" xml:space="preserve">
<g>
	<path d="M268.192,182.222V49.47c0-5.615-4.554-10.169-10.17-10.169H38.959c-5.615,0-10.169,4.554-10.169,10.169v132.752H268.192z
		 M85.901,99.649h11.433l28.317-28.325c3.972-3.971,10.408-3.973,14.382-0.002c3.972,3.972,3.972,10.409,0.002,14.382
		l-13.941,13.945h44.793l-13.941-13.945c-3.971-3.973-3.97-10.41,0.002-14.382c3.974-3.97,10.41-3.969,14.382,0.002l28.317,28.325
		h11.431c5.616,0,10.169,4.554,10.169,10.169c0,5.616-4.553,10.17-10.169,10.17h-1.902v29.131c0,11.805-9.605,21.409-21.408,21.409
		h-78.553c-11.804,0-21.406-9.605-21.406-21.409v-29.131h-1.906c-5.615,0-10.169-4.554-10.169-10.17
		C75.732,104.203,80.286,99.649,85.901,99.649z"/>
	<path d="M295.467,242.156l-23.574-43.663H25.091L1.222,242.697c-1.702,3.151-1.621,6.966,0.215,10.041
		c1.834,3.076,5.151,4.96,8.733,4.96h276.642c0.007,0.001,0.015,0.001,0.015,0.001c5.622-0.001,10.174-4.555,10.174-10.17
		C297,245.556,296.438,243.714,295.467,242.156z M171.958,242.043H125.02c-5.615,0-10.169-4.553-10.169-10.169
		c0-5.615,4.554-10.169,10.169-10.169h46.937c5.616,0,10.17,4.554,10.17,10.169C182.128,237.491,177.574,242.043,171.958,242.043z"
		/>
</g>
<g>
</g>
<g>
</g>
<g>
</g>
<g>
</g>
<g>
</g>
<g>
</g>
<g>
</g>
<g>
</g>
<g>
</g>
<g>
</g>
<g>
</g>
<g>
</g>
<g>
</g>
<g>
</g>
<g>
</g>
</svg>
