<?xml version="1.0" encoding="iso-8859-1"?>
<!-- Generator: Adobe Illustrator 19.0.0, SVG Export Plug-In . SVG Version: 6.00 Build 0)  -->
<svg version="1.1" id="Layer_1" xmlns="http://www.w3.org/2000/svg" xmlns:xlink="http://www.w3.org/1999/xlink" x="0px" y="0px"
	 viewBox="0 0 511.204 511.204" style="enable-background:new 0 0 511.204 511.204;" xml:space="preserve">
<g>
	<g>
		<path d="M476.274,282.688L413.106,9.768c-1.012-4.372-4.292-7.616-8.292-8.828c-2.32-0.952-4.928-1.244-7.548-0.584
			L277.634,30.472c-5.176-6.256-12.996-10.26-21.732-10.26c-13.656,0-25.072,9.772-27.632,22.68l-117.708,29.64
			c-1.38,0.344-2.596,0.952-3.712,1.688c-4.208,1.092-7.692,4.4-8.744,8.928L34.95,356.068c-0.424,0.636-0.732,1.364-0.732,2.176
			c0,18.344,6.532,35.18,17.392,48.328c13.944,17.136,35.172,28.116,58.936,28.116c41.892,0,75.968-34.08,75.968-75.968
			c0-0.184-0.08-0.34-0.1-0.524c-0.024-0.18,0.016-0.36-0.04-0.54l-3.744-13.688L124.75,93.86l109.544-27.548
			c2.5,3.032,5.312,5.508,9.312,7.284v375.216l-46.072,27.192c-1.228,0.728-1.928,2.048-1.928,3.468v28.108
			c0,2.228,1.452,3.624,3.68,3.624h0.264h112.432h0.268c2.224,0,3.352-1.4,3.352-3.624v-28.108c0-1.42-0.704-2.744-1.928-3.468
			l-46.068-27.196V73.728c8-3.804,13.908-11.084,15.648-19.836L384.486,28.44l-58.78,254.24c-0.42,0.64-0.692,1.36-0.692,2.18
			c0,41.892,34.1,75.972,75.988,75.972c41.896,0,75.984-34.084,75.984-75.972C476.99,284.04,476.694,283.328,476.274,282.688z
			 M160.222,355.204H60.162l50.032-216.156L160.222,355.204z M351.002,283.204l50.032-216.156l50.02,216.156H351.002z"/>
	</g>
</g>
<g>
</g>
<g>
</g>
<g>
</g>
<g>
</g>
<g>
</g>
<g>
</g>
<g>
</g>
<g>
</g>
<g>
</g>
<g>
</g>
<g>
</g>
<g>
</g>
<g>
</g>
<g>
</g>
<g>
</g>
</svg>
