<?xml version="1.0" encoding="iso-8859-1"?>
<!-- Generator: Adobe Illustrator 17.1.0, SVG Export Plug-In . SVG Version: 6.00 Build 0)  -->
<!DOCTYPE svg PUBLIC "-//W3C//DTD SVG 1.1//EN" "http://www.w3.org/Graphics/SVG/1.1/DTD/svg11.dtd">
<svg version="1.1" id="Capa_1" xmlns="http://www.w3.org/2000/svg" xmlns:xlink="http://www.w3.org/1999/xlink" x="0px" y="0px"
	 viewBox="0 0 213.148 213.148" style="enable-background:new 0 0 213.148 213.148;" xml:space="preserve">
<path d="M96.737,213.148H48.595c-2.142,0-3.878-1.736-3.878-3.878v-49.136c0-2.142,1.736-3.878,3.878-3.878h48.141
	c2.142,0,3.878,1.736,3.878,3.878v49.136C100.615,211.412,98.878,213.148,96.737,213.148z M51.405,70.208
	c-0.101,0-0.184,0.082-0.184,0.183L51.2,147.872c0,0.105,0.038,0.197,0.113,0.272c0.074,0.074,0.166,0.112,0.271,0.112l42.142,0.012
	c0.212,0,0.384-0.172,0.384-0.384l0.021-77.481c0-0.087-0.097-0.184-0.183-0.184L51.405,70.208z M74.082,1.903L61.936,14.447
	c-1.125,1.161-1.744,2.691-1.744,4.309v39.978c0,1.677,1.364,3.041,3.041,3.041h18.865c1.677,0,3.042-1.364,3.042-3.041V8.261
	c0-1.68-0.354-3.297-1.053-4.807C82.907,0.908,80.465,0,78.572,0C76.865,0,75.27,0.676,74.082,1.903z M168.431,208.95V68.386
	c0-6.355-5.151-11.506-11.506-11.506h-32.886c-6.355,0-11.506,5.151-11.506,11.506V208.95c0,2.318,1.879,4.198,4.198,4.198h47.502
	C166.552,213.148,168.431,211.269,168.431,208.95z"/>
<g>
</g>
<g>
</g>
<g>
</g>
<g>
</g>
<g>
</g>
<g>
</g>
<g>
</g>
<g>
</g>
<g>
</g>
<g>
</g>
<g>
</g>
<g>
</g>
<g>
</g>
<g>
</g>
<g>
</g>
</svg>
