<?xml version="1.0" encoding="iso-8859-1"?>
<!-- Generator: Adobe Illustrator 18.0.0, SVG Export Plug-In . SVG Version: 6.00 Build 0)  -->
<!DOCTYPE svg PUBLIC "-//W3C//DTD SVG 1.1//EN" "http://www.w3.org/Graphics/SVG/1.1/DTD/svg11.dtd">
<svg version="1.1" id="Capa_1" xmlns="http://www.w3.org/2000/svg" xmlns:xlink="http://www.w3.org/1999/xlink" x="0px" y="0px"
	 viewBox="0 0 139.01 139.01" style="enable-background:new 0 0 139.01 139.01;" xml:space="preserve">
<g>
	<g>
		<path style="fill-rule:evenodd;clip-rule:evenodd;fill:#4D1B02;" d="M88.131,26.066c5.533,0,10.046-4.513,10.046-10.046
			c0-5.532-4.513-10.045-10.046-10.045c-5.532,0-10.045,4.513-10.045,10.045C78.086,21.554,82.599,26.066,88.131,26.066z"/>
		<path style="fill-rule:evenodd;clip-rule:evenodd;fill:#4D1B02;" d="M78.259,21.649c5.533,0,10.045-4.513,10.045-10.045
			c0-5.533-4.512-10.046-10.045-10.046c-5.533,0-10.045,4.513-10.045,10.046C68.214,17.137,72.726,21.649,78.259,21.649z"/>
		<path style="fill-rule:evenodd;clip-rule:evenodd;fill:#4D1B02;" d="M63.19,20.091c5.533,0,10.045-4.513,10.045-10.046
			C73.235,4.513,68.724,0,63.19,0c-5.533,0-10.045,4.513-10.045,10.045C53.146,15.578,57.657,20.091,63.19,20.091z"/>
		<path style="fill-rule:evenodd;clip-rule:evenodd;fill:#4D1B02;" d="M49.681,25.027c5.533,0,10.046-4.513,10.046-10.046
			c0-5.533-4.513-10.045-10.046-10.045c-5.532,0-10.045,4.512-10.045,10.045C39.636,20.515,44.148,25.027,49.681,25.027z"/>
		<path style="fill-rule:evenodd;clip-rule:evenodd;fill:#4D1B02;" d="M41.887,36.198c5.533,0,10.046-4.512,10.046-10.045
			S47.42,16.108,41.887,16.108c-5.532,0-10.046,4.513-10.046,10.046S36.354,36.198,41.887,36.198z"/>
		<path style="fill-rule:evenodd;clip-rule:evenodd;fill:#4D1B02;" d="M96.704,36.458c5.533,0,10.045-4.512,10.045-10.045
			c0-5.533-4.512-10.046-10.045-10.046S86.659,20.88,86.659,26.413C86.659,31.946,91.171,36.458,96.704,36.458z"/>
		<path style="fill-rule:evenodd;clip-rule:evenodd;fill:#4D1B02;" d="M97.224,50.487c5.533,0,10.045-4.513,10.045-10.046
			c0-5.532-4.512-10.045-10.045-10.045c-5.533,0-10.045,4.513-10.045,10.045C87.179,45.975,91.69,50.487,97.224,50.487z"/>
		<path style="fill-rule:evenodd;clip-rule:evenodd;fill:#4D1B02;" d="M89.949,67.374c5.533,0,10.046-4.513,10.046-10.045
			c0-5.533-4.513-10.046-10.046-10.046c-5.532,0-10.045,4.513-10.045,10.046C79.904,62.861,84.417,67.374,89.949,67.374z"/>
		<path style="fill-rule:evenodd;clip-rule:evenodd;fill:#4D1B02;" d="M41.107,48.929c5.533,0,10.046-4.513,10.046-10.045
			c0-5.533-4.513-10.046-10.046-10.046c-5.533,0-10.046,4.513-10.046,10.046C31.062,44.416,35.574,48.929,41.107,48.929z"/>
		<path style="fill-rule:evenodd;clip-rule:evenodd;fill:#4D1B02;" d="M48.382,68.674c5.533,0,10.045-4.513,10.045-10.046
			s-4.512-10.045-10.045-10.045c-5.533,0-10.045,4.512-10.045,10.045S42.849,68.674,48.382,68.674z"/>
		<path style="fill-rule:evenodd;clip-rule:evenodd;fill:#4D1B02;" d="M95.781,60.084c5.533,0,10.046-4.512,10.046-10.045
			s-4.513-10.045-10.046-10.045c-5.532,0-10.045,4.512-10.045,10.045S90.249,60.084,95.781,60.084z"/>
		<path style="fill-rule:evenodd;clip-rule:evenodd;fill:#4D1B02;" d="M42.565,59.378c5.533,0,10.045-4.513,10.045-10.046
			s-4.512-10.045-10.045-10.045c-5.533,0-10.046,4.512-10.046,10.045S37.032,59.378,42.565,59.378z"/>
	</g>
	<path style="fill-rule:evenodd;clip-rule:evenodd;fill:#E6A875;" d="M57.767,85.725c-25.952,11.377-33.736,17.442-36.815,20.166
		c-4.742,4.196-7.365,19.838-10.162,33.119h58.715h58.715c-2.798-13.281-5.421-28.923-10.163-33.119
		c-3.077-2.724-10.577-8.633-36.528-20.011L57.767,85.725z"/>
	<path style="fill-rule:evenodd;clip-rule:evenodd;fill:#E6A875;" d="M82.105,63.046v28.767c-6.931,8.488-18.27,8.194-25.201,0
		V63.046C56.904,47.513,82.105,47.513,82.105,63.046z"/>
	<path style="fill-rule:evenodd;clip-rule:evenodd;fill:#B88053;" d="M82.105,63.046v19.26c-4.769,3.476-9.364,5.423-12.601,5.423
		c-3.236,0-7.833-1.947-12.601-5.423v-19.26C56.904,47.513,82.105,47.513,82.105,63.046z"/>
	<path style="fill-rule:evenodd;clip-rule:evenodd;fill:#E6A875;" d="M69.505,11.399c-42.292,0-27.083,51.102-24.32,55.169
		c3.046,4.486,17.487,16.376,24.32,16.376c6.832,0,21.274-11.89,24.32-16.376C96.588,62.501,111.796,11.399,69.505,11.399z"/>
	
		<ellipse transform="matrix(-0.3127 -0.9498 0.9498 -0.3127 3.1416 105.0926)" style="fill-rule:evenodd;clip-rule:evenodd;fill:#E6A875;" cx="39.592" cy="51.41" rx="7.317" ry="4.231"/>
	
		<ellipse transform="matrix(0.3128 -0.9498 0.9498 0.3128 19.8238 130.2186)" style="fill-rule:evenodd;clip-rule:evenodd;fill:#E6A875;" cx="99.902" cy="51.41" rx="7.317" ry="4.231"/>
	<g>
		<path style="fill-rule:evenodd;clip-rule:evenodd;fill:#4D1B02;" d="M66.048,28.664c5.533,0,10.046-4.512,10.046-10.045
			S71.581,8.573,66.048,8.573c-5.532,0-10.045,4.513-10.045,10.046S60.516,28.664,66.048,28.664z"/>
		<path style="fill-rule:evenodd;clip-rule:evenodd;fill:#4D1B02;" d="M79.817,28.145c5.533,0,10.046-4.513,10.046-10.045
			c0-5.533-4.513-10.046-10.046-10.046c-5.533,0-10.045,4.513-10.045,10.046C69.772,23.632,74.284,28.145,79.817,28.145z"/>
		<path style="fill-rule:evenodd;clip-rule:evenodd;fill:#4D1B02;" d="M55.916,31.782c5.533,0,10.046-4.513,10.046-10.046
			s-4.513-10.045-10.046-10.045s-10.045,4.512-10.045,10.045S50.383,31.782,55.916,31.782z"/>
		<path style="fill-rule:evenodd;clip-rule:evenodd;fill:#4D1B02;" d="M48.44,35.276c4.707,0,8.545-3.839,8.545-8.545
			c0-4.707-3.838-8.545-8.545-8.545s-8.545,3.838-8.545,8.545C39.896,31.438,43.733,35.276,48.44,35.276z"/>
		<path style="fill-rule:evenodd;clip-rule:evenodd;fill:#4D1B02;" d="M87.871,34.38c5.533,0,10.046-4.512,10.046-10.045
			s-4.513-10.046-10.046-10.046s-10.046,4.513-10.046,10.046S82.338,34.38,87.871,34.38z"/>
		<path style="fill-rule:evenodd;clip-rule:evenodd;fill:#4D1B02;" d="M96.026,41.191c3.903,0,7.086-3.183,7.086-7.086
			c0-3.903-3.183-7.086-7.086-7.086c-3.902,0-7.086,3.183-7.086,7.086C88.94,38.008,92.124,41.191,96.026,41.191z"/>
		<path style="fill-rule:evenodd;clip-rule:evenodd;fill:#4D1B02;" d="M43.894,42.551c3.777,0,6.857-3.08,6.857-6.856
			c0-3.776-3.08-6.857-6.857-6.857c-3.776,0-6.856,3.08-6.856,6.857C37.037,39.471,40.117,42.551,43.894,42.551z"/>
		<path style="fill-rule:evenodd;clip-rule:evenodd;fill:#4D1B02;" d="M42.465,47.228c2.417,0,4.389-1.972,4.389-4.389
			c0-2.418-1.972-4.389-4.389-4.389s-4.389,1.971-4.389,4.389C38.076,45.256,40.048,47.228,42.465,47.228z"/>
		<path style="fill-rule:evenodd;clip-rule:evenodd;fill:#4D1B02;" d="M97.282,47.747c2.417,0,4.389-1.972,4.389-4.389
			s-1.972-4.389-4.389-4.389s-4.389,1.972-4.389,4.389S94.865,47.747,97.282,47.747z"/>
		<path style="fill-rule:evenodd;clip-rule:evenodd;fill:#4D1B02;" d="M42.984,51.124c1.702,0,3.09-1.388,3.09-3.09
			c0-1.701-1.388-3.089-3.09-3.089c-1.701,0-3.089,1.388-3.089,3.089C39.896,49.736,41.283,51.124,42.984,51.124z"/>
		<path style="fill-rule:evenodd;clip-rule:evenodd;fill:#4D1B02;" d="M96.763,50.864c1.702,0,3.09-1.388,3.09-3.09
			c0-1.701-1.388-3.089-3.09-3.089c-1.701,0-3.089,1.388-3.089,3.089C93.674,49.477,95.062,50.864,96.763,50.864z"/>
	</g>
	<path style="fill-rule:evenodd;clip-rule:evenodd;fill:#FFFFFF;" d="M55.945,62.098c3.548,2.783,23.571,2.63,27.119,0
		C79.981,76.742,60.034,77.192,55.945,62.098z"/>
	<path style="fill-rule:evenodd;clip-rule:evenodd;fill:#FFFFFF;" d="M56.904,86.104c-25.261,11.133-32.909,17.095-35.952,19.787
		c-4.742,4.196-7.365,19.838-10.162,33.119h58.715h58.715c-2.798-13.281-5.421-28.923-10.163-33.119
		c-3.054-2.703-10.468-8.545-35.951-19.756C77.091,92.928,63.407,94.041,56.904,86.104z"/>
	<path style="fill-rule:evenodd;clip-rule:evenodd;fill:#68C497;" d="M53.664,87.547c-22.685,10.209-29.803,15.77-32.712,18.344
		c-4.742,4.196-7.365,19.838-10.162,33.119h58.715h58.715c-2.798-13.281-5.421-28.923-10.163-33.119
		c-2.894-2.562-9.704-7.941-32.089-18.036C75.954,98.419,57.176,95.051,53.664,87.547z"/>
	<g>
		<path style="fill-rule:evenodd;clip-rule:evenodd;fill:#388761;" d="M34.718,139.01h2.012c-0.09-8.941-0.091-15.386-0.091-15.386
			S35.748,130.321,34.718,139.01z"/>
		<path style="fill-rule:evenodd;clip-rule:evenodd;fill:#388761;" d="M104.292,139.01h-2.012c0.09-8.941,0.09-15.386,0.09-15.386
			S103.261,130.321,104.292,139.01z"/>
	</g>
</g>
<g>
</g>
<g>
</g>
<g>
</g>
<g>
</g>
<g>
</g>
<g>
</g>
<g>
</g>
<g>
</g>
<g>
</g>
<g>
</g>
<g>
</g>
<g>
</g>
<g>
</g>
<g>
</g>
<g>
</g>
</svg>
