<?xml version="1.0" encoding="iso-8859-1"?>
<!-- Generator: Adobe Illustrator 19.0.0, SVG Export Plug-In . SVG Version: 6.00 Build 0)  -->
<svg version="1.1" id="Layer_1" xmlns="http://www.w3.org/2000/svg" xmlns:xlink="http://www.w3.org/1999/xlink" x="0px" y="0px"
	 viewBox="0 0 511.999 511.999" style="enable-background:new 0 0 511.999 511.999;" xml:space="preserve">
<g>
	<g>
		<path d="M380.23,231.901l-22.506-40.239l-93.062,93.063l40.239,22.505c2.198,1.229,4.61,1.827,7.006,1.827
			c3.72,0,7.396-1.443,10.159-4.207l55.785-55.785C382.395,244.522,383.367,237.511,380.23,231.901z"/>
	</g>
</g>
<g>
	<g>
		<path d="M191.66,23.329c-2.694-2.693-6.346-4.207-10.155-4.207c-3.809,0-7.462,1.513-10.155,4.207l-24.772,24.772l-14.316-14.315
			l3.141-3.141c7.011-7.011,7.011-18.376,0-25.387c-7.009-7.011-18.376-7.011-25.387,0l-31.761,31.76
			c-7.011,7.011-7.011,18.376,0,25.387c3.505,3.505,8.1,5.259,12.693,5.259c4.594,0,9.189-1.752,12.693-5.259l3.231-3.231
			l14.314,14.316L96.329,98.35c-5.608,5.609-5.608,14.701,0,20.31l3.94,3.941c13.455-11.872,31.104-19.098,50.416-19.098
			c42.076,0,76.307,34.231,76.307,76.307c0,19.312-7.226,36.96-19.097,50.415l35.324,35.324l95.331-95.331L191.66,23.329z"/>
	</g>
</g>
<g>
	<g>
		<path d="M433.749,284.438c-7.007-7.013-18.373-7.033-25.387-0.026l-68.217,68.268l-14.413,14.512h-6.595h-16.463v-18.807
			c0-27.134-21.597-49.408-48.731-49.408h-4.86c-3.1,0-6.127,0.401-9.07,0.951c-13.754,2.574-25.508,10.932-32.676,22.397
			c-19.873-17.2-33.439-41.474-36.724-68.888c-6.357,1.722-13.034,2.669-19.927,2.669c-5.517,0-10.955-0.596-16.143-1.715
			c4.313,44.88,29.308,83.82,65.211,107.155v48.727h102.922v-7.181h30.49v0.001c4.758,0,9.322-2.008,12.688-5.371l87.886-87.868
			C440.751,302.848,440.756,291.451,433.749,284.438z"/>
	</g>
</g>
<g>
	<g>
		<path d="M152.198,117.653c-34.274,0-62.158,27.883-62.158,62.156c0.001,34.274,27.885,62.158,62.158,62.158
			c34.274,0,62.156-27.883,62.156-62.158C214.354,145.537,186.471,117.653,152.198,117.653z"/>
	</g>
</g>
<g>
	<g>
		<path d="M332.914,422.242h-15.492h-50.173h-31.473h-50.171h-15.492c-39.439,0-71.526,32.227-71.526,71.666
			c0,9.914,8.037,18.091,17.951,18.091h269.949c9.914,0,17.951-8.177,17.951-18.091C404.44,454.468,372.353,422.242,332.914,422.242
			z"/>
	</g>
</g>
<g>
</g>
<g>
</g>
<g>
</g>
<g>
</g>
<g>
</g>
<g>
</g>
<g>
</g>
<g>
</g>
<g>
</g>
<g>
</g>
<g>
</g>
<g>
</g>
<g>
</g>
<g>
</g>
<g>
</g>
</svg>
