<?xml version="1.0" encoding="iso-8859-1"?>
<!-- Generator: Adobe Illustrator 19.0.0, SVG Export Plug-In . SVG Version: 6.00 Build 0)  -->
<svg version="1.1" id="Layer_1" xmlns="http://www.w3.org/2000/svg" xmlns:xlink="http://www.w3.org/1999/xlink" x="0px" y="0px"
	 viewBox="0 0 512 512" style="enable-background:new 0 0 512 512;" xml:space="preserve">
<g>
	<g>
		<path d="M114.669,7.363v72.53c9.783-8.231,20.285-15.631,31.407-22.079V7.363H114.669z"/>
	</g>
</g>
<g>
	<g>
		<path d="M51.856,7.363v159.203c7.877-19.639,18.501-37.889,31.407-54.265V7.363H51.856z"/>
	</g>
</g>
<g>
	<g>
		<path d="M0,263.852c3.756,62.602,29.911,120.938,74.635,165.661c22.508,22.508,48.465,40.309,76.676,52.928v22.196h209.379
			v-22.196c28.211-12.618,54.168-30.42,76.676-52.928c44.723-44.724,70.879-103.059,74.635-165.661H0z"/>
	</g>
</g>
<g>
	<g>
		<path d="M255.999,127.756c-61.063,0-111.65,45.697-119.369,104.689h37.116c7.374-38.697,41.442-68.048,82.254-68.048
			c0.277,0,0.558,0.015,0.835,0.018c3.927-9.542,8.526-18.821,13.791-27.752c1.468-2.491,3-4.938,4.562-7.365
			C268.874,128.285,262.467,127.756,255.999,127.756z"/>
	</g>
</g>
<g>
	<g>
		<path d="M358.026,89.786c-49.06,31.724-80.747,84.72-85.635,142.659h36.774c5.222-50.136,35.176-94.48,79.339-118.147
			C379.235,105.121,369.024,96.896,358.026,89.786z"/>
	</g>
</g>
<g>
	<g>
		<path d="M409.479,138.931c-37.384,17.354-63.313,52.82-68.678,93.514h37.062c5.225-27.746,24.065-50.861,49.981-61.604
			C422.754,159.574,416.589,148.893,409.479,138.931z"/>
	</g>
</g>
<g>
	<g>
		<path d="M206.065,232.445h34.798c0.862-12.078,2.712-24.032,5.523-35.741C227.294,200.264,211.813,214.21,206.065,232.445z"/>
	</g>
</g>
<g>
	<g>
		<path d="M438.342,200.532c-13.526,6.146-23.751,17.777-28.156,31.912h33.596C442.876,221.518,441.038,210.854,438.342,200.532z"/>
	</g>
</g>
<g>
	<g>
		<path d="M256,59.707c-98.617,0-179.774,76.152-187.781,172.737h36.79C112.892,156.093,177.599,96.349,256,96.349
			c13.659,0,27.123,1.815,40.165,5.391c9.249-10.351,19.456-19.829,30.49-28.274C304.823,64.604,280.975,59.707,256,59.707z"/>
	</g>
</g>
<g>
</g>
<g>
</g>
<g>
</g>
<g>
</g>
<g>
</g>
<g>
</g>
<g>
</g>
<g>
</g>
<g>
</g>
<g>
</g>
<g>
</g>
<g>
</g>
<g>
</g>
<g>
</g>
<g>
</g>
</svg>
