<?xml version="1.0" encoding="iso-8859-1"?>
<!-- Generator: Adobe Illustrator 19.0.0, SVG Export Plug-In . SVG Version: 6.00 Build 0)  -->
<svg version="1.1" id="Layer_1" xmlns="http://www.w3.org/2000/svg" xmlns:xlink="http://www.w3.org/1999/xlink" x="0px" y="0px"
	 viewBox="0 0 503.822 503.822" style="enable-background:new 0 0 503.822 503.822;" xml:space="preserve">
<g transform="translate(0 -1)">
	<g>
		<g>
			<path d="M251.785,42.98c22.335,0.848,83.238-0.269,104.624-15.268l9.334-5.338l-5.716-15.822
				c-0.772-2.132-2.375-3.869-4.44-4.801c-2.065-0.94-4.432-0.99-6.538-0.151c-9.476,3.743-77.614,7.798-96.936,7.798
				s-87.46-4.054-96.936-7.798c-2.115-0.848-4.474-0.797-6.538,0.151c-2.065,0.932-3.668,2.669-4.44,4.801l-5.321,14.772
				l8.998,6.429C169.202,42.703,230.138,43.819,251.785,42.98z"/>
			<path d="M371.561,38.347l-6.169,3.525C342.469,57.987,289.389,59.96,264.713,59.96c-7.327,0-12.145-0.176-12.926-0.21
				c-2.753,0.159-83.229,3.03-113.605-18.298l-5.313-3.794c-9.812,28.999-19.381,97.372-13.807,139.659
				c2.938,22.301,10.836,61.801,18.466,99.991c9.627,48.162,19.582,97.951,19.582,112.59c0,14.672-4.407,37.687-8.293,57.99
				c-3.248,16.946-6.052,31.593-6.052,39.936c0,3.307,1.939,6.295,4.952,7.663c27.438,12.347,55.237,12.431,90.137,0.269
				c3.592-1.259,5.892-4.759,5.615-8.544c-0.084-1.1-8.024-110.323-8.024-151.166c0-21.387,7.193-68.239,13.539-109.576
				c1.041-6.757,2.065-13.446,3.047-19.968c0.974,6.513,1.981,13.194,2.996,19.943c6.236,41.346,13.295,88.198,13.295,109.602
				c0,40.842-7.94,150.066-8.024,151.166c-0.277,3.785,2.023,7.286,5.607,8.544c17.324,6.043,32.902,9.065,47.549,9.065
				c14.865,0,28.781-3.114,42.597-9.333c3.013-1.368,4.944-4.356,4.944-7.663c0-8.343-2.803-22.99-6.043-39.936
				c-3.886-20.304-8.293-43.319-8.293-57.99c0-14.638,9.955-64.428,19.582-112.59c7.638-38.19,15.528-77.69,18.466-99.991
				C390.287,134.989,381.146,67.505,371.561,38.347z M281.046,134.418c-3.097,1.553-19.062,9.275-28.932,9.275
				c-9.879,0-25.835-7.722-28.941-9.275c-4.138-2.073-5.817-7.118-3.752-11.264c2.082-4.138,7.109-5.808,11.264-3.752
				c6.068,3.022,17.072,7.504,21.428,7.504c4.373,0,15.368-4.482,21.42-7.504c4.155-2.065,9.199-0.395,11.264,3.752
				C286.871,127.3,285.193,132.345,281.046,134.418z"/>
		</g>
	</g>
</g>
<g>
</g>
<g>
</g>
<g>
</g>
<g>
</g>
<g>
</g>
<g>
</g>
<g>
</g>
<g>
</g>
<g>
</g>
<g>
</g>
<g>
</g>
<g>
</g>
<g>
</g>
<g>
</g>
<g>
</g>
</svg>
