<?xml version="1.0" encoding="iso-8859-1"?>
<!-- Generator: Adobe Illustrator 19.0.0, SVG Export Plug-In . SVG Version: 6.00 Build 0)  -->
<svg version="1.1" id="Layer_1" xmlns="http://www.w3.org/2000/svg" xmlns:xlink="http://www.w3.org/1999/xlink" x="0px" y="0px"
	 viewBox="0 0 414.476 414.476" style="enable-background:new 0 0 414.476 414.476;" xml:space="preserve">
<g>
	<g>
		<path d="M343.309,16.49l-11.937-5.314c-2.771-1.233-5.707-1.859-8.725-1.859c-8.472,0-16.172,5-19.618,12.738l-49.607,111.42
			h-18.154V21.467C235.269,9.63,225.639,0,213.802,0h-13.068c-11.836,0-21.466,9.63-21.466,21.467v112.008H163.54l-55.539-96.197
			c-0.75-1.3-1.852-2.362-3.178-3.066l-34.181-18.14c-2.465-1.308-5.433-1.238-7.832,0.186s-3.884,3.994-3.918,6.784l-0.46,38.14
			c-0.017,1.438,0.353,2.853,1.071,4.097l39.374,68.197H82.288c-4.418,0-8,3.582-8,8v45c0,4.418,3.582,8,8,8h10.227l20.309,212.76
			c0.392,4.105,3.84,7.24,7.964,7.24h169c4.138,0,7.593-3.155,7.967-7.275l19.339-212.725h10.194c4.418,0,8-3.582,8-8v-45
			c0-4.418-3.582-8-8-8h-12.565l39.466-88.643C359.003,34.02,354.122,21.306,343.309,16.49z M195.269,21.467
			c0-3.015,2.452-5.467,5.466-5.467h13.068c3.014,0,5.466,2.452,5.466,5.467v11.067h-24V21.467z M195.269,48.534h24v84.94h-24
			V48.534z M74.457,59.179l0.275-22.823l20.561,10.911l49.772,86.208h-27.713L74.457,59.179z M282.482,398.475H128.061L120.57,320
			h169.046L282.482,398.475z M291.071,304H119.042l-2.841-29.766h177.576L291.071,304z M295.231,258.234H114.674l-6.086-63.76
			h192.44L295.231,258.234z M319.288,149.475v29h-9.5h-210h-9.5v-29H319.288z M297.208,133.475h-26.271l35.7-80.185l21.925,9.761
			L297.208,133.475z M339.571,38.324l-4.501,10.11l-21.925-9.761l4.501-10.11c0.878-1.972,2.841-3.246,5.001-3.246
			c0.761,0,1.507,0.16,2.217,0.477l11.937,5.314C339.554,32.333,340.797,35.571,339.571,38.324z"/>
	</g>
</g>
<g>
</g>
<g>
</g>
<g>
</g>
<g>
</g>
<g>
</g>
<g>
</g>
<g>
</g>
<g>
</g>
<g>
</g>
<g>
</g>
<g>
</g>
<g>
</g>
<g>
</g>
<g>
</g>
<g>
</g>
</svg>
