<?xml version="1.0" encoding="iso-8859-1"?>
<!-- Generator: Adobe Illustrator 16.0.0, SVG Export Plug-In . SVG Version: 6.00 Build 0)  -->
<!DOCTYPE svg PUBLIC "-//W3C//DTD SVG 1.1//EN" "http://www.w3.org/Graphics/SVG/1.1/DTD/svg11.dtd">
<svg version="1.1" id="Capa_1" xmlns="http://www.w3.org/2000/svg" xmlns:xlink="http://www.w3.org/1999/xlink" x="0px" y="0px"
	 width="398.479px" height="398.479px" viewBox="0 0 398.479 398.479" style="enable-background:new 0 0 398.479 398.479;"
	 xml:space="preserve">
<g>
	<g>
		<g id="Layer_5_66_">
			<g>
				<path d="M97.854,48.668h38.758c2.426,0,4.389-1.965,4.389-4.388c0-2.423-1.963-4.388-4.389-4.388H97.854
					c-2.426,0-4.389,1.965-4.389,4.388C93.464,46.704,95.428,48.668,97.854,48.668z"/>
				<path d="M96.045,8.388l38.758,17.552c0.588,0.266,1.201,0.393,1.805,0.393c1.672,0,3.27-0.96,4.002-2.58
					c0.998-2.209,0.021-4.808-2.189-5.808L99.662,0.392c-2.211-1.001-4.807-0.017-5.806,2.188
					C92.855,4.789,93.834,7.386,96.045,8.388z"/>
				<path d="M140.609,64.809c-0.994-2.205-3.596-3.188-5.807-2.188L96.044,80.172c-2.211,1-3.189,3.6-2.19,5.809
					c0.733,1.62,2.331,2.58,4.003,2.58c0.604,0,1.217-0.127,1.803-0.393l38.76-17.552C140.631,69.617,141.607,67.018,140.609,64.809
					z"/>
				<path d="M296.239,114.074H127.695c-4.826,0-8.775,3.95-8.775,8.776v266.854c0,4.826,3.949,8.774,8.775,8.774h168.544
					c4.828,0,8.776-3.948,8.776-8.774V122.85C305.017,118.023,301.067,114.074,296.239,114.074z M275.96,251.889
					c0,2.413-1.975,4.39-4.389,4.39H152.363c-2.414,0-4.389-1.977-4.389-4.39v-17.06c0-2.413,1.975-4.388,4.389-4.388h119.208
					c2.414,0,4.389,1.975,4.389,4.388V251.889L275.96,251.889z"/>
				<path d="M247.847,20.604h-71.758c-3.3,0-6,2.699-6,6v71.688c0,3.3,2.7,6,6,6h71.758c3.301,0,6-2.7,6-6V26.604
					C253.847,23.302,251.147,20.604,247.847,20.604z M203.47,72.482c0,1.603-1.312,2.913-2.914,2.913h-17.419
					c-1.602,0-2.912-1.312-2.912-2.913V37.677c0-1.603,1.311-2.913,2.912-2.913h17.419c1.604,0,2.914,1.311,2.914,2.913V72.482z"/>
			</g>
		</g>
	</g>
</g>
<g>
</g>
<g>
</g>
<g>
</g>
<g>
</g>
<g>
</g>
<g>
</g>
<g>
</g>
<g>
</g>
<g>
</g>
<g>
</g>
<g>
</g>
<g>
</g>
<g>
</g>
<g>
</g>
<g>
</g>
</svg>
