<?xml version="1.0" encoding="iso-8859-1"?>
<!-- Generator: Adobe Illustrator 19.0.0, SVG Export Plug-In . SVG Version: 6.00 Build 0)  -->
<svg version="1.1" id="Layer_1" xmlns="http://www.w3.org/2000/svg" xmlns:xlink="http://www.w3.org/1999/xlink" x="0px" y="0px"
	 viewBox="0 0 512 512" style="enable-background:new 0 0 512 512;" xml:space="preserve">
<g>
	<g>
		<path d="M162.523,341.896l-16.578,15.951L132.25,371.02l-13.413,12.901c6.497,28.81,17.737,56.075,34.921,78.262
			c3.144,4.064,6.445,7.897,9.913,11.48l11.282-10.853l11.292-10.864l45.336-43.612L162.523,341.896z"/>
	</g>
</g>
<g>
	<g>
		<polygon points="254.187,253.721 185.128,320.158 254.187,386.595 323.246,320.158 		"/>
	</g>
</g>
<g>
	<g>
		<path d="M391.021,240.862c-9.182-35.496-26.972-59.073-45.806-74.71l-11.355,10.916l-11.532,11.104l-45.534,43.8l69.059,66.437
			l20.568-19.785l13.831-13.308l13.465-12.953C392.88,248.435,391.982,244.591,391.021,240.862z"/>
	</g>
</g>
<g>
	<g>
		<path d="M399.189,290.585l-14.813,14.248l-15.46,14.875l-0.46,0.449l0.449,0.428l15.189,14.614l14.614,14.06
			C400.694,329.423,400.725,309.503,399.189,290.585z"/>
	</g>
</g>
<g>
	<g>
		<path d="M127.508,308.218l-14.948-14.384c-1.201,16.923-1.149,34.587,0.428,52.23l14.76-14.196l12.17-11.71L127.508,308.218z"/>
	</g>
</g>
<g>
	<g>
		<path d="M187.552,189.613l-11.376-10.937l-11.313-10.885c-18.113,15.617-35.015,38.786-43.884,73.07
			c-1.201,4.648-2.298,9.464-3.291,14.416l13.559,13.047l13.946,13.413l17.33,16.672l69.059-66.437L187.552,189.613z"/>
	</g>
</g>
<g>
	<g>
		<path d="M309.802,483.566l-12.023-11.564l-43.591-41.931l-42.38,40.771l-11.909,11.459L188.22,493.53
			c19.733,12.181,42.61,18.47,67.785,18.47c24.235,0,46.328-5.829,65.539-17.121L309.802,483.566z"/>
	</g>
</g>
<g>
	<g>
		<path d="M379.196,373.976l-13.59-13.078l-19.754-19.001l-69.07,66.437l47.195,45.409l11.303,10.864l11.282,10.853
			c4.105-4.095,8.002-8.524,11.689-13.277c16.609-21.456,27.672-47.655,34.253-75.41L379.196,373.976z"/>
	</g>
</g>
<g>
	<g>
		<path d="M361.176,49.176L358.7,24.429L337.453,37.34c-18.099,10.988-32.782,22.08-44.035,33.225
			c-5.09-15.035-13.292-31.561-24.613-49.528L255.547,0L242.29,21.037c-11.274,17.892-19.454,34.355-24.548,49.34
			c-11.26-11.16-25.955-22.265-44.073-33.267l-21.258-12.911l-2.465,24.747c-4.116,41.189-0.084,72.235,11.971,92.657
			c3.552,6.027,7.803,11.135,12.755,15.303c0.71,0.595,1.421,1.16,2.131,1.713c5.296,3.99,10.874,6.591,16.306,8.2
			c5.495,1.63,10.833,2.246,15.554,2.246c0.909,0,1.797-0.021,2.653-0.073l4.325,4.158l38.546,37.084l39.444-37.94l3.405-3.291
			c1.682,0.188,3.499,0.292,5.422,0.292c4.941,0,10.582-0.679,16.369-2.507c5.369-1.682,10.864-4.356,16.056-8.388
			c0.522-0.407,1.045-0.825,1.567-1.264c4.502-3.792,8.43-8.357,11.773-13.695C361.04,123.051,365.386,91.462,361.176,49.176z"/>
	</g>
</g>
<g>
</g>
<g>
</g>
<g>
</g>
<g>
</g>
<g>
</g>
<g>
</g>
<g>
</g>
<g>
</g>
<g>
</g>
<g>
</g>
<g>
</g>
<g>
</g>
<g>
</g>
<g>
</g>
<g>
</g>
</svg>
