<?xml version="1.0" encoding="iso-8859-1"?>
<!-- Generator: Adobe Illustrator 19.0.0, SVG Export Plug-In . SVG Version: 6.00 Build 0)  -->
<svg version="1.1" id="Capa_1" xmlns="http://www.w3.org/2000/svg" xmlns:xlink="http://www.w3.org/1999/xlink" x="0px" y="0px"
	 viewBox="0 0 490 490" style="enable-background:new 0 0 490 490;" xml:space="preserve">
<g>
	<g>
		<g>
			<path d="M418.025,73.488c-95.7-95.7-250.4-95.7-346.5-0.8l31.5,31.5l30.7-30.7c3.9-3.9,10.1-3.9,13.6,0c3.9,3.9,3.9,10.1,0,13.6
				l-30.7,30.7l16.3,16.3l0,0l18.3-18.3c3.9-3.9,10.1-3.9,13.6,0c3.9,3.9,3.9,10.1,0,13.6l-18.3,18.3l16.3,16.3l0,0l30.7-30.7
				c3.9-3.9,10.1-3.9,13.6,0c3.9,3.9,3.9,10.1,0,13.6l-30.7,30.7l0,0l16.3,16.3l18.3-18.3c3.9-3.9,10.1-3.9,13.6,0
				c3.9,3.9,3.9,10.1,0,13.6l-18.3,18.3l0,0l16.3,16.3l30.7-30.7c3.9-3.9,10.1-3.9,13.6,0c3.9,3.9,3.9,10.1,0,13.6l-29.9,31.5
				l16.3,16.3l0,0l18.3-18.3c3.9-3.9,10.1-3.9,13.6,0c3.9,3.9,3.9,10.1,0,13.6l-18.3,18.3l0,0l16.3,16.3l0,0l30.7-30.7
				c3.9-3.9,10.1-3.9,13.6,0c3.9,3.9,3.9,10.1,0,13.6l-30.7,30.7l0,0l16.3,16.3l18.3-18.3c3.9-3.9,10.1-3.9,13.6,0
				c3.9,3.9,3.9,10.1,0,13.6l-18,18.6l16.3,16.3l30.7-30.7c3.9-3.9,10.1-3.9,13.6,0c3.9,3.9,3.9,10.1,0,13.6l-30.6,30.7l16.3,16.3
				l18.3-18.3c3.9-3.9,10.1-3.9,13.6,0s3.9,10.1,0,13.6l-18.3,18.3l31.5,31.5C514.125,323.888,513.725,169.088,418.025,73.488z
				 M402.825,288.088l-199.5-199.5c54.4-14,114.3,0.4,156.7,42.8S416.825,234.088,402.825,288.088z"/>
			
				<rect x="130.623" y="219.209" transform="matrix(0.7071 -0.7071 0.7071 0.7071 -210.2892 208.0322)" width="30.7" height="277.297"/>
			
				<rect x="42.67" y="307.141" transform="matrix(0.7071 0.7071 -0.7071 0.7071 281.1429 -33.7564)" width="277.297" height="30.7"/>
			<path d="M61.025,180.388c-5.1-5.1-13.6-5.1-18.7,0l-38.5,38.5c-5.1,5.1-5.1,13.6,0,18.7l19.5,19.4l57.2-57.2L61.025,180.388z"/>
			<polygon points="299.425,428.088 251.625,475.988 311.825,488.388 			"/>
		</g>
	</g>
</g>
<g>
</g>
<g>
</g>
<g>
</g>
<g>
</g>
<g>
</g>
<g>
</g>
<g>
</g>
<g>
</g>
<g>
</g>
<g>
</g>
<g>
</g>
<g>
</g>
<g>
</g>
<g>
</g>
<g>
</g>
</svg>
