<?xml version="1.0" encoding="iso-8859-1"?>
<!-- Generator: Adobe Illustrator 18.0.0, SVG Export Plug-In . SVG Version: 6.00 Build 0)  -->
<!DOCTYPE svg PUBLIC "-//W3C//DTD SVG 1.1//EN" "http://www.w3.org/Graphics/SVG/1.1/DTD/svg11.dtd">
<svg version="1.1" id="Capa_1" xmlns="http://www.w3.org/2000/svg" xmlns:xlink="http://www.w3.org/1999/xlink" x="0px" y="0px"
	 viewBox="0 0 482.823 482.823" style="enable-background:new 0 0 482.823 482.823;" xml:space="preserve">
<g id="XMLID_111_">
	<path id="XMLID_119_" d="M185.314,126.381c0.633-4.531,2.016-20.708-4.688-33.957c-9.151,4.87-17.738,10.794-25.706,17.651
		c10.596,4.009,20.765,9.623,30.38,16.75C185.314,126.673,185.301,126.531,185.314,126.381z"/>
	<path id="XMLID_118_" d="M327.915,110.075c-9.486-8.155-19.796-15.134-30.882-20.447c1.996,12.822,2.628,25.079,2.219,35.936
		C308.341,119.031,317.958,113.852,327.915,110.075z"/>
	<path id="XMLID_117_" d="M176.447,46.865c41.274,16.797,42.663,60.984,41.603,77.796c7.682-1.661,15.488-2.564,23.362-2.564
		c8.587,0,17.074,1.045,25.42,3.018c1.836-38.059-10.974-98.455-72.044-123.305c-12.431-5.084-26.642,0.912-31.708,13.358
		C158.009,27.608,163.998,41.807,176.447,46.865z"/>
	<path id="XMLID_112_" d="M367.559,135.123c-27.764,0-53.103,14.77-72.708,39.12c-15.904-12.567-34.102-19.71-53.438-19.71
		c-19.338,0-37.536,7.143-53.42,19.701c-19.604-24.351-44.963-39.111-72.727-39.111c-62.069,0-112.401,73.493-112.401,164.141
		c0,90.655,50.332,164.15,112.401,164.15c19.338,0,37.536-7.142,53.42-19.71c19.605,24.351,44.982,39.119,72.727,39.119
		c27.745,0,53.122-14.769,72.726-39.119c15.904,12.568,34.082,19.71,53.42,19.71c62.069,0,112.401-73.495,112.401-164.15
		C479.96,208.616,429.628,135.123,367.559,135.123z M276.269,247.159l52.217-27.186c2.697-1.392,5.909-1.249,8.458,0.372
		c2.535,1.634,4.023,4.491,3.9,7.518l-2.759,58.811c-0.144,3.009-1.867,5.72-4.558,7.104c-2.667,1.387-5.897,1.243-8.427-0.38
		l-49.476-31.636c-2.536-1.624-4.023-4.473-3.9-7.489C271.866,251.26,273.597,248.545,276.269,247.159z M145.881,220.344
		c2.548-1.621,5.767-1.764,8.458-0.372l52.216,27.186c2.672,1.386,4.403,4.101,4.545,7.112c0.124,3.016-1.364,5.865-3.899,7.489
		l-49.478,31.636c-2.529,1.623-5.76,1.767-8.425,0.38c-2.691-1.385-4.414-4.095-4.557-7.104l-2.759-58.811
		C141.857,224.835,143.345,221.978,145.881,220.344z M331.146,402.248c-12.227,5.323-24.67-8.621-35.601-14.418
		c-4.433,7.459-9.505,14.784-15.172,21.879c-4.147,5.203-11.655,6.222-17.075,2.319c-7.347-5.314-14.155-11.008-20.367-16.995
		c-6.237,5.986-13.032,11.681-20.379,16.995c-5.4,3.912-12.908,2.873-17.076-2.329c-5.667-7.095-10.719-14.411-15.159-21.87
		c-10.893,5.803-23.355,19.726-35.57,14.427c-12.196-5.298-26.859-23.984-30.251-36.053c3.392-12.068,18.055-30.759,30.251-36.058
		c12.214-5.298,24.677,8.626,35.57,14.428c4.911-8.283,10.614-16.383,17.044-24.208c3.15-3.816,8.711-4.56,12.747-1.733
		c8.284,5.804,15.903,12.094,22.823,18.737c6.212-5.986,13.02-11.681,20.367-16.994c5.419-3.912,12.927-2.891,17.075,2.322
		c5.667,7.092,10.739,14.418,15.172,21.876c10.931-5.794,23.374-19.741,35.601-14.418c12.183,5.313,26.833,23.979,30.219,36.047
		C357.979,378.273,343.329,396.935,331.146,402.248z"/>
</g>
<g>
</g>
<g>
</g>
<g>
</g>
<g>
</g>
<g>
</g>
<g>
</g>
<g>
</g>
<g>
</g>
<g>
</g>
<g>
</g>
<g>
</g>
<g>
</g>
<g>
</g>
<g>
</g>
<g>
</g>
</svg>
