<?xml version="1.0" encoding="iso-8859-1"?>
<!-- Generator: Adobe Illustrator 18.0.0, SVG Export Plug-In . SVG Version: 6.00 Build 0)  -->
<!DOCTYPE svg PUBLIC "-//W3C//DTD SVG 1.1//EN" "http://www.w3.org/Graphics/SVG/1.1/DTD/svg11.dtd">
<svg version="1.1" id="Capa_1" xmlns="http://www.w3.org/2000/svg" xmlns:xlink="http://www.w3.org/1999/xlink" x="0px" y="0px"
	 viewBox="0 0 59.5 59.5" style="enable-background:new 0 0 59.5 59.5;" xml:space="preserve">
<path id="XMLID_62_" d="M31.938,36.837c0,6.024-4.9,10.924-10.925,10.924s-10.925-4.9-10.925-10.924s4.9-10.925,10.925-10.925
	S31.938,30.813,31.938,36.837z M59.5,21.834v30.005c0,4.004-3.246,7.25-7.25,7.25h-45c-4.004,0-7.25-3.246-7.25-7.25V21.834
	c0-4.004,3.246-7.25,7.25-7.25h35.623L6.186,3.346C5.394,3.103,4.948,2.264,5.19,1.472C5.434,0.68,6.271,0.234,7.064,0.478
	l46.416,14.218C56.897,15.282,59.5,18.251,59.5,21.834z M34.938,36.837c0-7.678-6.247-13.925-13.925-13.925
	S7.089,29.158,7.089,36.837c0,7.678,6.247,13.924,13.925,13.924S34.938,44.514,34.938,36.837z M50.625,37.685
	c0-0.829-0.672-1.5-1.5-1.5s-1.5,0.671-1.5,1.5v11.576c0,0.829,0.672,1.5,1.5,1.5s1.5-0.671,1.5-1.5V37.685z M52.352,27.55
	c0-1.782-1.445-3.227-3.227-3.227s-3.227,1.445-3.227,3.227s1.445,3.227,3.227,3.227S52.352,29.332,52.352,27.55z"/>
<g>
</g>
<g>
</g>
<g>
</g>
<g>
</g>
<g>
</g>
<g>
</g>
<g>
</g>
<g>
</g>
<g>
</g>
<g>
</g>
<g>
</g>
<g>
</g>
<g>
</g>
<g>
</g>
<g>
</g>
</svg>
