<?xml version="1.0" encoding="iso-8859-1"?>
<!-- Generator: Adobe Illustrator 18.1.1, SVG Export Plug-In . SVG Version: 6.00 Build 0)  -->
<svg version="1.1" id="Capa_1" xmlns="http://www.w3.org/2000/svg" xmlns:xlink="http://www.w3.org/1999/xlink" x="0px" y="0px"
	 viewBox="0 0 28.546 28.546" style="enable-background:new 0 0 28.546 28.546;" xml:space="preserve">
<g>
	<path d="M9.207,11.596l1.297,1.111c0.23-0.264,0.469-0.527,0.707-0.789l-1.309-1.123l0.77-0.9l1.342,1.15
		c0.209-0.219,0.414-0.441,0.627-0.662l-1.305-1.117l0.77-0.9l1.369,1.178c0.273-0.273,0.551-0.539,0.828-0.805l-1.354-1.163
		l0.771-0.898l1.451,1.246c0.248-0.225,0.496-0.449,0.748-0.672l-1.504-1.289l0.77-0.902l1.648,1.42
		c2.883-2.4,6.064-4.459,9.471-5.756C25.203,0.271,23.451,0,21.371,0C16.453,0,9.736,1.504,5.625,5.619
		c-5.965,5.971-6.441,17.424-4.801,20.91c0,0,3.34-6.354,8.904-12.924l-1.293-1.111L9.207,11.596z"/>
	<path d="M27.535,1.678c-0.004,0.002-4.064,1.555-9.396,5.92l0.789,0.676l-0.77,0.898L17.22,8.369
		c-0.252,0.211-0.504,0.434-0.76,0.66l1,0.857l-0.768,0.902l-1.113-0.957c-0.279,0.258-0.559,0.52-0.84,0.793l1.107,0.951
		l-0.77,0.896l-1.18-1.01c-0.213,0.215-0.424,0.434-0.637,0.656l1.154,0.988l-0.771,0.898l-1.193-1.021
		c-0.236,0.254-0.475,0.516-0.713,0.783l1.211,1.039l-0.77,0.898l-1.213-1.041c-2.975,3.496-5.979,7.828-8.654,13.182
		c1.102,0.441,2.816,0.703,4.857,0.703c4.92,0,11.641-1.504,15.752-5.619C29.101,16.742,29.39,4.67,27.535,1.678z"/>
	<g>
	</g>
	<g>
	</g>
	<g>
	</g>
	<g>
	</g>
	<g>
	</g>
	<g>
	</g>
	<g>
	</g>
	<g>
	</g>
	<g>
	</g>
	<g>
	</g>
	<g>
	</g>
	<g>
	</g>
	<g>
	</g>
	<g>
	</g>
	<g>
	</g>
</g>
<g>
</g>
<g>
</g>
<g>
</g>
<g>
</g>
<g>
</g>
<g>
</g>
<g>
</g>
<g>
</g>
<g>
</g>
<g>
</g>
<g>
</g>
<g>
</g>
<g>
</g>
<g>
</g>
<g>
</g>
</svg>
