<?xml version="1.0" encoding="iso-8859-1"?>
<!-- Generator: Adobe Illustrator 16.0.0, SVG Export Plug-In . SVG Version: 6.00 Build 0)  -->
<!DOCTYPE svg PUBLIC "-//W3C//DTD SVG 1.1//EN" "http://www.w3.org/Graphics/SVG/1.1/DTD/svg11.dtd">
<svg version="1.1" id="Capa_1" xmlns="http://www.w3.org/2000/svg" xmlns:xlink="http://www.w3.org/1999/xlink" x="0px" y="0px"
	 width="45.874px" height="45.874px" viewBox="0 0 45.874 45.874" style="enable-background:new 0 0 45.874 45.874;"
	 xml:space="preserve">
<g>
	<path d="M41.54,35.27c2.111-11.303-1.988-22.896-10.775-30.354l-0.326-0.275C27.653,1.781,23.767,0,19.46,0
		C10.995,0,4.131,6.904,4.131,15.37c0,1.311,0.185,2.486,0.499,3.707c-1.84,0.95-3.09,2.87-3.09,5.08v1.444
		c0,3.149,2.54,5.739,5.689,5.739h24.463c0.801,0,1.562-0.179,2.254-0.479l1.082,4.898c-1.278,1.047-2.1,2.635-2.1,4.413
		c0,3.146,2.561,5.701,5.703,5.701c3.145,0,5.702-2.56,5.702-5.704C44.335,38.09,43.212,36.264,41.54,35.27z M34.423,25.635
		c0,1.494-1.211,2.706-2.705,2.706H7.248c-1.495,0-2.705-1.212-2.705-2.706v-1.459c0-1.495,1.21-2.706,2.705-2.706h24.47
		c1.494,0,2.705,1.211,2.705,2.706V25.635z M38.633,42.866c-1.485,0-2.694-1.21-2.694-2.695s1.209-2.692,2.694-2.692
		s2.694,1.207,2.694,2.692S40.119,42.866,38.633,42.866z"/>
</g>
<g>
</g>
<g>
</g>
<g>
</g>
<g>
</g>
<g>
</g>
<g>
</g>
<g>
</g>
<g>
</g>
<g>
</g>
<g>
</g>
<g>
</g>
<g>
</g>
<g>
</g>
<g>
</g>
<g>
</g>
</svg>
