<?xml version="1.0" encoding="iso-8859-1"?>
<!-- Generator: Adobe Illustrator 18.0.0, SVG Export Plug-In . SVG Version: 6.00 Build 0)  -->
<!DOCTYPE svg PUBLIC "-//W3C//DTD SVG 1.1//EN" "http://www.w3.org/Graphics/SVG/1.1/DTD/svg11.dtd">
<svg version="1.1" id="Capa_1" xmlns="http://www.w3.org/2000/svg" xmlns:xlink="http://www.w3.org/1999/xlink" x="0px" y="0px"
	 viewBox="0 0 291.337 291.337" style="enable-background:new 0 0 291.337 291.337;" xml:space="preserve">
<g>
	<path d="M130.243,89.398c4.956-1.808,10.144-2.724,15.42-2.724c5.276,0,10.464,0.917,15.421,2.725
		c9.326,3.402,41.761,15.234,51.438,18.763V55.35c0-8.284-6.716-15-15-15h-36.859V15c0-8.284-6.716-15-15-15
		c-8.284,0-15,6.716-15,15v25.35h-36.86c-8.284,0-15,6.716-15,15v52.813C88.46,104.639,120.784,92.849,130.243,89.398z"/>
	<path d="M237.629,149.254l-43.413-15.836l-43.413-15.836c-1.66-0.605-3.4-0.908-5.141-0.908h0c-1.74,0-3.481,0.303-5.141,0.908
		l-86.826,31.672c-7.642,2.779-11.759,11.303-8.999,19.098l40,112.991c2.098,5.929,7.768,9.994,14.14,9.994
		c25.346,0,87.535,0,93.652,0c6.333,0,12.026-4.022,14.14-9.994l40-112.991C249.52,160.184,244.884,151.892,237.629,149.254z"/>
</g>
<g>
</g>
<g>
</g>
<g>
</g>
<g>
</g>
<g>
</g>
<g>
</g>
<g>
</g>
<g>
</g>
<g>
</g>
<g>
</g>
<g>
</g>
<g>
</g>
<g>
</g>
<g>
</g>
<g>
</g>
</svg>
