<?xml version="1.0" encoding="iso-8859-1"?>
<!-- Generator: Adobe Illustrator 16.0.0, SVG Export Plug-In . SVG Version: 6.00 Build 0)  -->
<!DOCTYPE svg PUBLIC "-//W3C//DTD SVG 1.1//EN" "http://www.w3.org/Graphics/SVG/1.1/DTD/svg11.dtd">
<svg version="1.1" id="Capa_1" xmlns="http://www.w3.org/2000/svg" xmlns:xlink="http://www.w3.org/1999/xlink" x="0px" y="0px"
	 width="61.401px" height="61.401px" viewBox="0 0 61.401 61.401" style="enable-background:new 0 0 61.401 61.401;"
	 xml:space="preserve">
<g>
	<g>
		<path d="M9.511,46.862H9.437C9.463,47.089,9.511,46.862,9.511,46.862z"/>
		<path d="M7.175,46.862h2.262c-0.045-0.394-0.022-2.147,0.434-8.805c0.719-10.513,12.579,1.618,19.319,7.367
			c6.739,5.752,23.272,0.72,30.011-1.707c6.738-2.426-3.863-7.099-7.008-7.638c-1.707-0.293-2.357-0.792-3.109-0.746
			c-2.643-1.244-5.335-0.996-8.196-0.688c-1.937,0.207-3.803,0.304-5.713-0.163c-2.219-0.542-4.285-2.253-6.019-3.647
			c-5.522-4.439-11.151-9.033-17.463-12.342c-1.67-1.651-2.72-2.72-2.72-2.72s-3.234-4.852-5.661-0.899
			C0.885,18.829-1.9,24.04,1.784,30.519C5.468,36.998,7.175,46.862,7.175,46.862z M29.051,32.127
			c2.141,1.721,4.761,3.54,7.598,3.729c3.65,0.243,7.532-1.102,11.05,0.07c-0.388,0.269-0.851,0.637-1.437,1.142
			c-3.235,2.785-6.739,1.886-12.311,0.179c-3.61-1.106-13.029-9.795-19.213-15.776C19.792,24.603,24.453,28.431,29.051,32.127z"/>
	</g>
</g>
<g>
</g>
<g>
</g>
<g>
</g>
<g>
</g>
<g>
</g>
<g>
</g>
<g>
</g>
<g>
</g>
<g>
</g>
<g>
</g>
<g>
</g>
<g>
</g>
<g>
</g>
<g>
</g>
<g>
</g>
</svg>
