<?xml version="1.0" encoding="iso-8859-1"?>
<!-- Generator: Adobe Illustrator 19.0.0, SVG Export Plug-In . SVG Version: 6.00 Build 0)  -->
<svg version="1.1" id="Layer_1" xmlns="http://www.w3.org/2000/svg" xmlns:xlink="http://www.w3.org/1999/xlink" x="0px" y="0px"
	 viewBox="0 0 512 512" style="enable-background:new 0 0 512 512;" xml:space="preserve">
<g>
	<g>
		<path d="M356.174,144.696h-44.522c-9.206,0-16.696-7.49-16.696-16.696v-27.826h-83.478c-9.217,0-16.696-7.473-16.696-16.696
			s7.479-16.696,16.696-16.696h83.478V16.696C294.957,7.473,287.478,0,278.261,0H55.652c-9.217,0-16.696,7.473-16.696,16.696
			v278.261c0,27.619,22.468,50.087,50.087,50.087h333.913c27.619,0,50.087-22.468,50.087-50.087v-33.391
			C473.043,197.124,420.619,144.696,356.174,144.696z M439.652,294.957c0,9.206-7.49,16.696-16.696,16.696H89.044
			c-9.206,0-16.696-7.49-16.696-16.696v-16.696h367.304V294.957z"/>
	</g>
</g>
<g>
	<g>
		<path d="M389.565,345.043c-27.323,0-51.545,13.252-66.783,33.602c-15.238-20.35-39.46-33.602-66.783-33.602
			s-51.545,13.252-66.783,33.602c-15.238-20.35-39.46-33.602-66.783-33.602c-46.032,0-83.478,37.446-83.478,83.478
			c0,46.032,37.446,83.478,83.478,83.478c27.323,0,51.545-13.252,66.783-33.602C204.455,498.748,228.677,512,256,512
			s51.545-13.252,66.783-33.602C338.02,498.748,362.242,512,389.565,512c46.032,0,83.478-37.446,83.478-83.478
			C473.043,382.49,435.597,345.043,389.565,345.043z M122.435,445.217c-9.22,0-16.696-7.475-16.696-16.696
			s7.475-16.696,16.696-16.696c9.22,0,16.696,7.475,16.696,16.696S131.655,445.217,122.435,445.217z M256,445.217
			c-9.22,0-16.696-7.475-16.696-16.696s7.475-16.696,16.696-16.696c9.22,0,16.696,7.475,16.696,16.696S265.22,445.217,256,445.217z
			 M389.565,445.217c-9.22,0-16.696-7.475-16.696-16.696s7.475-16.696,16.696-16.696c9.22,0,16.696,7.475,16.696,16.696
			S398.786,445.217,389.565,445.217z"/>
	</g>
</g>
<g>
</g>
<g>
</g>
<g>
</g>
<g>
</g>
<g>
</g>
<g>
</g>
<g>
</g>
<g>
</g>
<g>
</g>
<g>
</g>
<g>
</g>
<g>
</g>
<g>
</g>
<g>
</g>
<g>
</g>
</svg>
