<?xml version="1.0" encoding="iso-8859-1"?>
<!-- Generator: Adobe Illustrator 19.0.0, SVG Export Plug-In . SVG Version: 6.00 Build 0)  -->
<svg version="1.1" id="Layer_1" xmlns="http://www.w3.org/2000/svg" xmlns:xlink="http://www.w3.org/1999/xlink" x="0px" y="0px"
	 viewBox="0 0 511.349 511.349" style="enable-background:new 0 0 511.349 511.349;" xml:space="preserve">
<g transform="translate(0 1)">
	<g>
		<g>
			<path d="M511.218,391.148v-68.267c0-5.12-3.413-8.533-8.533-8.533H271.852l210.352-48.64c1.707-0.853,4.267-2.56,5.12-4.267
				c1.707-1.707,1.707-4.267,0.853-6.827l-8.907-29.463l19.147-4.67c4.267-0.853,6.827-5.973,5.973-10.24l-8.533-33.28v-0.853
				c-6.827-34.987-28.16-50.347-45.227-58.027C382.447,89.103,254.671,135.04,69.009,255.036
				c-35.954,3.755-66.55,32.77-68.937,66.992c-0.853,18.773,5.973,37.547,19.627,52.053c14.507,16.213,35.84,25.6,57.173,25.6
				h426.667C508.658,399.681,512.071,396.268,511.218,391.148z M195.485,314.348h-50.347c-0.288,0-0.591,0-0.898-0.001
				c-2.487-0.003-4.938-0.27-7.322-0.763c-0.103-0.031-0.212-0.055-0.313-0.088l-0.853-3.413l327.68-80.213l5.973,20.48
				L195.485,314.348z M442.951,133.441c18.773,8.533,30.72,23.893,34.987,46.08c0.853,1.707,0.853,2.56,0.853,2.56l5.973,24.747
				l-371.2,90.453l-14.507-29.013c-0.853-2.56-3.413-5.973-5.973-7.68C307.271,123.201,401.991,115.521,442.951,133.441z
				 M495.005,382.614H76.871c-16.213,0-33.28-7.68-45.227-19.627c-10.24-11.093-15.36-24.747-14.507-39.253
				c1.707-28.16,29.013-52.053,59.733-52.053c3.413,0,5.973,1.707,7.68,5.12l14.507,29.013c6.433,9.649,15.56,17.275,26.111,21.614
				c0.378,0.228,0.771,0.431,1.196,0.573c5.375,2.304,11.435,3.218,16.949,3.38c0.606,0.021,1.215,0.033,1.825,0.033h51.2h1.707
				h296.96V382.614z"/>
			<path d="M59.805,314.348c-9.387,0-17.067,7.68-17.067,17.067s7.68,17.067,17.067,17.067s17.067-7.68,17.067-17.067
				S69.191,314.348,59.805,314.348z"/>
		</g>
	</g>
</g>
<g>
</g>
<g>
</g>
<g>
</g>
<g>
</g>
<g>
</g>
<g>
</g>
<g>
</g>
<g>
</g>
<g>
</g>
<g>
</g>
<g>
</g>
<g>
</g>
<g>
</g>
<g>
</g>
<g>
</g>
</svg>
