<?xml version="1.0" encoding="iso-8859-1"?>
<!-- Generator: Adobe Illustrator 19.0.0, SVG Export Plug-In . SVG Version: 6.00 Build 0)  -->
<svg version="1.1" id="Layer_1" xmlns="http://www.w3.org/2000/svg" xmlns:xlink="http://www.w3.org/1999/xlink" x="0px" y="0px"
	 viewBox="0 0 455 455" style="enable-background:new 0 0 455 455;" xml:space="preserve">
<g>
	<path d="M153.576,95.308h147.848c6.217,0,12.356,0.503,18.377,1.474c5.567-15.073,6.117-31.208,1.526-45.691
		c-15.617-4.951-33.151-3.914-49.206,2.934C264.352,30.174,248.174,10.72,227.5,0c-20.674,10.72-36.852,30.174-44.62,54.025
		c-16.055-6.848-33.589-7.885-49.206-2.934c-4.592,14.483-4.041,30.618,1.526,45.691C141.219,95.811,147.359,95.308,153.576,95.308z
		"/>
	<path d="M301.424,125.308H153.576c-46.336,0-83.898,37.562-83.898,83.898c0,14.74,3.806,28.585,10.482,40.624l97.45,175.763
		C187.333,443.126,206.029,455,227.5,455s40.167-11.874,49.891-29.407l97.45-175.763c6.676-12.038,10.482-25.883,10.482-40.624
		C385.322,162.87,347.76,125.308,301.424,125.308z M183.5,223.172h-30v-40h30V223.172z M253.56,332.818h-30v-40h30V332.818z
		 M309.56,267.49h-30v-40h30V267.49z"/>
</g>
<g>
</g>
<g>
</g>
<g>
</g>
<g>
</g>
<g>
</g>
<g>
</g>
<g>
</g>
<g>
</g>
<g>
</g>
<g>
</g>
<g>
</g>
<g>
</g>
<g>
</g>
<g>
</g>
<g>
</g>
</svg>
