<?xml version="1.0" encoding="iso-8859-1"?>
<!-- Generator: Adobe Illustrator 19.0.0, SVG Export Plug-In . SVG Version: 6.00 Build 0)  -->
<svg version="1.1" id="Layer_1" xmlns="http://www.w3.org/2000/svg" xmlns:xlink="http://www.w3.org/1999/xlink" x="0px" y="0px"
	 viewBox="0 0 511.999 511.999" style="enable-background:new 0 0 511.999 511.999;" xml:space="preserve">
<g>
	<g>
		<g>
			<path d="M457.886,441.378H348.945c27.931-11.07,49.196-26.924,65.333-46.151c64.353-9.931,93.308-63.409,93.308-112.922
				c0-34.948-19.147-63.965-44.182-69.57c0-0.309,0.009-0.618,0.009-0.927c0.044-4.661-1.739-9.057-5.014-12.367
				c-3.354-3.372-7.848-5.235-12.65-5.235l-88.232-0.079v49.39l32.724,32.724c1.66,1.651,2.586,3.902,2.586,6.241v70.621
				c0,4.873-3.946,8.828-8.828,8.828h-70.621c-4.873,0-8.828-3.955-8.828-8.828v-70.621c0-2.339,0.936-4.59,2.586-6.241
				l32.724-32.724v-49.408l-97.095-0.079h-0.018l-202.964,0.177c-4.82,0-9.304,1.863-12.659,5.235
				c-3.275,3.31-5.067,7.706-5.023,12.367c0.821,94.738,17.32,191.073,114.476,229.57H27.639c-12.8,0-23.225,10.337-23.225,23.049
				c0,10.726,7.353,18.688,20.021,20.877l111.748,9.013c3.734,0.274,4.996,1.81,5.8,3.434c4.343,8.651,13.277,14.248,22.775,14.248
				h147.191c9.49,0,18.423-5.588,22.74-14.23c0.821-1.642,2.092-3.196,5.835-3.452l120.514-9.004l0.883-0.106
				c11.829-2.092,19.182-10.055,19.182-20.78C481.103,451.715,470.686,441.378,457.886,441.378z M430.203,372.629
				c2.454-4.202,4.687-8.545,6.806-12.959c0.865-1.801,1.73-3.593,2.542-5.42c1.668-3.769,3.222-7.601,4.679-11.494
				c1.042-2.763,2.004-5.544,2.931-8.351c0.424-1.28,0.803-2.586,1.209-3.875c1.827-5.862,3.46-11.776,4.864-17.743
				c0.018-0.071,0.035-0.141,0.053-0.203c4.299-18.308,6.824-36.855,8.218-54.837c0.027-0.238,0.035-0.468,0.062-0.706
				c0.38-4.988,0.706-9.905,0.945-14.769c0.168-3.284,0.318-6.559,0.441-9.852c0.018-0.486,0.053-1.006,0.071-1.501
				c15.245,5.826,26.906,26.995,26.906,51.385c0,34.489-16.207,76.067-60.178,91.18
				C429.921,373.203,430.035,372.911,430.203,372.629z M198.505,407.542c-0.733,4.308-4.467,7.353-8.704,7.353
				c-0.486,0-0.98-0.044-1.483-0.124c-70.065-11.891-107.679-52.206-121.962-130.71c-0.883-4.793,2.304-9.393,7.106-10.266
				c4.785-0.812,9.384,2.304,10.258,7.106c12.932,71.027,45.091,105.86,107.547,116.462
				C196.078,398.176,199.317,402.74,198.505,407.542z"/>
			<path d="M227.636,73.058c-13.303,12.685-20.171,26.289-20.392,40.448c-0.221,14.539,6.568,28.919,20.189,42.752
				c1.73,1.757,4.008,2.639,6.294,2.639c2.233,0,4.476-0.847,6.197-2.542c3.469-3.425,3.513-9.013,0.097-12.482
				c-10.187-10.337-15.272-20.462-15.122-30.084c0.15-9.251,5.164-18.662,14.848-27.878c13.542-12.615,20.498-26.341,20.665-40.819
				c0.185-14.777-6.718-29.105-20.515-42.584c-3.496-3.399-9.075-3.337-12.491,0.15c-3.407,3.487-3.337,9.075,0.15,12.482
				c10.205,9.966,15.325,19.977,15.201,29.74C242.652,54.334,237.594,63.798,227.636,73.058z"/>
			<path d="M333.567,73.058c-13.303,12.685-20.171,26.289-20.392,40.448c-0.221,14.539,6.568,28.919,20.189,42.752
				c1.73,1.757,4.008,2.639,6.294,2.639c2.233,0,4.476-0.847,6.197-2.542c3.469-3.425,3.513-9.013,0.097-12.482
				c-10.187-10.337-15.272-20.462-15.122-30.084c0.15-9.251,5.164-18.662,14.848-27.878c13.542-12.615,20.498-26.341,20.665-40.819
				c0.185-14.777-6.718-29.105-20.515-42.584c-3.487-3.399-9.066-3.337-12.491,0.15c-3.407,3.487-3.337,9.075,0.15,12.482
				c10.205,9.966,15.325,19.977,15.201,29.74C348.583,54.334,343.525,63.798,333.567,73.058z"/>
			<path d="M139.153,73.058c-13.303,12.685-20.171,26.289-20.392,40.448c-0.221,14.539,6.568,28.919,20.189,42.752
				c1.73,1.757,4.008,2.639,6.294,2.639c2.233,0,4.476-0.847,6.197-2.542c3.469-3.425,3.513-9.013,0.097-12.482
				c-10.187-10.337-15.272-20.462-15.122-30.084c0.15-9.251,5.164-18.662,14.848-27.878c13.542-12.615,20.498-26.341,20.665-40.819
				c0.185-14.777-6.718-29.105-20.515-42.584c-3.496-3.399-9.066-3.337-12.491,0.15c-3.407,3.487-3.337,9.075,0.15,12.482
				c10.205,9.966,15.325,19.977,15.201,29.74C154.169,54.334,149.111,63.798,139.153,73.058z"/>
			<polygon points="322.21,344.273 375.175,344.273 375.175,286.134 348.693,259.652 322.21,286.134 			"/>
		</g>
	</g>
</g>
<g>
</g>
<g>
</g>
<g>
</g>
<g>
</g>
<g>
</g>
<g>
</g>
<g>
</g>
<g>
</g>
<g>
</g>
<g>
</g>
<g>
</g>
<g>
</g>
<g>
</g>
<g>
</g>
<g>
</g>
</svg>
