<?xml version="1.0" encoding="iso-8859-1"?>
<!-- Generator: Adobe Illustrator 19.0.0, SVG Export Plug-In . SVG Version: 6.00 Build 0)  -->
<svg version="1.1" id="Capa_1" xmlns="http://www.w3.org/2000/svg" xmlns:xlink="http://www.w3.org/1999/xlink" x="0px" y="0px"
	 viewBox="0 0 236 236" style="enable-background:new 0 0 236 236;" xml:space="preserve">
<path d="M200.328,224.032L179.872,189h0.158c8.284,0,14.667-6.716,14.667-15V39c0-8.284-6.382-15-14.667-15h-20.559l-9.14-16.861
	C148.124,3.069,143.061,0,138.552,0H98.4c-4.515,0-9.578,3.058-11.783,7.12L77.497,24H57.031c-8.284,0-15.333,6.716-15.333,15v135
	c0,8.008,6.447,14.531,14.348,14.959l-20.398,35.076c-1.576,2.7-1.65,5.749-0.268,8.155c1.391,2.422,4.023,3.811,7.15,3.811h29
	c4.67,0,9.657-3.295,11.6-7.664L100.63,189h34.802l17.5,39.335c1.942,4.37,6.929,7.665,11.599,7.665h29
	c3.127,0,5.718-1.389,7.108-3.811C202.021,229.783,201.905,226.734,200.328,224.032z M75.528,169.711
	c-8.208,0-14.861-6.654-14.861-14.861s6.654-14.861,14.861-14.861c8.208,0,14.861,6.654,14.861,14.861
	S83.735,169.711,75.528,169.711z M60.697,126V46h114v80H60.697z M160.236,169.711c-8.208,0-14.861-6.654-14.861-14.861
	s6.654-14.861,14.861-14.861s14.861,6.654,14.861,14.861S168.444,169.711,160.236,169.711z"/>
<g>
</g>
<g>
</g>
<g>
</g>
<g>
</g>
<g>
</g>
<g>
</g>
<g>
</g>
<g>
</g>
<g>
</g>
<g>
</g>
<g>
</g>
<g>
</g>
<g>
</g>
<g>
</g>
<g>
</g>
</svg>
