<?xml version="1.0" encoding="iso-8859-1"?>
<!-- Generator: Adobe Illustrator 19.0.0, SVG Export Plug-In . SVG Version: 6.00 Build 0)  -->
<svg version="1.1" id="Layer_1" xmlns="http://www.w3.org/2000/svg" xmlns:xlink="http://www.w3.org/1999/xlink" x="0px" y="0px"
	 viewBox="0 0 512 512" style="enable-background:new 0 0 512 512;" xml:space="preserve">
<rect x="31.845" y="384.092" style="fill:#9B4573;" width="448.313" height="48.032"/>
<g>
	<rect x="63.866" y="432.125" style="fill:#FEB860;" width="64.043" height="72.049"/>
	<rect x="384.092" y="432.125" style="fill:#FEB860;" width="64.043" height="72.049"/>
</g>
<g>
	<rect x="7.828" y="135.914" style="fill:#FEC986;" width="32.023" height="80.054"/>
	<rect x="472.151" y="135.914" style="fill:#FEC986;" width="32.023" height="80.054"/>
</g>
<rect x="63.866" y="47.856" style="fill:#FFFFFF;" width="384.27" height="192.13"/>
<rect x="223.974" y="87.882" style="fill:#FEC986;" width="64.043" height="24.016"/>
<g>
	<rect x="63.866" y="7.828" style="fill:#C8546F;" width="384.27" height="40.027"/>
	<rect x="63.866" y="239.995" style="fill:#C8546F;" width="384.27" height="160.108"/>
</g>
<g>
	<circle style="fill:#FEC986;" cx="127.909" cy="320.049" r="32.023"/>
	<circle style="fill:#FEC986;" cx="384.092" cy="320.049" r="32.023"/>
</g>
<g>
	<polygon style="fill:#1D1D1B;" points="487.983,439.95 24.017,439.95 24.017,376.261 47.856,376.261 47.856,391.917 
		39.673,391.917 39.673,424.294 472.327,424.294 472.327,391.917 464.144,391.917 464.144,376.261 487.983,376.261 	"/>
	<polygon style="fill:#1D1D1B;" points="135.739,512 56.039,512 56.039,448.132 71.695,448.132 71.695,496.344 120.083,496.344 
		120.083,448.132 135.739,448.132 	"/>
	<polygon style="fill:#1D1D1B;" points="456.039,512 376.339,512 376.339,448.132 391.995,448.132 391.995,496.344 440.384,496.344 
		440.384,448.132 456.039,448.132 	"/>
	<path style="fill:#1D1D1B;" d="M127.911,359.894c-21.974,0-39.851-17.877-39.851-39.851s17.877-39.851,39.851-39.851
		s39.851,17.877,39.851,39.851S149.885,359.894,127.911,359.894z M127.911,295.85c-13.341,0-24.195,10.853-24.195,24.195
		c0,13.342,10.854,24.195,24.195,24.195s24.195-10.853,24.195-24.195C152.106,306.703,141.252,295.85,127.911,295.85z"/>
	<path style="fill:#1D1D1B;" d="M384.089,359.894c-21.974,0-39.851-17.877-39.851-39.851s17.877-39.851,39.851-39.851
		c21.974,0,39.851,17.877,39.851,39.851S406.062,359.894,384.089,359.894z M384.089,295.85c-13.341,0-24.195,10.853-24.195,24.195
		c0,13.342,10.854,24.195,24.195,24.195c13.341,0,24.195-10.853,24.195-24.195C408.284,306.703,397.429,295.85,384.089,295.85z"/>
	<path style="fill:#1D1D1B;" d="M391.917,223.978h-15.656c0-13.341-10.854-24.195-24.195-24.195
		c-13.341,0-24.194,10.853-24.194,24.195h-15.656c0-21.974,17.876-39.851,39.85-39.851
		C374.04,184.127,391.917,202.004,391.917,223.978z"/>
	<path style="fill:#1D1D1B;" d="M56.039,0v407.928H455.96V0H56.039z M71.695,15.656h368.609v24.372H71.695V15.656z M248.172,55.684
		v24.372h-28.02v39.673h71.695V80.055h-28.02V55.684h176.477v176.478H71.695V55.684H248.172z M276.191,95.711v8.361h-40.383v-8.361
		H276.191z M71.695,392.272V247.818h368.609v144.454L71.695,392.272L71.695,392.272z"/>
	<path style="fill:#1D1D1B;" d="M47.679,223.8H0v-94.655h47.679V223.8z M15.656,208.145h16.367v-63.343H15.656V208.145z"/>
	<polygon style="fill:#1D1D1B;" points="31.667,119.906 16.011,119.906 16.011,88.061 47.856,88.061 47.856,103.717 31.667,103.717 
			"/>
	<polygon style="fill:#1D1D1B;" points="47.856,263.827 16.011,263.827 16.011,231.983 31.667,231.983 31.667,248.172 
		47.856,248.172 	"/>
	<path style="fill:#1D1D1B;" d="M512,224.134h-47.679V129.48H512V224.134z M479.977,208.479h16.367v-63.343h-16.367V208.479z"/>
	<polygon style="fill:#1D1D1B;" points="495.988,120.24 480.332,120.24 480.332,104.05 464.144,104.05 464.144,88.394 
		495.988,88.394 	"/>
	<polygon style="fill:#1D1D1B;" points="495.988,264.162 464.144,264.162 464.144,248.507 480.332,248.507 480.332,232.317 
		495.988,232.317 	"/>
</g>
<g>
	<rect x="183.947" y="280.189" style="fill:#FFFFFF;" width="144.097" height="15.656"/>
	<rect x="183.947" y="312.221" style="fill:#FFFFFF;" width="144.097" height="15.656"/>
	<rect x="183.947" y="344.243" style="fill:#FFFFFF;" width="144.097" height="15.656"/>
</g>
<g>
	
		<rect x="132.105" y="104.987" transform="matrix(-0.7071 -0.7071 0.7071 -0.7071 128.6208 365.1374)" style="fill:#1D1D1B;" width="15.656" height="101.888"/>
	
		<rect x="152.113" y="153.298" transform="matrix(-0.7071 -0.7071 0.7071 -0.7071 148.626 413.4462)" style="fill:#1D1D1B;" width="15.656" height="45.287"/>
</g>
<g>
	<rect x="120.081" y="312.033" style="fill:#FFFFFF;" width="15.656" height="16.012"/>
	<rect x="376.264" y="312.033" style="fill:#FFFFFF;" width="15.656" height="16.012"/>
</g>
<g>
</g>
<g>
</g>
<g>
</g>
<g>
</g>
<g>
</g>
<g>
</g>
<g>
</g>
<g>
</g>
<g>
</g>
<g>
</g>
<g>
</g>
<g>
</g>
<g>
</g>
<g>
</g>
<g>
</g>
</svg>
