<?xml version="1.0" encoding="iso-8859-1"?>
<!-- Generator: Adobe Illustrator 19.0.0, SVG Export Plug-In . SVG Version: 6.00 Build 0)  -->
<svg version="1.1" id="Layer_1" xmlns="http://www.w3.org/2000/svg" xmlns:xlink="http://www.w3.org/1999/xlink" x="0px" y="0px"
	 viewBox="0 0 203.089 203.089" style="enable-background:new 0 0 203.089 203.089;" xml:space="preserve">
<g>
	<g>
		<path d="M196.162,6.689c-9.287-9.285-24.777-8.851-34.602,0.972l-33.63,35.953L21.226,11.673L3.214,29.685
			c-1.975,1.975-1.973,5.174,0,7.147l86.517,47.617l-33.98,36.866c-3.051,3.051-5.405,6.437-7.052,9.876l-36.112-9.347
			L1.355,133.077c-1.488,1.488-1.488,3.902,0,5.39l39.743,20.161l3.6,3.597l20.163,39.745c1.488,1.49,3.904,1.492,5.392,0.004
			l11.231-11.231l-9.51-36.747c3.329-1.64,6.604-3.937,9.563-6.895l37.003-34.115l47.954,87.124
			c1.975,1.975,5.171,1.975,7.147,0.002l18.01-18.012L159.499,74.674l35.691-33.385C205.01,31.464,205.445,15.972,196.162,6.689z"/>
	</g>
</g>
<g>
</g>
<g>
</g>
<g>
</g>
<g>
</g>
<g>
</g>
<g>
</g>
<g>
</g>
<g>
</g>
<g>
</g>
<g>
</g>
<g>
</g>
<g>
</g>
<g>
</g>
<g>
</g>
<g>
</g>
</svg>
