<?xml version="1.0" encoding="iso-8859-1"?>
<!-- Generator: Adobe Illustrator 19.0.0, SVG Export Plug-In . SVG Version: 6.00 Build 0)  -->
<svg version="1.1" id="Layer_1" xmlns="http://www.w3.org/2000/svg" xmlns:xlink="http://www.w3.org/1999/xlink" x="0px" y="0px"
	 viewBox="0 0 512 512" style="enable-background:new 0 0 512 512;" xml:space="preserve">
<path style="fill:#3D3D3D;" d="M328.348,503.652c0,4.61-3.738,8.348-8.348,8.348H52.87c-4.61,0-8.348-3.738-8.348-8.348
	s3.738-8.348,8.348-8.348H320C324.61,495.304,328.348,499.042,328.348,503.652z M9.461,495.304H8.348
	c-4.61,0-8.348,3.738-8.348,8.348S3.738,512,8.348,512h1.113c4.61,0,8.348-3.738,8.348-8.348S14.071,495.304,9.461,495.304z"/>
<path style="fill:#636363;" d="M130.597,485.658L130.597,485.658c0,14.549-11.794,26.342-26.342,26.342l0,0
	c-14.547,0-26.341-11.794-26.341-26.342l0,0c0-14.549,11.794-26.342,26.342-26.342l0,0
	C118.803,459.316,130.597,471.11,130.597,485.658z"/>
<path style="fill:#007DBC;" d="M478.609,445.217L478.609,445.217c0,18.442-14.949,33.391-33.391,33.391H33.391
	C14.949,478.609,0,463.659,0,445.217l0,0c0-18.442,14.949-33.391,33.391-33.391h411.826
	C463.659,411.826,478.609,426.775,478.609,445.217z"/>
<path style="fill:#636363;" d="M111.304,122.736h100.174v27.275H111.304c-6.147,0-11.13-4.983-11.13-11.13v-5.014
	C100.174,127.72,105.157,122.736,111.304,122.736z M400.696,133.565h-66.783l89.043,333.913h66.783L400.696,133.565z"/>
<path style="fill:#007DBC;" d="M421.393,0h28.428c8.338,0,14.723,7.415,13.487,15.661l-18.714,124.76
	c-2.002,13.352-13.472,23.229-26.973,23.229H209.273c-7.532,0-13.637-6.106-13.637-13.637v-27.275
	c0-7.532,6.106-13.637,13.637-13.637h106.14c18.808,0,36.29-9.689,46.258-25.638l48.157-77.052C412.32,2.422,416.69,0,421.393,0z"/>
<path style="fill:#004859;" d="M394.838,336.256h63.427c14.156,0,26.286,10.123,28.818,24.051L512,497.355
	c0,8.089-6.557,14.645-14.645,14.645h-248.97c-8.088,0-14.645-6.557-14.645-14.645l0,0
	C233.739,408.382,305.865,336.256,394.838,336.256z"/>
<path style="fill:#FFFFFF;" d="M464.696,453.809c0,12.14-9.877,22.017-22.017,22.017H333.913c-4.61,0-8.348-3.738-8.348-8.348
	s3.738-8.348,8.348-8.348h108.765c2.738,0,5-2.079,5.289-4.742l-7.466-41.07c-0.825-4.537,2.184-8.882,6.719-9.707
	c4.537-0.827,8.882,2.184,9.707,6.719l7.633,41.984C464.65,452.808,464.696,453.309,464.696,453.809z M300.522,459.13h-1.113
	c-4.61,0-8.348,3.738-8.348,8.348s3.738,8.348,8.348,8.348h1.113c4.61,0,8.348-3.738,8.348-8.348S305.132,459.13,300.522,459.13z"/>
<g>
</g>
<g>
</g>
<g>
</g>
<g>
</g>
<g>
</g>
<g>
</g>
<g>
</g>
<g>
</g>
<g>
</g>
<g>
</g>
<g>
</g>
<g>
</g>
<g>
</g>
<g>
</g>
<g>
</g>
</svg>
