<?xml version="1.0" encoding="iso-8859-1"?>
<!-- Generator: Adobe Illustrator 19.0.0, SVG Export Plug-In . SVG Version: 6.00 Build 0)  -->
<svg version="1.1" id="Layer_1" xmlns="http://www.w3.org/2000/svg" xmlns:xlink="http://www.w3.org/1999/xlink" x="0px" y="0px"
	 viewBox="0 0 512 512" style="enable-background:new 0 0 512 512;" xml:space="preserve">
<g>
	<g>
		<path d="M356.174,105.739H155.826c-27.668,0.01-50.077,22.417-50.087,50.087v200.348c0.01,27.668,22.419,50.075,50.087,50.085
			h200.348c27.668-0.01,50.077-22.417,50.087-50.085V155.826C406.251,128.156,383.842,105.749,356.174,105.739z M322.783,272.696
			H256c-4.396,0-8.696-1.781-11.806-4.892c-3.109-3.108-4.89-7.407-4.89-11.804v-66.783c0-9.223,7.475-16.696,16.696-16.696
			s16.696,7.473,16.696,16.696v50.087h50.087c9.22,0,16.696,7.473,16.696,16.696C339.478,265.22,332.003,272.696,322.783,272.696z"
			/>
	</g>
</g>
<g>
	<g>
		<path d="M338.622,11.415C336.342,4.573,329.993,0,322.783,0H189.217c-7.21,0-13.559,4.573-15.84,11.415l-18.456,60.932h202.158
			L338.622,11.415z"/>
	</g>
</g>
<g>
	<g>
		<path d="M154.923,439.652l18.454,60.93c2.281,6.842,8.629,11.418,15.84,11.418h133.565c7.21,0,13.559-4.578,15.84-11.418
			l18.454-60.93H154.923z"/>
	</g>
</g>
<g>
</g>
<g>
</g>
<g>
</g>
<g>
</g>
<g>
</g>
<g>
</g>
<g>
</g>
<g>
</g>
<g>
</g>
<g>
</g>
<g>
</g>
<g>
</g>
<g>
</g>
<g>
</g>
<g>
</g>
</svg>
