<?xml version="1.0" encoding="iso-8859-1"?>
<!-- Generator: Adobe Illustrator 19.0.0, SVG Export Plug-In . SVG Version: 6.00 Build 0)  -->
<svg version="1.1" id="Layer_1" xmlns="http://www.w3.org/2000/svg" xmlns:xlink="http://www.w3.org/1999/xlink" x="0px" y="0px"
	 viewBox="0 0 512.001 512.001" style="enable-background:new 0 0 512.001 512.001;" xml:space="preserve">
<path style="fill:#CEE8FA;" d="M255.997,381.292c-66.364,0-130.539-27.71-176.072-76.027
	c-11.601-12.288-21.966-25.867-30.806-40.368c-22.934-37.774-35.06-81.189-35.06-125.544v-8.643h61.307v8.643
	c0,33.127,9.036,65.522,26.131,93.679c6.599,10.832,14.344,20.977,23.027,30.166c34.505,36.618,81.199,56.79,131.474,56.79
	c50.282,0,96.966-20.159,131.454-56.763c8.701-9.218,16.467-19.393,23.076-30.235c17.079-28.128,26.103-60.503,26.103-93.636v-8.643
	h61.31v8.643c0,44.349-12.116,87.745-35.039,125.499c-8.864,14.537-19.247,28.146-30.855,40.439
	C386.533,353.593,322.368,381.292,255.997,381.292z"/>
<g>
	<path style="fill:#2D527C;" d="M497.941,116.651h-61.308c-7.763,0-14.059,6.294-14.059,14.059v8.643
		c0,30.559-8.32,60.414-24.049,86.319c-6.096,10.003-13.26,19.39-21.304,27.911c-31.804,33.756-74.854,52.346-121.222,52.346
		c-46.361,0-89.419-18.599-121.256-52.385c-8.007-8.473-15.153-17.837-21.229-27.807c-14.827-24.422-23.072-52.308-23.997-80.967
		h129.371c6.35,26.444,30.182,46.16,58.546,46.16c9.185,0,18.115-2.061,26.254-6.017c8.139,3.956,17.069,6.017,26.254,6.017
		c33.206,0,60.22-27.014,60.22-60.219c0-7.765-6.296-14.059-14.059-14.059s-14.059,6.294-14.059,14.059
		c0,17.7-14.401,32.101-32.102,32.101c-6.559,0-12.867-1.97-18.247-5.697c-4.817-3.338-11.198-3.338-16.015,0
		c-5.379,3.727-11.687,5.697-18.247,5.697c-17.702,0-32.102-14.401-32.102-32.101c0-7.765-6.294-14.059-14.059-14.059
		c-0.356,0-0.704,0.027-1.054,0.053c-0.35-0.025-0.699-0.053-1.054-0.053H14.059C6.294,116.652,0,122.947,0,130.711v8.643
		c0,46.927,12.829,92.864,37.116,132.862c9.348,15.333,20.311,29.7,32.579,42.691c48.179,51.123,116.082,80.443,186.304,80.443
		c70.227,0,138.124-29.312,186.27-80.405c12.278-13.002,23.259-27.391,32.652-42.796c24.259-39.954,37.081-85.874,37.081-132.796
		v-8.643C512,122.945,505.706,116.651,497.941,116.651z M450.898,257.533c-8.358,13.708-18.139,26.529-29.085,38.117
		c-42.864,45.491-103.304,71.583-165.816,71.583c-62.506,0-122.953-26.101-165.85-71.619
		c-10.931-11.578-20.696-24.374-29.011-38.013C40.47,223.564,29.125,184.66,28.183,144.769h33.199
		c0.934,33.81,10.6,66.739,28.11,95.579c7.11,11.669,15.458,22.605,24.801,32.493c37.192,39.469,87.517,61.207,141.706,61.207
		c54.196,0,104.514-21.728,141.677-61.172c9.38-9.935,17.744-20.894,24.87-32.59c17.482-28.79,27.138-61.703,28.072-95.517h33.2
		C482.875,184.654,471.538,223.54,450.898,257.533z"/>
	<path style="fill:#2D527C;" d="M165.086,256.926c-7.765,0-14.059-6.294-14.059-14.059v-19.214c0-7.765,6.294-14.059,14.059-14.059
		s14.059,6.294,14.059,14.059v19.214C179.145,250.632,172.851,256.926,165.086,256.926z"/>
	<path style="fill:#2D527C;" d="M346.915,256.926c-7.763,0-14.059-6.294-14.059-14.059v-19.214c0-7.765,6.296-14.059,14.059-14.059
		c7.763,0,14.059,6.294,14.059,14.059v19.214C360.974,250.632,354.68,256.926,346.915,256.926z"/>
	<path style="fill:#2D527C;" d="M256,284.127c-7.765,0-14.059-6.294-14.059-14.059v-19.213c0-7.765,6.294-14.059,14.059-14.059
		c7.763,0,14.059,6.294,14.059,14.059v19.214C270.059,277.833,263.765,284.127,256,284.127z"/>
</g>
<g>
</g>
<g>
</g>
<g>
</g>
<g>
</g>
<g>
</g>
<g>
</g>
<g>
</g>
<g>
</g>
<g>
</g>
<g>
</g>
<g>
</g>
<g>
</g>
<g>
</g>
<g>
</g>
<g>
</g>
</svg>
